<svg xmlns="http://www.w3.org/2000/svg" width="2000" height="1600" style="width:100%;height:100%"><defs><clipPath id="d"><path d="M0 0h2000v1600H0z"/></clipPath><clipPath id="e"><path d="M0 0h1000v1000H0z"/></clipPath><clipPath id="A"><path d="M0 0h1920v1080H0z"/></clipPath><clipPath id="z"><path d="M0 0h1920v1080H0z"/></clipPath><clipPath id="y"><path d="M0 0h1920v1080H0z"/></clipPath><clipPath id="x"><path d="M0 0h1920v1080H0z"/></clipPath><clipPath id="w"><path d="M0 0h1920v1080H0z"/></clipPath><clipPath id="v"><path d="M0 0h1920v1080H0z"/></clipPath><clipPath id="u"><path d="M0 0h1920v1080H0z"/></clipPath><clipPath id="t"><path d="M0 0h1920v1080H0z"/></clipPath><clipPath id="s"><path d="M0 0h1920v1080H0z"/></clipPath><clipPath id="r"><path d="M0 0h1920v1080H0z"/></clipPath><clipPath id="q"><path d="M0 0h1920v1080H0z"/></clipPath><clipPath id="p"><path d="M0 0h1920v1080H0z"/></clipPath><clipPath id="n"><path d="M0 0h3000v2500H0z"/></clipPath><clipPath id="m"><path d="M0 0h1920v1080H0z"/></clipPath><clipPath id="g"><path d="M0 0h1920v1080H0z"/></clipPath><clipPath id="h"><path d="M0 0h1920v1080H0z"/></clipPath><clipPath id="j"><path d="M0 0h1920v1080H0z"/></clipPath><clipPath id="a"><path d="M0 0h1920v1080H0z"/></clipPath><clipPath id="c"><path d="M0 0h1920v1080H0z"/></clipPath><clipPath id="f"><path d="M0 0h1920v1080H0z"/></clipPath><mask id="o"><path fill="#E0E0E0" d="M385.658 211.746h-653.301c-7.868 0-14.245-6.377-14.245-14.245v-414.773c0-7.868 6.377-14.246 14.245-14.246h653.301c7.868 0 14.245 6.378 14.245 14.246v414.773c0 7.868-6.377 14.245-14.245 14.245z" transform="matrix(1.03 0 0 1.03 495 526)" display="block"/></mask><mask id="l"><path fill="#E0E0E0" d="M385.658 211.746h-653.301c-7.868 0-14.245-6.377-14.245-14.245v-414.773c0-7.868 6.377-14.246 14.245-14.246h653.301c7.868 0 14.245 6.378 14.245 14.246v414.773c0 7.868-6.377 14.245-14.245 14.245z" transform="matrix(1.03 0 0 1.03 495 526)" display="block"/></mask><mask id="i"><path fill="#FFC105" d="M-423.238 55.599h267.239c5.855 0 10.602-4.746 10.602-10.601v-74.209c0-5.855-4.747-10.601-10.602-10.601h-267.239c-5.855 0-10.601 4.746-10.601 10.601v74.209c0 5.855 4.746 10.601 10.601 10.601z" transform="translate(960 540)" display="block"/></mask><mask id="k"><g clip-path="url(#a)" transform="translate(0 -46.055)" display="block"><path fill="#FBBC04" d="M-423.238 55.599h267.239c5.855 0 10.602-4.746 10.602-10.601v-74.209c0-5.855-4.747-10.601-10.602-10.601h-267.239c-5.855 0-10.601 4.746-10.601 10.601v74.209c0 5.855 4.746 10.601 10.601 10.601z" transform="translate(960 540)" display="block"/><path fill="#AAA" d="M-145.692 24.899c7.807 0 14.135-6.328 14.135-14.135v-7.95c0-7.807-6.328-14.135-14.135-14.135v36.22z" transform="translate(960 540)" display="block"/><path fill-opacity="0" stroke-miterlimit="10" stroke="#AAA" stroke-width="4" d="M526.161 549.66h-6.847c-5.733 0-10.38 4.648-10.38 10.381v19.877c0 25.005 20.271 45.276 45.276 45.276h96.736c8.66 0 15.681 7.021 15.681 15.681v10.38" display="block"/><path fill="#E0E0E0" d="M-317.102 127.157h49.596c0-9.026-7.317-16.343-16.343-16.343h-16.91c-9.026 0-16.343 7.317-16.343 16.343z" transform="translate(960 540)" display="block"/><path fill="#AAA" d="M-292.774 321.955h.001c18.752 0 33.698-15.674 32.807-34.405l-7.619-160.246h-49.596l-8.392 160.086c-.985 18.789 13.984 34.565 32.799 34.565z" transform="translate(960 540)" display="block"/><g mask="url(#b)" display="block"><g clip-path="url(#c)"><g display="block"><path fill-opacity="0" stroke-miterlimit="10" stroke="#FFF" stroke-width="2" d="M455.068 570.426l496.574-200.56M483.043 598.696l516.824-208.56M534.872 619.015l508.573-208.06M572.86 647.285l484.823-200.06"/></g><g display="block"><path fill-opacity="0" stroke-miterlimit="10" stroke="#FFF" stroke-width="2" d="M326.818 456.676l496.574-200.56M354.793 484.946l516.824-208.56M406.622 505.265l508.573-208.06M444.61 533.535l484.823-200.06"/></g></g></g><path fill="#F29900" d="M-155.963-39.834h-126.166l-37.02 95.439h37.02v.004h126.166c5.824 0 10.546-4.722 10.546-10.546v-74.351c0-5.824-4.722-10.546-10.546-10.546z" transform="translate(960 540)" display="block"/><path fill="#616161" d="M-275.304 209.752l12.463 17.386-.824-17.385-11.639-.001z" transform="translate(960 540)" opacity=".3" display="block"/></g></mask><mask id="b"><path fill="#FFC105" d="M-423.238 55.599h267.239c5.855 0 10.602-4.746 10.602-10.601v-74.209c0-5.855-4.747-10.601-10.602-10.601h-267.239c-5.855 0-10.601 4.746-10.601 10.601v74.209c0 5.855 4.746 10.601 10.601 10.601z" transform="translate(960 540)" display="block"/></mask></defs><g clip-path="url(#d)"><path fill="#fff" d="M0 0h2000v1600H0z" display="block"/><g clip-path="url(#e)" transform="matrix(1.88 0 0 1.88 60 -139)" display="block"><path fill="#fff" d="M0 0h1000v1000H0z" display="block"/><g clip-path="url(#f)" transform="matrix(1.03 0 0 1.03 -493.8 -30.2)" display="block"><path stroke-miterlimit="10" stroke="#C4C4C4" stroke-width="1.208" d="M807.629 790.362h-16.917v-16.917h16.917v16.917z" fill="none" display="block"/><path fill="#C4C4C4" d="M1090.917 283.24h-7.698v-7.698h7.698v7.698zM1142.827 780.32h-7.699v-7.698h7.699v7.698z" display="block"/><path stroke-miterlimit="10" stroke="#C4C4C4" stroke-width="1.208" d="M1255.987 279.169h-68.197v-68.197h68.197v68.197zM1418.621 686.282h-25.841v-25.841h25.841v25.841z" fill="none" display="block"/></g><path fill="#E0E0E0" d="M892.228 744.098h-672.9c-8.104 0-14.673-6.568-14.673-14.672V302.21c0-8.104 6.569-14.674 14.673-14.674h672.9c8.104 0 14.672 6.57 14.672 14.674v427.216c0 8.104-6.568 14.672-14.672 14.672z" display="block"/><g clip-path="url(#g)" transform="matrix(1.03 0 0 1.03 -493.8 -30.2)" display="block"><path fill="#FBBC04" d="M566.357 480.163a5.448 5.448 0 01-5.448-5.448v-63.018a5.448 5.448 0 1110.896 0v63.018a5.448 5.448 0 01-5.448 5.448zM642.038 476.924a7.215 7.215 0 01-7.215-7.215V366.796a7.214 7.214 0 017.215-7.214 7.214 7.214 0 017.215 7.214v102.913a7.215 7.215 0 01-7.215 7.215zM609.498 374.74a7.362 7.362 0 11-14.724 0 7.362 7.362 0 0114.724 0z" display="block"/><path fill="#F29900" d="M568.271 322.764a3.681 3.681 0 11-7.362 0 3.681 3.681 0 017.362 0z" display="block"/><g clip-path="url(#h)" transform="translate(0 -46.055)" display="block"><path fill="#FBBC04" d="M536.762 595.599h267.239c5.855 0 10.602-4.746 10.602-10.601v-74.209c0-5.855-4.747-10.601-10.602-10.601H536.762c-5.855 0-10.601 4.746-10.601 10.601v74.209c0 5.855 4.746 10.601 10.601 10.601z" display="block"/><path fill="#AAA" d="M814.308 564.899c7.807 0 14.135-6.328 14.135-14.135v-7.95c0-7.807-6.328-14.135-14.135-14.135v36.22z" display="block"/><path stroke-miterlimit="10" stroke="#AAA" stroke-width="4" d="M526.161 549.66h-6.847c-5.733 0-10.38 4.648-10.38 10.381v19.877c0 25.005 20.271 45.276 45.276 45.276h96.736c8.66 0 15.681 7.021 15.681 15.681v10.38" fill="none" display="block"/><path fill="#E0E0E0" d="M642.898 667.157h49.596c0-9.026-7.317-16.343-16.343-16.343h-16.91c-9.026 0-16.343 7.317-16.343 16.343z" display="block"/><path fill="#AAA" d="M667.226 861.955h.001c18.752 0 33.698-15.674 32.807-34.405l-7.619-160.246h-49.596l-8.392 160.086c-.985 18.789 13.984 34.565 32.799 34.565z" display="block"/><g mask="url(#i)" display="block"><g clip-path="url(#j)"><g display="block"><path stroke-miterlimit="10" stroke="#FFF" stroke-width="2" d="M455.068 570.426l496.574-200.56M483.043 598.696l516.824-208.56M534.872 619.015l508.573-208.06M572.86 647.285l484.823-200.06" fill="none"/></g><g display="block"><path stroke-miterlimit="10" stroke="#FFF" stroke-width="2" d="M326.818 456.676l496.574-200.56M354.793 484.946l516.824-208.56M406.622 505.265l508.573-208.06M444.61 533.535l484.823-200.06" fill="none"/></g></g></g><path fill="#F29900" d="M804.037 500.166H677.871l-37.02 95.439h37.02v.004h126.166c5.824 0 10.546-4.722 10.546-10.546v-74.351c0-5.824-4.722-10.546-10.546-10.546z" display="block"/><path fill="#616161" d="M684.696 749.752l12.463 17.386-.824-17.385-11.639-.001z" opacity=".3" display="block"/></g><g mask="url(#k)" display="block"><path fill="#616161" d="M1345.658 772.746H692.357c-7.868 0-14.245-6.377-14.245-14.245V343.728c0-7.868 6.377-14.246 14.245-14.246h653.301c7.868 0 14.245 6.378 14.245 14.246v414.773c0 7.868-6.377 14.245-14.245 14.245z"/></g></g><g mask="url(#l)" display="block"><path fill="#FBBC04" d="M914.407 264.788H190.55v85.99h723.856v-85.99z"/></g><path fill="#F5F5F5" d="M384.956 744.175l-165.514.302c-8.125 0-14.711-6.585-14.711-14.71V350.759h180.225v393.416z" display="block"/><g clip-path="url(#m)" transform="matrix(1.03 0 0 1.03 -493.8 -30.2)" display="block"><path stroke-miterlimit="10" stroke="#C4C4C4" d="M907.363 369.439v381.644M906.922 418.768h444.368M906.038 535.967h442.601M906.922 717.955h442.159M1349.302 369.439v381.644" fill="none" display="block"/><path stroke-miterlimit="10" stroke="#C4C4C4" stroke-width="1.208" d="M906.922 592.074h443.484" fill="none" display="block"/><path stroke-miterlimit="10" stroke="#C4C4C4" d="M907.805 606.642h441.276M1120.713 369.439v381.644M1135.952 369.439v381.644" fill="none" display="block"/></g><path fill="#616161" d="M780.3 425.393h126.524v48.46L780.3 425.392z" opacity=".3" display="block"/><g clip-path="url(#n)" transform="matrix(1.03 0 0 1.03 -1050 -761.5)" display="block"><path fill="#F5F5F5" d="M1952.909 1152.323H1765.4a7.289 7.289 0 01-7.288-7.289V957.525a7.288 7.288 0 017.288-7.288h187.509a7.289 7.289 0 017.289 7.288v187.509a7.29 7.29 0 01-7.289 7.289z" display="block"/><g display="block"><path fill="#1A73E8" d="M1822.023 998.898h13.728l38.896 102.388h-13.298l-10.296-28.171h-44.33l-10.296 28.171h-13.3l38.896-102.388zm24.882 62.777l-13.727-36.894-4.004-11.011h-.572l-4.004 11.011-13.729 36.894h36.036zM1885.664 1098.145c-4.195-2.096-7.436-4.981-9.724-8.652-2.288-3.669-3.431-7.84-3.431-12.512 0-7.722 2.906-13.751 8.722-18.09 5.813-4.337 13.157-6.507 22.023-6.507 4.384 0 8.458.479 12.226 1.431 3.765.954 6.65 2.051 8.652 3.289v-4.433c0-5.434-1.908-9.796-5.721-13.085-3.813-3.289-8.629-4.934-14.442-4.934-4.004 0-7.747.883-11.226 2.646-3.481 1.765-6.221 4.219-8.223 7.365l-9.152-6.865c2.86-4.384 6.815-7.815 11.869-10.295 5.052-2.478 10.629-3.718 16.732-3.718 9.914 0 17.682 2.598 23.308 7.793 5.624 5.197 8.438 12.276 8.438 21.236v46.189h-11.583v-10.439h-.573c-2.099 3.528-5.244 6.53-9.438 9.008-4.195 2.478-8.915 3.719-14.156 3.719-5.341 0-10.107-1.05-14.301-3.146zm26.885-10.725a23.85 23.85 0 008.436-8.437c2.096-3.526 3.147-7.387 3.147-11.583-2.288-1.524-5.102-2.764-8.438-3.718-3.338-.952-6.864-1.43-10.582-1.43-6.674 0-11.703 1.383-15.086 4.147-3.386 2.766-5.077 6.341-5.077 10.725 0 4.004 1.524 7.246 4.576 9.724 3.05 2.48 6.911 3.718 11.583 3.718 4.098 0 7.913-1.048 11.441-3.146z"/></g></g><g mask="url(#o)" display="block"><path fill="#F29900" d="M618.82 274.135c-10.88-6.772-25.587-9.65-32.85-6.43-.053.025-.1.05-.152.075l-.006-.004-123.604 54.826.02.012c-2.005 1.025-3.115 2.466-3.398 4.16l-8.59 16.846c-.007.015-.006.034-.012.049l-3.452 6.778 13.758-.682 32.353-1.602c3.356.175 6.363-.154 8.698-1.05l.02.014 123.603-54.825-.006-.004c.054-.023.112-.043.165-.067 7.263-3.221 4.331-11.324-6.548-18.096z"/></g><g clip-path="url(#p)" transform="rotate(3.991 1123.871 -6646.24) scale(1.03)" display="block"><path fill="#FFF" d="M920.84 367.044l38.285-8.652-40.435-40.422-8.713 38.696c-.681 3.499 4.358 10.831 10.863 10.378z" display="block"/><path fill="#616161" d="M910.081 356.262l-3.022 13.44c-.05.223.15.422.373.372l13.408-3.03c-2.225-.591-4.615-1.973-6.696-4.054-2.09-2.09-3.477-4.494-4.063-6.728z" display="block"/><path fill="#FFABAB" d="M920.616 314.873l.021.021c-6.447 7.33-2.807 21.972 8.412 33.191 11.218 11.218 25.861 14.859 33.191 8.412l.021.021 121.345-121.345-41.646-41.645-121.344 121.345z" display="block"/><path stroke-miterlimit="10" stroke="#FFF" d="M926.468 348.31l125.742-123.386M917.633 332.409l125.743-123.387M941.486 358.028l125.742-123.386" fill="none" display="block"/><path fill="#F5F5F5" d="M1075.849 201.284c11.5 11.5 15.043 26.603 7.913 33.733-7.13 7.13-22.233 3.588-33.733-7.912-11.5-11.5-15.042-26.603-7.912-33.733 7.13-7.13 22.232-3.588 33.732 7.912z" display="block"/></g><g clip-path="url(#q)" transform="matrix(1.03 0 0 1.03 -493.8 -30.2)" display="block"><path fill="#B3E4FF" d="M817.989 729.881h-99.534a1.914 1.914 0 01-1.914-1.914v-33.276c0-1.057.857-1.914 1.914-1.914h99.534c1.057 0 1.914.857 1.914 1.914v33.276a1.914 1.914 0 01-1.914 1.914z" display="block"/></g><path fill="#616161" d="M843.356 683.36H635.891v-62.179h207.465v62.18z" opacity=".2" display="block"/><g clip-path="url(#r)" transform="matrix(1.03 0 0 1.03 -493.8 -30.2)" display="block"><path fill="#F29900" d="M1290.627 681.587h-201.423v-60.369h201.423v60.369z" display="block"/><path stroke-linecap="round" stroke-miterlimit="10" stroke="#FFF" stroke-width="1.208" d="M1107.02 641.685h163.877M1107.02 661.709h101.3" fill="none" display="block"/><path fill="#AAA" d="M1092.474 621.183a3.236 3.236 0 11-6.466.261 3.236 3.236 0 016.466-.261zM1293.75 621.183a3.236 3.236 0 11-6.466.261 3.236 3.236 0 016.466-.261zM1092.474 681.587a3.236 3.236 0 11-6.467.261 3.236 3.236 0 016.467-.261zM1293.75 681.587a3.236 3.236 0 11-6.467.261 3.236 3.236 0 016.467-.261z" display="block"/></g><path fill="#FFF" d="M879.122 680.079l-39.045-6.638c-1.604-.273-2.869 1.344-2.22 2.835l15.784 36.323c.618 1.422 2.532 1.669 3.488.447l5.177-6.606a2.047 2.047 0 012.874-.35l22.204 17.398c.89.697 2.177.542 2.874-.348l7.997-10.207a2.047 2.047 0 00-.348-2.874l-22.204-17.398a2.048 2.048 0 01-.349-2.875l5.036-6.427c.957-1.221.262-3.02-1.268-3.28z" display="block"/><g clip-path="url(#s)" transform="matrix(1.03 0 0 1.03 -493.8 -30.2)" display="block"><path stroke-miterlimit="10" stroke="#C4C4C4" d="M1019.118 717.955H907.474V606.642h111.644v111.313zM907.474 606.642l111.644 111.313M1019.118 606.642L907.584 717.513" fill="none" display="block"/><path fill="#EA4335" d="M1003.326 664.065c0 21.834-17.699 39.534-39.533 39.534s-39.534-17.7-39.534-39.534 17.7-39.534 39.534-39.534 39.533 17.7 39.533 39.534z" display="block"/><path fill="#AAA" d="M910.599 606.642a3.236 3.236 0 11-6.472 0 3.236 3.236 0 016.472 0zM910.599 717.844a3.236 3.236 0 11-6.473 0 3.236 3.236 0 016.473 0zM1022.244 606.642a3.237 3.237 0 11-6.474-.002 3.237 3.237 0 016.474.002zM1022.244 717.844a3.237 3.237 0 11-6.474-.002 3.237 3.237 0 016.474.002z" display="block"/></g><g clip-path="url(#t)" transform="matrix(1.03 0 0 1.03 -493.8 -30.2)" display="block"><path fill="#FFF" d="M1121.155 592.654H906.922V418.768h214.233v173.886z" display="block"/><path stroke-miterlimit="10" stroke="#C4C4C4" d="M1118.214 421.01L909.613 589.801M910.055 421.01l208.601 168.791" fill="none" display="block"/><path fill="#AAA" d="M910.599 418.768a3.236 3.236 0 11-6.472 0 3.236 3.236 0 016.472 0zM1123.728 418.768a3.236 3.236 0 11-6.473 0 3.236 3.236 0 016.473 0zM910.599 592.065a3.236 3.236 0 11-6.472 0 3.236 3.236 0 016.472 0zM1123.728 592.065a3.236 3.236 0 11-6.473 0 3.236 3.236 0 016.473 0z" display="block"/></g><g clip-path="url(#u)" transform="matrix(1.03 0 0 1.03 -493.8 -30.2)" display="block"><path fill="#FFF" d="M1349.854 535.083h-214.675v57.755h214.675v-57.755z" display="block"/><path stroke-miterlimit="10" stroke="#C4C4C4" d="M1135.179 535.083l214.675 57.755M1136.099 592.286l213.203-57.644" fill="none" display="block"/><path fill="#AAA" d="M1139.336 534.863a3.237 3.237 0 11-6.474-.002 3.237 3.237 0 016.474.002zM1352.244 534.863a3.237 3.237 0 11-6.474-.002 3.237 3.237 0 016.474.002zM1139.336 592.286a3.237 3.237 0 11-6.474-.002 3.237 3.237 0 016.474.002zM1352.244 592.286a3.237 3.237 0 11-6.474-.002 3.237 3.237 0 016.474.002z" display="block"/></g><g clip-path="url(#v)" transform="matrix(1.03 0 0 1.03 -493.8 -30.2)" display="block"><path fill="#EA4335" d="M1054.676 725.133c0 6.648-5.389 12.036-12.037 12.036-6.648 0-12.036-5.388-12.036-12.036s5.388-12.037 12.036-12.037 12.037 5.389 12.037 12.037zM1428.571 587.052c0 6.648-5.389 12.037-12.037 12.037-6.648 0-12.036-5.389-12.036-12.037 0-6.648 5.388-12.036 12.036-12.036s12.037 5.388 12.037 12.036z" display="block"/><path stroke-miterlimit="10" stroke="#EA4335" stroke-width="2" d="M1214.593 751.817c-7.598 39.772-42.563 69.831-84.549 69.831-47.54 0-86.08-38.539-86.08-86.08M1360.451 549.294c23.104 4.414 42.93 18.062 55.49 36.958" fill="none" display="block"/></g><g clip-path="url(#w)" transform="matrix(1.03 0 0 1.03 -493.8 -30.2)" display="block"><path fill="#AAA" d="M702.236 331.731h-77.678a3 3 0 01-3-3v-77.678a3 3 0 013-3h77.678a3 3 0 013 3v77.678a3 3 0 01-3 3z" display="block"/><path fill="#FFF" d="M630.674 310.797l15.016-16.691a1.216 1.216 0 011.797-.012l10.067 10.891a1.216 1.216 0 001.796-.01l14.956-16.561a1.216 1.216 0 011.79-.017l21.006 22.418c.728.777.177 2.049-.888 2.048l-64.636-.036c-1.052-.001-1.608-1.248-.904-2.03z" display="block"/></g><g clip-path="url(#x)" transform="matrix(1.03 0 0 1.03 -493.8 -30.184)" display="block"><path stroke-miterlimit="10" stroke="#AAA" d="M843.079 253.227H817.91a3 3 0 01-3-3v-25.169a3 3 0 013-3h25.169a3 3 0 013 3v25.169a3 3 0 01-3 3z" fill="none" display="block"/><path fill="#AAA" d="M817.235 252.979a2.245 2.245 0 11-4.49-.003 2.245 2.245 0 014.49.003zM817.235 222.376a2.245 2.245 0 01-4.489 0 2.244 2.244 0 014.489 0zM848.246 252.979a2.245 2.245 0 11-4.49-.003 2.245 2.245 0 014.49.003zM848.246 222.376a2.245 2.245 0 01-4.489 0 2.244 2.244 0 014.489 0z" display="block"/><g display="block"><path stroke-miterlimit="10" stroke="#AAA" stroke-width="2" d="M821.102 229.371h18.918M830.765 246.929v-17.422" fill="none"/></g></g><g clip-path="url(#y)" transform="matrix(1.03 0 0 1.03 -493.8 -30.224)" display="block"><path stroke-linecap="round" stroke-miterlimit="10" stroke="#C4C4C4" stroke-width="3" d="M1281.839 494.678h-21.435v-21.435" fill="none" display="block"/><path stroke-linecap="round" stroke-miterlimit="10" stroke="#C4C4C4" stroke-width="3" d="M1252.187 481.403h21.435v21.435" fill="none" display="block"/></g><g clip-path="url(#z)" transform="matrix(1.03 0 0 1.03 -493.8 -30.165)" display="block"><path fill="#AAA" d="M1349.01 807.963h-18.594a2 2 0 01-2-2V787.37a2 2 0 012-2h18.594a2 2 0 012 2v18.593a2 2 0 01-2 2z" display="block"/><path fill="#E0E0E0" d="M1338.836 786.304a9.422 9.422 0 01-9.422 9.422 9.422 9.422 0 01-9.422-9.422 9.422 9.422 0 019.422-9.422 9.422 9.422 0 019.422 9.422z" display="block"/></g><g clip-path="url(#A)" transform="matrix(1.03 0 0 1.03 -493.8 -30.21)" display="block"><path fill="#FFC105" d="M959.205 836.006h-36.208a3 3 0 01-3-3v-36.208a3 3 0 013-3h36.208a3 3 0 013 3v36.208a3 3 0 01-3 3z" display="block"/><path fill="#FFF" d="M951.689 810.776l-21.25-5.695 5.694 21.251 4.709-8.24 7.82 7.82 2.607-2.607-7.82-7.82 8.24-4.709z" display="block"/></g></g></g></svg>