<svg xmlns="http://www.w3.org/2000/svg" width="2000" height="1600" style="width:100%;height:100%"><defs><clipPath id="a"><path d="M0 0h2000v1600H0z"/></clipPath><clipPath id="b"><path d="M0 0h1000v1000H0z"/></clipPath><clipPath id="A"><path d="M0 0h3000v2500H0z"/></clipPath><clipPath id="B"><path d="M0 0h3000v2500H0z"/></clipPath><clipPath id="D"><path d="M0 0h3000v2500H0z"/></clipPath><clipPath id="o"><path d="M0 0h3000v2500H0z"/></clipPath><clipPath id="z"><path d="M0 0h3000v2500H0z"/></clipPath><clipPath id="y"><path d="M0 0h3000v2500H0z"/></clipPath><clipPath id="w"><path d="M0 0h3000v2500H0z"/></clipPath><clipPath id="v"><path d="M0 0h3000v2500H0z"/></clipPath><clipPath id="u"><path d="M0 0h3000v2500H0z"/></clipPath><clipPath id="r"><path d="M0 0h3000v2500H0z"/></clipPath><clipPath id="t"><path d="M0 0h3000v2500H0z"/></clipPath><clipPath id="p"><path d="M0 0h3000v2500H0z"/></clipPath><clipPath id="e"><path d="M0 0h3000v2500H0z"/></clipPath><clipPath id="n"><path d="M0 0h3000v2500H0z"/></clipPath><clipPath id="g"><path d="M0 0h3000v2500H0z"/></clipPath><clipPath id="l"><path d="M0 0h3000v2500H0z"/></clipPath><clipPath id="h"><path d="M0 0h3000v2500H0z"/></clipPath><clipPath id="d"><path d="M0 0h3000v2500H0z"/></clipPath><clipPath id="c"><path d="M0 0h3000v2500H0z"/></clipPath><mask id="F"><path fill="#3369E8" d="M-404.34 49.087l21.945-75.199c3.97-13.605 16.443-22.958 30.616-22.958h134.123c14.62 0 27.366 9.94 30.93 24.119l21.75 86.534c3.943 15.688-7.922 30.899-24.097 30.895l-182.768-.041c-22.575-.005-38.823-21.679-32.499-43.35z" transform="translate(1500 1250)" display="block"/></mask><mask id="E"><path fill="#3369E8" d="M-404.34 49.087l21.945-75.199c3.97-13.605 16.443-22.958 30.616-22.958h134.123c14.62 0 27.366 9.94 30.93 24.119l21.75 86.534c3.943 15.688-7.922 30.899-24.097 30.895l-182.768-.041c-22.575-.005-38.823-21.679-32.499-43.35z" transform="translate(1500 1250)" display="block"/></mask><mask id="C"><path d="M-189.497 92.466h-221.301a7.95 7.95 0 01-7.95-7.951V-74.209a7.95 7.95 0 017.95-7.951h221.301a7.951 7.951 0 017.951 7.951V84.515a7.951 7.951 0 01-7.951 7.951z" transform="translate(1500 1250)" display="block"/></mask><mask id="x"><path fill="#C4C4C4" d="M310.362 98.876V73.352h-28.969v26.029a25.41 25.41 0 01-14.004 22.708c-21.498 10.798-36.031 33.418-35.044 59.337 1.249 32.79 27.766 59.539 60.544 61.053 36.501 1.686 66.623-27.408 66.623-63.537 0-24.877-14.285-46.406-35.098-56.856-8.712-4.374-14.052-13.462-14.052-23.21z" transform="translate(1500 1250)" display="block"/></mask><mask id="s"><path fill="#FFC105" d="M279.168-70.21c9.025 11.941-3.14 36.344-27.171 54.506S201.17 7.501 192.145-4.44c-9.025-11.941 3.139-36.345 27.17-54.507 24.031-18.162 50.828-23.204 59.853-11.263z" transform="translate(1500 1250)" display="block"/></mask><mask id="q"><path fill="#B3E4FF" d="M393.571 262.086H194.798a7.951 7.951 0 01-7.951-7.951V113.963a7.951 7.951 0 017.951-7.951h198.773a7.95 7.95 0 017.95 7.951v140.172a7.95 7.95 0 01-7.95 7.951z" transform="translate(1500 1250)" display="block"/></mask><mask id="f"><path fill="#F5F5F5" d="M351.828-47.264h-577.767c-8.416 0-15.239-6.823-15.239-15.239v-190.16c0-8.416 6.823-15.239 15.239-15.239h577.767c8.416 0 15.24 6.823 15.24 15.239v190.16c0 8.416-6.824 15.239-15.24 15.239z" transform="translate(1500 1250)" display="block"/></mask><mask id="m"><path fill="#009925" d="M-8.857-24.736h-390.479l163.482-302.577h390.478L-8.857-24.736z" transform="translate(1500 1250)" display="block"/></mask><mask id="k"><g display="block"><path fill="#3369E8" d="M201.876-152.122c0 23.628-19.154 42.781-42.782 42.781-23.628 0-42.781-19.153-42.781-42.781s19.153-42.782 42.781-42.782 42.782 19.154 42.782 42.782z" transform="translate(1617.75 1250)"/><path fill-opacity="0" stroke-miterlimit="10" stroke="#3369E8" d="M201.876-152.122c0 23.628-19.154 42.781-42.782 42.781-23.628 0-42.781-19.153-42.781-42.781s19.153-42.782 42.781-42.782 42.782 19.154 42.782 42.782z" transform="translate(1617.75 1250)"/></g></mask><mask id="j"><g display="block"><path fill="#3369E8" d="M201.876-152.122c0 23.628-19.154 42.781-42.782 42.781-23.628 0-42.781-19.153-42.781-42.781s19.153-42.782 42.781-42.782 42.782 19.154 42.782 42.782z" transform="translate(1617.75 1250)"/><path fill-opacity="0" stroke-miterlimit="10" stroke="#3369E8" d="M201.876-152.122c0 23.628-19.154 42.781-42.782 42.781-23.628 0-42.781-19.153-42.781-42.781s19.153-42.782 42.781-42.782 42.782 19.154 42.782 42.782z" transform="translate(1617.75 1250)"/></g></mask></defs><g clip-path="url(#a)"><path fill="#fff" d="M0 0h2000v1600H0z" display="block"/><g clip-path="url(#b)" transform="matrix(1.98 0 0 1.98 10 -230)" display="block"><path fill="#fff" d="M0 0h1000v1000H0z" display="block"/><g clip-path="url(#c)" transform="translate(-1013 -750)" display="block"><g display="block"><path fill="#C4C4C4" d="M1501.184 1596.844l-8.269-9.905a.637.637 0 00-.492-.229l-5.905.02-16.694.055-1.617.006a.924.924 0 00-.922.926l.054 19.585c.001.51.416.923.926.922l24.212-.08a.64.64 0 00.495-.239l8.22-10.253a.637.637 0 00-.008-.808z"/><path fill="#FFF" d="M1490.466 1601.935a4.54 4.54 0 11-.024-9.082 4.54 4.54 0 01.024 9.082z"/></g><g display="block"><path fill="#E0E0E0" d="M1761.856 940.094l-8.269-9.905a.637.637 0 00-.492-.229l-5.905.02-16.694.055-1.617.005a.925.925 0 00-.922.927l.053 19.585c.001.51.417.923.927.922l24.212-.081a.64.64 0 00.495-.239l8.22-10.252a.638.638 0 00-.008-.808z"/><path fill="#FFF" d="M1751.138 945.185a4.542 4.542 0 11-.024-9.084 4.542 4.542 0 01.024 9.084z"/></g></g><g clip-path="url(#d)" transform="translate(-1013 -750)" display="block"><path stroke-miterlimit="10" stroke="#C4C4C4" stroke-width="1.208" d="M1272.716 1537.393h-91.763a8.487 8.487 0 01-8.487-8.487s0 0 0 0c0-4.687 3.8-8.487 8.487-8.487h91.763c4.687 0 8.487 3.8 8.487 8.487 0 0 0 0 0 0 0 4.687-3.8 8.487-8.487 8.487zM1213.597 1059.639h-38.155a8.486 8.486 0 01-8.487-8.486s0 0 0 0c0-4.687 3.8-8.487 8.487-8.487h38.155c4.687 0 8.486 3.8 8.486 8.487 0 0 0 0 0 0a8.486 8.486 0 01-8.486 8.486zM1953.69 1174.735h-38.155a8.486 8.486 0 01-8.487-8.486s0 0 0 0c0-4.687 3.8-8.487 8.487-8.487h38.155c4.687 0 8.486 3.8 8.486 8.487 0 0 0 0 0 0a8.486 8.486 0 01-8.486 8.486z" fill="none" display="block"/></g><path fill="#E0E0E0" d="M221.37 719.958a39.126 39.126 0 00-24.5-24.712l-.32-.109 5.479-2.787a39.124 39.124 0 0018.164-19.316l1.177-2.717 1.073 2.553a39.129 39.129 0 0019.49 20.276l4.258 1.991-.06.02a39.127 39.127 0 00-24.33 23.629l-.431 1.172zM902.37 336.072a24.33 24.33 0 00-15.236-15.367l-.198-.068 3.407-1.733a24.33 24.33 0 0011.295-12.012l.732-1.69.668 1.588a24.332 24.332 0 0012.12 12.609l2.647 1.238-.037.013a24.331 24.331 0 00-15.13 14.693l-.268.729z" display="block"/><g clip-path="url(#e)" transform="translate(-1010.018 -732)" display="block"><path fill="#F5F5F5" d="M1851.828 1202.736h-577.767c-8.416 0-15.239-6.823-15.239-15.239v-190.16c0-8.416 6.823-15.239 15.239-15.239h577.767c8.416 0 15.24 6.823 15.24 15.239v190.16c0 8.416-6.824 15.239-15.24 15.239z" display="block"/><g mask="url(#f)" display="block"><g clip-path="url(#g)"><g clip-path="url(#h)" display="block"><path stroke-miterlimit="10" stroke="#3369E8" d="M1701.876 1097.878c0 23.628-19.154 42.781-42.782 42.781-23.628 0-42.781-19.153-42.781-42.781s19.153-42.782 42.781-42.782 42.782 19.154 42.782 42.782z" fill="none" display="block"/><g display="block"><path fill="#3369E8" d="M1819.626 1097.878c0 23.628-19.154 42.781-42.782 42.781-23.628 0-42.781-19.153-42.781-42.781s19.153-42.782 42.781-42.782 42.782 19.154 42.782 42.782z"/><path stroke-miterlimit="10" stroke="#3369E8" d="M1819.626 1097.878c0 23.628-19.154 42.781-42.782 42.781-23.628 0-42.781-19.153-42.781-42.781s19.153-42.782 42.781-42.782 42.782 19.154 42.782 42.782z" fill="none"/></g><path fill="#3369E8" d="M1775.654 1117.229l-17.282-17.283a1.976 1.976 0 010-2.795l17.282-17.282a1.977 1.977 0 012.796 0l17.282 17.282a1.976 1.976 0 010 2.795l-17.282 17.283a1.977 1.977 0 01-2.796 0z" display="block"/><g display="block"><path fill="#3369E8" d="M1657.338 1089.334c.451.764.29 1.741-.383 2.32l-.961.762-10.258-11.964c.31-.19.901-.85 2.27-1.11.243-.046.986-.1.986-.1a3.384 3.384 0 013.064 1.137l5.282 8.955zM1678.122 1112.806l-.228 1.091c-.47 1.215-1.434 2.169-1.434 2.169l-10.35-11.945c.652-.56 2.341-1.112 3.032-.601l8.229 6.382c.689.799.967 1.872.751 2.904z"/><path fill="#3369E8" d="M1650.936 1094.34a7.864 7.864 0 005.126-1.918l-10.326-11.97c-1.88 1.622-2.536 3.956-2.954 6.22-.43 2.327-.477 4.249-.436 6.41.115 6.02 2.132 11.597 6.41 16.291 4.614 5.062 10.034 7.161 16.326 8.06 1.482.212 2.875.334 4.328.324 3.059-.02 5.037.045 7.05-1.691l-10.327-11.97a7.848 7.848 0 00-2.659 4.899c-.181 1.325-1.535 2.146-2.82 1.777a16.375 16.375 0 01-7.909-5.064 16.372 16.372 0 01-3.891-8.903c-.143-1.277.797-2.46 2.082-2.465z"/></g><path stroke-miterlimit="10" stroke="#3369E8" d="M1819.658 1097.878c0 23.628-19.153 42.781-42.781 42.781s-42.782-19.153-42.782-42.781 19.154-42.782 42.782-42.782c23.628 0 42.781 19.154 42.781 42.782z" fill="none" display="block"/><path fill="#FFF" d="M1786.652 1097.318l-7.504-5.509v3.823c-4.814.367-8.864 3.834-9.926 8.572l3.136.704a7.822 7.822 0 016.79-6.055v4.07l7.504-5.605z" display="block"/><g mask="url(#j)" display="block"><path fill="#FFF" d="M1775.654 1117.229l-17.282-17.283a1.976 1.976 0 010-2.795l17.282-17.282a1.977 1.977 0 012.796 0l17.282 17.282a1.976 1.976 0 010 2.795l-17.282 17.283a1.977 1.977 0 01-2.796 0z"/></g><g mask="url(#k)" display="block"><path fill="#3369E8" d="M1786.652 1097.318l-7.504-5.509v3.823c-4.814.367-8.864 3.834-9.926 8.572l3.136.704a7.822 7.822 0 016.79-6.055v4.07l7.504-5.605z"/></g></g><g clip-path="url(#l)" display="block"><path fill="#1E8E3E" d="M1491.143 1225.264h-390.479l163.482-302.577h390.478l-163.481 302.577z" display="block"/><path fill="#0D652D" d="M1283.717 953.667l207.426 271.597h-390.479l183.053-271.597z" display="block"/><path stroke-linejoin="round" stroke="#F5F5F5" stroke-width="28" d="M1416.741 923.129l-162.765 301.251" fill="none" display="block"/><path stroke-linejoin="round" stroke="#F5F5F5" stroke-width="23" d="M1159.171 1116.16h413.05" fill="none" display="block"/><g mask="url(#m)" display="block"><path fill="#E0E0E0" d="M1422.704 888.969s-35.271 118.509 81.828 153.78 177.764-19.751 177.764-19.751l25.395-108.634-284.987-25.395z"/></g></g></g></g><g clip-path="url(#n)" display="block"><path d="M1494.479 1067.423c0 2.44-12.361 4.417-27.608 4.417s-27.607-1.977-27.607-4.417c0-2.44 12.36-4.417 27.607-4.417s27.608 1.977 27.608 4.417z" display="block"/><path fill="#EA4335" d="M1525.524 963.81c0-32.758-26.556-59.316-59.315-59.316-32.76 0-59.317 26.558-59.317 59.317a59.026 59.026 0 0010.326 33.438h-.046l46.154 67.103c1.53 2.223 4.814 2.214 6.33-.017l45.884-67.499h-.056c6.34-9.44 10.04-20.8 10.04-33.025z" display="block"/><path fill="#A50E0E" d="M1485.35 963.81c0 10.572-8.57 19.143-19.141 19.143-10.572 0-19.142-8.57-19.142-19.142s8.57-19.143 19.142-19.143 19.141 8.571 19.141 19.143z" display="block"/></g></g><g clip-path="url(#o)" transform="translate(-1009.955 -732)" display="block"><path stroke-miterlimit="10" stroke="#C4C4C4" stroke-width="1.208" d="M1918.748 1541.975h-577.766c-8.416 0-15.24-6.823-15.24-15.239v-190.159c0-8.416 6.824-15.24 15.24-15.24h577.766c8.416 0 15.24 6.824 15.24 15.24v190.159c0 8.416-6.824 15.239-15.24 15.239z" fill="none" display="block"/><g clip-path="url(#p)" display="block"><path fill="#B3E4FF" d="M1893.571 1512.086h-198.773a7.951 7.951 0 01-7.951-7.951v-140.172a7.951 7.951 0 017.951-7.951h198.773a7.95 7.95 0 017.95 7.951v140.172a7.95 7.95 0 01-7.95 7.951z" display="block"/><g mask="url(#q)" display="block"><path fill="#1A73E8" d="M1909.031 1520.552h-228.589v-28.049h228.589v28.049z"/></g></g><g clip-path="url(#r)" transform="translate(-.01 .013)" display="block"><path stroke-miterlimit="10" stroke="#C4C4C4" stroke-width="1.208" d="M1734.442 1209.472s30.589 13.362 57.313 104.577" fill="none" display="block"/><path fill="#F29900" d="M1781.122 1182.558c9.897 13.096-1.56 38.435-25.591 56.597-24.031 18.162-51.535 22.27-61.432 9.174-9.897-13.096 1.559-38.436 25.59-56.598s51.536-22.269 61.433-9.173z" display="block"/><path fill="#FFC105" d="M1779.168 1179.79c9.025 11.941-3.14 36.344-27.171 54.506s-50.827 23.205-59.852 11.264c-9.025-11.941 3.139-36.345 27.17-54.507 24.031-18.162 50.828-23.204 59.853-11.263z" display="block"/><g mask="url(#s)" display="block"><g clip-path="url(#t)"><g display="block"><path fill="#FFF" d="M1872.125 1211.5L1740 1202.75l-8.125 9.5 60.125 93.625 80.125-94.375zM1693.5 1119.625L1617 1187l110.875 27.625 8.75-11-43.125-84z"/></g><g display="block"><path stroke="#FFF" stroke-width="2" d="M1688.25 1318l87-209.375M1615.25 1293l252.25-177" fill="none"/></g></g></g><path fill="#F29900" d="M1744.609 1201.115c2.162 2.861-.753 8.708-6.51 13.059-5.757 4.351-12.177 5.559-14.339 2.698-2.162-2.861.752-8.707 6.509-13.058 5.757-4.351 12.178-5.56 14.34-2.699z" display="block"/></g><g clip-path="url(#u)" transform="translate(.01 -.013)" display="block"><path stroke-miterlimit="10" stroke="#C4C4C4" stroke-width="1.208" d="M1887.2 1235.917c-8.163-12.027-21.949-19.929-37.58-19.929-22.887 0-41.818 16.941-44.936 38.967l-7.408 59.646M1810.086 1213.669l-5.402 41.286" fill="none" display="block"/><path fill="#AAA" d="M1816.491 1208.368a5.633 5.633 0 11-11.265-.001 5.633 5.633 0 0111.265.001z" display="block"/><path fill="#C4C4C4" d="M1886.613 1234.926c-.166.166-7.288 4.694-10.049 13.252-3.696 11.458.776 26.647 12.81 25.343 11.209-1.215 11.154-14.411 11.154-14.411l-13.915-24.184zM1889.829 1232.177c.181-.149 5.37-6.805 14.153-8.734 11.759-2.582 26.45 3.324 24 15.178-2.282 11.041-15.413 9.722-15.413 9.722l-22.74-16.166z" display="block"/><path fill="#E0E0E0" d="M1886.65 1233.215c-4.344 3.368-8.098 13.086 0 26.061 9.747 15.618 21.733 7.898 26.651 3.239 8.374-7.933 7.822-17.484-1.178-25.472-8.816-7.824-19.617-8.369-25.473-3.828z" display="block"/></g><g clip-path="url(#v)" transform="translate(-.01 .015)" display="block"><path stroke-miterlimit="10" stroke="#C4C4C4" stroke-width="1.208" d="M1829.963 1269.656l-25.619 44.393" fill="none" display="block"/><path fill="#AAA" d="M1837.804 1265.018a5.191 5.191 0 11-10.38 0 5.191 5.191 0 0110.38 0z" display="block"/></g><g clip-path="url(#w)" display="block"><path fill="#616161" d="M1835.023 1320.736l-18.531 46.862s-14.135-16.565-14.135-17.669c0-1.104 3.528-29.227 3.528-29.227l29.138.034z" display="block"/><path fill="#C4C4C4" d="M1810.362 1348.876v-25.524h-28.969v26.029a25.41 25.41 0 01-14.004 22.708c-21.498 10.798-36.031 33.418-35.044 59.337 1.249 32.79 27.766 59.539 60.544 61.053 36.501 1.686 66.623-27.408 66.623-63.537 0-24.877-14.285-46.406-35.098-56.856-8.712-4.374-14.052-13.462-14.052-23.21z" display="block"/><path fill="#C4C4C4" d="M1828.969 1316.92l-18.221 11.264h-29.595l-18.221-11.264v-5.632h66.037v5.632z" display="block"/><g mask="url(#x)" display="block"><path fill="#AAA" d="M1904.32 1496.064c0 24.965-33.487 45.202-74.797 45.202-41.31 0-74.798-20.237-74.798-45.202s33.488-45.203 74.798-45.203 74.797 20.238 74.797 45.203z"/></g></g><g clip-path="url(#y)" display="block"><path fill="#1A73E8" d="M1884.255 1387.574l-27.221-21.137a1.397 1.397 0 01-.246-1.958l26.536-34.4c.191-.247.486-.391.799-.389l22.912.165 5.889 22.203a.998.998 0 01-.174.867l-26.538 34.402a1.396 1.396 0 01-1.957.247z" display="block"/><path stroke-miterlimit="10" stroke="#C4C4C4" stroke-width="1.208" d="M1900.292 1337.804l13.485-16.208" fill="none" display="block"/><path fill="#FFF" d="M1902.662 1347.602a7.894 7.894 0 11-12.47-9.683 7.894 7.894 0 0112.47 9.683z" display="block"/></g><g clip-path="url(#z)" display="block"><path fill="#E0E0E0" d="M1621.031 1409.46h-248.687a2.65 2.65 0 01-2.651-2.65v-18.111a2.65 2.65 0 012.651-2.65h248.687a2.65 2.65 0 012.65 2.65v18.111a2.65 2.65 0 01-2.65 2.65z" display="block"/><path stroke-miterlimit="10" stroke="#C4C4C4" stroke-width="1.208" d="M1611.975 1449.215h-230.576c-6.465 0-11.706-5.241-11.706-11.706 0 0 0 0 0 0 0-6.465 5.241-11.705 11.706-11.705h230.576c6.465 0 11.706 5.24 11.706 11.705 0 0 0 0 0 0 0 6.465-5.241 11.706-11.706 11.706z" fill="none" display="block"/><path fill="#1E8E3E" d="M1547.765 1516.356h-172.389a5.683 5.683 0 01-5.683-5.683v-40.315a5.683 5.683 0 015.683-5.683h172.389a5.683 5.683 0 015.683 5.683v40.315a5.683 5.683 0 01-5.683 5.683z" display="block"/><g display="block"><path fill="#FFF" d="M1441.132 1481.87h6.938c.973 0 1.887.226 2.741.675a5.289 5.289 0 012.039 1.863c.504.792.755 1.684.755 2.673 0 .937-.237 1.755-.714 2.457a4.67 4.67 0 01-1.932 1.62v.109a4.874 4.874 0 012.377 1.673c.611.792.918 1.719.918 2.781 0 1.045-.266 1.985-.797 2.822a5.517 5.517 0 01-2.133 1.957 6.081 6.081 0 01-2.875.702h-7.317v-19.332zm6.938 8.343c.648 0 1.22-.148 1.715-.445a3.157 3.157 0 001.148-1.162c.271-.477.405-.966.405-1.471a2.99 2.99 0 00-.392-1.445 3.208 3.208 0 00-1.106-1.173c-.479-.307-1.031-.459-1.661-.459h-4.752v6.155h4.643zm.514 8.803c.647 0 1.228-.163 1.741-.487.513-.324.91-.742 1.189-1.256a3.277 3.277 0 00.418-1.579c0-.54-.145-1.066-.432-1.58a3.353 3.353 0 00-1.215-1.241c-.523-.315-1.124-.473-1.809-.473h-5.049v6.616h5.157zM1458.236 1500.176c-.873-.972-1.31-2.33-1.31-4.076v-8.667h2.296v8.315c0 1.314.296 2.278.89 2.889.595.612 1.396.918 2.404.918.773 0 1.461-.206 2.065-.62a4.212 4.212 0 001.403-1.621c.334-.666.5-1.368.5-2.106v-7.775h2.295v13.769h-2.187v-1.998h-.108c-.378.685-.98 1.26-1.808 1.729a5.296 5.296 0 01-2.647.701c-1.656 0-2.92-.485-3.793-1.458zM1476.393 1500.338l-5.698-12.905h2.485l4.32 10.232h.055l4.157-10.232h2.483l-8.504 19.601h-2.377l3.079-6.696z"/></g></g></g><g clip-path="url(#A)" transform="translate(-1010 -732)" display="block"><g clip-path="url(#B)" display="block"><path fill="#E0E0E0" d="M1659.681 1371.031h-577.767c-8.416 0-15.239-6.824-15.239-15.24v-190.159c0-8.416 6.823-15.239 15.239-15.239h577.767c8.416 0 15.239 6.823 15.239 15.239v190.159c0 8.416-6.823 15.24-15.239 15.24z" display="block"/><path fill="#F5F5F5" d="M1621.031 1257.067h-248.687a2.65 2.65 0 01-2.651-2.65v-18.11a2.651 2.651 0 012.651-2.651h248.687a2.65 2.65 0 012.65 2.651v18.11a2.65 2.65 0 01-2.65 2.65z" display="block"/><path stroke-miterlimit="10" stroke="#616161" stroke-width="1.208" d="M1611.975 1215.104h-136.932c-6.465 0-11.706-5.24-11.706-11.705 0 0 0 0 0 0 0-6.465 5.241-11.706 11.706-11.706h136.932c6.465 0 11.706 5.241 11.706 11.706 0 0 0 0 0 0 0 6.465-5.241 11.705-11.706 11.705z" fill="none" display="block"/><path fill="#F5F5F5" d="M1611.975 1297.264h-230.576c-6.465 0-11.706-5.241-11.706-11.706s5.241-11.705 11.706-11.705h230.576c6.465 0 11.706 5.24 11.706 11.705s-5.241 11.706-11.706 11.706z" display="block"/><g display="block"><path fill="#616161" d="M1383.779 1186.393h4.416l12.512 32.936h-4.278l-3.312-9.062h-14.261l-3.311 9.062h-4.278l12.512-32.936zm8.004 20.193l-4.416-11.868-1.289-3.542h-.183l-1.289 3.542-4.416 11.868h11.593zM1407.859 1218.455c-1.701-1.073-3.044-2.553-4.025-4.44-.981-1.886-1.472-4.024-1.472-6.417 0-2.36.491-4.492 1.472-6.393.981-1.901 2.324-3.388 4.025-4.462 1.702-1.073 3.612-1.611 5.727-1.611 1.779 0 3.373.407 4.785 1.22 1.41.813 2.484 1.817 3.219 3.013h.184l-.184-3.267v-9.705h3.91v32.936h-3.726v-3.451h-.184c-.735 1.166-1.809 2.155-3.219 2.967-1.412.813-3.006 1.22-4.785 1.22-2.115 0-4.025-.537-5.727-1.61zm9.983-3.037c1.18-.736 2.13-1.777 2.851-3.127.721-1.349 1.081-2.914 1.081-4.693 0-1.777-.36-3.341-1.081-4.691-.721-1.35-1.671-2.393-2.851-3.128a7.131 7.131 0 00-3.842-1.105c-1.35 0-2.621.369-3.817 1.105-1.196.735-2.155 1.786-2.875 3.15-.722 1.365-1.081 2.922-1.081 4.669 0 1.748.359 3.306 1.081 4.67.72 1.364 1.679 2.414 2.875 3.15 1.196.736 2.467 1.105 3.817 1.105 1.381 0 2.66-.369 3.842-1.105z"/></g><path stroke-miterlimit="10" stroke="#AAA" stroke-width="4" d="M1372.785 1323.325h129.865" fill="none" display="block"/></g><path fill="#F5F5F5" d="M1310.503 1342.466H1111.73a7.951 7.951 0 01-7.951-7.951v-140.171a7.951 7.951 0 017.951-7.951h198.773a7.951 7.951 0 017.951 7.951v140.171a7.951 7.951 0 01-7.951 7.951z" display="block"/><g mask="url(#C)" display="block"><g clip-path="url(#D)"><path fill="#1A73E8" d="M1095.66 1299.087l21.945-75.199c3.97-13.605 16.443-22.958 30.616-22.958h134.123c14.62 0 27.366 9.94 30.93 24.119l21.75 86.534c3.943 15.688-7.922 30.899-24.097 30.895l-182.768-.041c-22.575-.005-38.823-21.679-32.499-43.35z" display="block"/><g mask="url(#E)" display="block"><path fill="#0D3575" d="M1070.5 1119.5l-87 274.5 142 7.5L1191 1172l-120.5-52.5z"/></g><g mask="url(#F)" display="block"><path d="M1103.75 1312.44c22.247 0 40.31 18.063 40.31 40.31 0 22.247-18.063 40.31-40.31 40.31-22.247 0-40.31-18.063-40.31-40.31 0-22.247 18.063-40.31 40.31-40.31z"/></g><path stroke-miterlimit="10" stroke="#AAA" stroke-width="4" d="M-312.675-46.265c0-16.533 13.403-29.936 29.936-29.936s29.935 13.403 29.935 29.936" fill="none" transform="matrix(1 0 0 1 1499.999 1250)" display="block"/><path fill="#AAA" d="M1148.221 1200.93c16.297 0 28.928 14.542 24.649 30.267l-3.088 14.404c-3.19 11.722 6.218 23.29 22.284 23.29l108.412-.07c10.179 0 18.431-8.252 18.431-18.431l-.124-23.829c-.076-14.584-11.956-26.347-26.54-26.28l-144.024.649z" display="block"/><path fill="#F5F5F5" d="M1212.376 1285.385a7.581 7.581 0 01-7.582-7.582v-14.232a7.581 7.581 0 017.582-7.582 7.581 7.581 0 017.582 7.582v14.232a7.581 7.581 0 01-7.582 7.582zM1271.401 1285.385a7.581 7.581 0 01-7.582-7.582v-14.232a7.581 7.581 0 017.582-7.582 7.581 7.581 0 017.582 7.582v14.232a7.581 7.581 0 01-7.582 7.582z" display="block"/></g></g></g></g></g></svg>