<?xml version="1.0" encoding="UTF-8"?>
<svg width="420" height="100" version="1.1" viewBox="0 0 111.12 26.458" xmlns="http://www.w3.org/2000/svg" xmlns:cc="http://creativecommons.org/ns#" xmlns:dc="http://purl.org/dc/elements/1.1/" xmlns:rdf="http://www.w3.org/1999/02/22-rdf-syntax-ns#">
 <metadata>
  <rdf:RDF>
   <cc:Work rdf:about="">
    <dc:format>image/svg+xml</dc:format>
    <dc:type rdf:resource="http://purl.org/dc/dcmitype/StillImage"/>
    <dc:title/>
   </cc:Work>
  </rdf:RDF>
 </metadata>
 <g stroke-linecap="round">
  <rect x="-114.3" y="-98.425" width="77.787" height="20.108" fill-opacity="0" stroke-width="1.6669"/>
  <rect x="-65.617" y="-96.838" width="3.175" height="5.2917" fill="#fff" fill-opacity=".32932" stroke-width="1.6669"/>
  <g transform="translate(-.52916 2.6455)">
   <rect x="-114.3" y="-98.425" width="21.696" height="19.05" fill-opacity="0"/>
   <rect x="-114.3" y="-98.425" width="21.696" height="19.05" fill-opacity="0"/>
   <path d="m7.6743 2.7674c-0.46727 1.447-0.56242 3.0125-0.27384 4.5054s0.96028 2.9102 1.9331 4.0788c0.97286 1.1686 2.2448 2.0862 3.6607 2.6407s2.9727 0.74478 4.4804 0.54762c1.8999-0.24843 3.7335-1.1338 5.0107-2.562 1.2772-1.4283 1.9586-3.4063 1.7-5.3048-0.1293-0.94926-0.48718-1.8687-1.0482-2.6453-0.561-0.7766-1.3254-1.4076-2.2016-1.7952s-1.8623-0.52871-2.8095-0.38494-1.8514 0.57427-2.5483 1.2317c-0.63682 0.60075-1.0911 1.3743-1.417 2.1868-0.32595 0.81252-0.53009 1.6679-0.72491 2.5214-0.19482 0.85351-0.38223 1.7115-0.67688 2.5359-0.29465 0.82439-0.70199 1.6198-1.291 2.2674-0.83147 0.91417-2.0241 1.4985-3.2581 1.564-1.234 0.06556-2.4931-0.39673-3.37-1.2674s-1.3495-2.141-1.2245-3.3704c0.12496-1.2294 0.85501-2.3891 1.9249-3.0073 0.67234-0.38853 1.4602-0.56415 2.2361-0.53343 0.77592 0.03072 1.5388 0.26388 2.2176 0.64108 1.3575 0.75439 2.348 2.0581 2.9756 3.4787 1.0064 2.2778 1.1571 4.8615 2.1667 7.1379 0.50481 1.1382 1.241 2.2031 2.2661 2.9097 0.51256 0.35335 1.0931 0.61248 1.7043 0.73091 0.61118 0.11843 1.2529 0.09379 1.8454-0.09747 0.55551-0.17933 1.0619-0.50353 1.4667-0.92411s0.70822-0.93613 0.89178-1.4902c0.36711-1.1082 0.24234-2.352-0.25009-3.4105s-1.3342-1.9353-2.3212-2.5588-2.1151-1.0028-3.2647-1.2059c-3.0454-0.53798-6.2937 0.18291-8.8257 1.9587-2.5319 1.7757-4.3161 4.5843-4.8475 7.6309" fill="none" stroke="#282f36" stroke-width="2.5743"/>
  </g>
 </g>
 <text x="31.163422" y="21.185286" fill="#282f36" font-family="'Segoe UI'" font-size="22.359px" font-weight="bold" stroke-width=".33538" style="font-variant-caps:normal;font-variant-east-asian:normal;font-variant-ligatures:normal;font-variant-numeric:normal;line-height:1.25" xml:space="preserve"><tspan x="31.163422" y="21.185286" fill="#282f36" font-family="'Segoe UI'" font-size="22.359px" font-weight="bold" stroke-width=".33538" style="font-variant-caps:normal;font-variant-east-asian:normal;font-variant-ligatures:normal;font-variant-numeric:normal">Swigle</tspan></text>
</svg>
