<svg class="swigle-logo" width="460" height="120" viewBox="7 0 120 35" xmlns="http://www.w3.org/2000/svg"><path d="M53.509 20.933q0 1.505-.561 2.641-.56 1.137-1.52 1.904-.96.753-2.243 1.136t-2.745.384q-.989 0-1.845-.162-.841-.163-1.49-.384-.65-.236-1.092-.487-.428-.25-.62-.443t-.28-.546q-.074-.369-.074-1.048 0-.457.03-.767.029-.31.088-.502.073-.192.177-.265.118-.089.265-.089.207 0 .576.251.384.236.974.531.59.295 1.402.546.826.236 1.903.236.709 0 1.27-.162.56-.177.944-.487.399-.31.605-.767t.207-1.019q0-.649-.354-1.106-.355-.473-.93-.827-.56-.369-1.284-.679-.723-.324-1.49-.678-.768-.355-1.491-.797-.723-.458-1.299-1.078-.56-.634-.915-1.49-.354-.856-.354-2.051 0-1.373.502-2.406.517-1.048 1.372-1.727.871-.693 2.037-1.033 1.18-.34 2.494-.34.679 0 1.358.104t1.269.28q.59.178 1.048.4t.605.368q.147.148.192.25.059.104.088.281.044.163.06.428.014.251.014.635 0 .428-.03.723-.014.295-.073.487-.045.192-.148.28-.089.089-.25.089-.163 0-.517-.207-.355-.206-.871-.442-.517-.251-1.195-.443-.68-.207-1.49-.207-.635 0-1.108.163-.472.147-.797.428-.31.265-.472.649-.147.384-.147.812 0 .634.339 1.106.354.458.93.827.59.354 1.328.679.738.31 1.505.664.768.354 1.505.811.738.443 1.314 1.078.575.62.93 1.475.354.842.354 1.993zm22.064-7.97q0 .163-.045.399-.044.236-.162.679L71.854 25.95q-.074.25-.192.413-.118.148-.369.236-.236.089-.694.118-.442.03-1.165.03t-1.181-.045q-.457-.03-.723-.118-.251-.088-.369-.236-.118-.162-.177-.398l-2.214-8-.03-.133-.029.133-2.036 7.999q-.06.25-.177.413-.104.148-.37.236-.265.089-.722.118t-1.181.03q-.738 0-1.195-.045-.443-.029-.709-.118-.25-.088-.369-.236-.118-.162-.177-.398l-3.483-11.91q-.132-.427-.177-.663-.03-.251-.03-.414 0-.147.075-.25.088-.119.295-.178.221-.073.575-.103.37-.03.915-.03.59 0 .96.03t.575.103q.207.074.28.207.089.118.133.295l2.612 9.666.03.177.03-.177 2.45-9.666q.043-.177.132-.295.103-.133.295-.207.192-.073.531-.103.355-.03.9-.03t.886.045q.34.03.531.103.207.06.28.177.09.103.134.251l2.626 9.74.045.162.03-.177 2.508-9.666q.03-.177.118-.295.089-.133.295-.207.207-.074.56-.103.355-.03.901-.03t.886.03q.354.03.546.103.206.06.28.177.074.104.074.251zm5.595 13.193q0 .148-.089.266-.088.103-.31.177-.206.074-.56.103-.354.045-.9.045t-.9-.045q-.355-.03-.576-.103-.207-.074-.295-.177-.089-.118-.089-.266V13.022q0-.148.089-.251.088-.118.295-.192.221-.089.575-.133.354-.044.9-.044t.9.044q.355.044.561.133.222.074.31.192.089.103.089.25zm.28-17.62q0 1.122-.457 1.55-.458.428-1.697.428-1.255 0-1.697-.413-.428-.414-.428-1.49 0-1.122.442-1.55.458-.443 1.712-.443 1.24 0 1.683.428.442.413.442 1.49zm15.304 5.371q0 .709-.162 1.048-.162.34-.398.34h-1.55q.325.354.458.811.147.443.147.93 0 1.151-.384 2.051-.383.886-1.106 1.506-.709.605-1.727.93-1.004.31-2.243.31-.635 0-1.21-.148-.576-.163-.886-.37-.177.192-.325.458-.132.266-.132.59 0 .428.369.709.383.265 1.062.295l3.203.118q1.121.044 1.992.325.885.265 1.476.767.605.487.914 1.18.325.694.325 1.58 0 .974-.428 1.83-.428.87-1.284 1.505t-2.154 1.003q-1.284.37-3.01.37-1.683 0-2.879-.266-1.18-.266-1.948-.738-.752-.472-1.106-1.137-.34-.649-.34-1.431 0-.487.118-.93.133-.443.37-.856.25-.398.604-.767t.812-.708q-.635-.34-.989-.915-.34-.59-.34-1.284 0-.871.4-1.58.398-.722 1.032-1.298-.516-.516-.826-1.24-.31-.723-.31-1.8 0-1.151.398-2.051.413-.915 1.137-1.535.723-.635 1.726-.96 1.004-.339 2.214-.339.62 0 1.18.074.576.074 1.063.207h4.176q.251 0 .399.324.162.325.162 1.092zm-4.766 3.114q0-1.062-.59-1.653-.59-.59-1.668-.59-.546 0-.96.192-.413.177-.693.502-.266.31-.399.738-.132.413-.132.87 0 1.004.59 1.594.59.576 1.638.576.56 0 .974-.178.413-.177.679-.487.28-.31.413-.708.148-.413.148-.856zm.87 10.508q0-.665-.53-1.019-.532-.354-1.462-.383l-2.641-.074q-.384.28-.62.546-.222.25-.37.487-.132.236-.176.457-.045.222-.045.458 0 .738.738 1.121.753.384 2.11.384.842 0 1.417-.177.576-.162.93-.443t.502-.634q.147-.34.147-.723zm10.094-1.373q0 .148-.088.266-.089.103-.31.177-.206.074-.56.103-.355.045-.9.045-.547 0-.901-.045-.354-.03-.576-.103-.206-.074-.295-.177-.088-.118-.088-.266V6.75q0-.147.088-.265.089-.118.295-.192.222-.089.576-.133.354-.044.9-.044t.9.044.561.133q.221.074.31.192.089.118.089.265zm15.879-6.966q0 .68-.31 1.004-.295.325-.827.325h-8.013q0 .841.192 1.535.206.679.634 1.166.443.472 1.122.723.694.25 1.653.25.974 0 1.712-.132.737-.148 1.269-.31.546-.177.9-.31.354-.148.575-.148.133 0 .222.06.088.044.147.176.06.133.074.384.03.236.03.605 0 .325-.015.561-.015.221-.044.384-.03.162-.089.28-.059.103-.162.207-.089.103-.517.28-.428.177-1.092.354-.664.163-1.52.28-.856.133-1.83.133-1.756 0-3.084-.442-1.314-.443-2.199-1.343-.885-.9-1.328-2.273-.428-1.372-.428-3.217 0-1.756.457-3.158.458-1.417 1.328-2.39.871-.99 2.11-1.506 1.255-.517 2.82-.517 1.652 0 2.818.487 1.18.487 1.933 1.358.753.856 1.107 2.037.354 1.18.354 2.568zm-3.601-1.062q.044-1.564-.635-2.45-.664-.9-2.066-.9-.708 0-1.24.266-.516.265-.87.723-.34.443-.532 1.062-.177.606-.206 1.3z" style="font-variant-caps:normal;font-variant-east-asian:normal;font-variant-ligatures:normal;font-variant-numeric:normal" fill="#005bc4" aria-label="Swigle"/><path class="swigle-mark" stroke-dashoffset="var(--swigle-path)" stroke-width="4" stroke="#ffb000" stroke-dasharray="70 500" stroke-linecap="round" d="M27.557 17.213c-.766-1.419-2-2.514-3.111-3.682-.556-.584-1.088-1.195-1.517-1.878-.429-.682-.754-1.44-.867-2.239a4.259 4.259 0 01.276-2.236c.295-.7.8-1.316 1.444-1.719a3.343 3.343 0 012.182-.49 3.021 3.021 0 011.948 1.078c.331.412.544.918.618 1.442.074.524.01 1.066-.174 1.562-.37.993-1.22 1.776-2.217 2.136-.794.286-1.661.318-2.499.214s-1.653-.337-2.464-.57c-.81-.233-1.626-.466-2.464-.57-.837-.103-1.705-.07-2.498.217-1.096.397-1.995 1.284-2.451 2.357-.456 1.073-.475 2.316-.098 3.419.378 1.103 1.14 2.062 2.102 2.72.963.658 2.118 1.019 3.282 1.075 2.008.096 4.032-.729 5.44-2.163s2.192-3.448 2.182-5.459a7.45 7.45 0 00-.747-3.25 6.465 6.465 0 00-2.177-2.512 5.713 5.713 0 00-3.168-.976 5.12 5.12 0 00-3.125 1.067 4.744 4.744 0 00-1.577 2.254 4.537 4.537 0 00-.012 2.747 4.35 4.35 0 001.615 2.218 4.18 4.18 0 002.633.757c.944-.057 1.84-.442 2.654-.924s1.564-1.063 2.365-1.566c.8-.502 1.671-.93 2.608-1.06.468-.063.95-.05 1.408.064.46.114.895.332 1.245.65.442.4.735.953.86 1.536a3.683 3.683 0 01-.083 1.77c-.329 1.147-1.124 2.106-2.018 2.897-1.876 1.661-4.356 2.733-6.857 2.578-1.25-.078-2.487-.463-3.534-1.151-1.047-.688-1.899-1.684-2.37-2.845-.528-1.298-.567-2.777-.175-4.123.391-1.346 1.202-2.557 2.25-3.487 1.05-.93 2.33-1.583 3.682-1.956s2.771-.471 4.168-.36c.979.08 1.955.26 2.867.622.913.36 1.763.905 2.41 1.643.647.737 1.084 1.674 1.15 2.653.067.98-.254 1.994-.932 2.704a3.583 3.583 0 01-1.49.916 4.621 4.621 0 01-1.744.197c-1.175-.083-2.291-.547-3.324-1.113-.973-.532-1.893-1.159-2.874-1.676-.982-.517-2.044-.928-3.152-.982-1.594-.078-3.198.627-4.252 1.825-1.054 1.198-1.55 2.857-1.37 4.442.178 1.586 1.017 3.078 2.25 4.091s2.84 1.546 4.435 1.517c1.36-.025 2.69-.443 3.9-1.064 2.031-1.043 3.768-2.692 4.802-4.728s1.338-4.457.717-6.655c-.622-2.197-2.192-4.134-4.268-5.086a7.211 7.211 0 00-3.329-.655 6.792 6.792 0 00-3.24.995 6.173 6.173 0 00-2.275 2.463 5.468 5.468 0 00-.52 3.3c.183 1.117.753 2.173 1.612 2.91.858.738 2.003 1.144 3.133 1.076 1.36-.083 2.584-.81 3.774-1.475.595-.332 1.199-.655 1.841-.883.642-.229 1.328-.36 2.006-.301a3.93 3.93 0 012.08.845 4.546 4.546 0 011.347 1.804c.586 1.4.489 3.026-.059 4.44-.37.957-.944 1.842-1.708 2.526-.764.685-1.721 1.163-2.737 1.303-1.016.141-2.087-.067-2.946-.627-.86-.56-1.49-1.479-1.648-2.492-.137-.877.074-1.783.469-2.578.394-.795.964-1.49 1.571-2.137s1.257-1.255 1.843-1.92 1.115-1.4 1.434-2.227a5.1 5.1 0 00-.633-4.846 4.995 4.995 0 00-4.432-2.038 4.892 4.892 0 00-4.018 2.75 4.796 4.796 0 00.399 4.844c.873 1.234 2.277 1.977 3.678 2.549 1.4.572 2.87 1.028 4.12 1.88 1.647 1.124 2.824 2.945 3.078 4.923a6.497 6.497 0 01-.3 2.95 6.146 6.146 0 01-1.615 2.481 5.831 5.831 0 01-2.608 1.396 5.546 5.546 0 01-2.952-.111c-.95-.306-1.811-.882-2.446-1.65s-1.04-1.729-1.133-2.721c-.11-1.164.196-2.322.486-3.454.29-1.132.567-2.302.4-3.459a4.444 4.444 0 00-1.269-2.526 4.114 4.114 0 00-2.566-1.164c-.957-.065-1.939.238-2.678.85s-1.222 1.529-1.286 2.486a3.49 3.49 0 00.327 1.71c.25.53.637.995 1.11 1.342.947.692 2.24.875 3.349.493 1.102-.38 1.974-1.264 2.561-2.27s.923-2.136 1.235-3.259c.312-1.123.609-2.26 1.13-3.301.523-1.042 1.297-1.996 2.341-2.514 1.154-.572 2.565-.547 3.742-.023 1.176.525 2.116 1.52 2.665 2.686.55 1.166.72 2.49.59 3.773-.132 1.281-.558 2.522-1.148 3.667-1.331 2.583-3.591 4.744-6.356 5.635-1.383.446-2.874.57-4.304.312s-2.794-.899-3.874-1.87c-.66-.594-1.215-1.314-1.551-2.135-.336-.822-.444-1.747-.23-2.608s.761-1.649 1.534-2.085a2.817 2.817 0 011.266-.367c.443-.017.892.078 1.285.282.543.282.96.756 1.473 1.09.256.167.54.3.843.342.303.043.627-.012.875-.191.214-.155.36-.394.42-.652a1.43 1.43 0 00-.049-.78c-.17-.501-.565-.893-.993-1.203s-.9-.557-1.317-.883c-.208-.162-.402-.345-.56-.557s-.281-.452-.337-.71a1.776 1.776 0 01.1-1.03c.129-.324.342-.612.596-.851.51-.48 1.169-.762 1.821-1.012s1.324-.483 1.895-.887c.285-.202.543-.447.737-.738s.323-.628.345-.977a1.832 1.832 0 00-.216-.974 2.037 2.037 0 00-.679-.736c-.564-.37-1.29-.453-1.944-.288-.653.165-1.234.565-1.679 1.071-.445.506-.76 1.116-.988 1.75-.456 1.269-.57 2.634-.93 3.933-.181.65-.425 1.286-.79 1.853-.366.566-.858 1.061-1.459 1.367-.493.25-1.042.367-1.586.471-.543.104-1.094.2-1.604.415a3.703 3.703 0 00-2.07 2.287 3.7 3.7 0 00.422 3.056 3.698 3.698 0 002.614 1.638 3.695 3.695 0 002.933-.955c.469-.438.812-.991 1.133-1.546.32-.556.627-1.125 1.038-1.618.411-.492.943-.91 1.567-1.06.311-.074.642-.08.952.003.31.082.598.254.805.499.2.237.318.535.366.84.048.306.028.619-.028.923-.112.609-.366 1.182-.515 1.782a5.248 5.248 0 00.075 2.812 5.04 5.04 0 001.55 2.344 4.848 4.848 0 002.58 1.11 4.67 4.67 0 002.75-.55 4.506 4.506 0 001.904-2.052c.394-.864.496-1.86.277-2.784-.218-.924-.76-1.77-1.512-2.348s-1.713-.884-2.662-.836c-.972.049-1.892.452-2.745.922-.854.469-1.67 1.012-2.572 1.382-1.222.5-2.583.665-3.887.457s-2.55-.786-3.543-1.658a6.88 6.88 0 01-2.08-3.308 6.691 6.691 0 01.105-3.904 6.513 6.513 0 012.304-3.149 6.343 6.343 0 013.703-1.217 6.183 6.183 0 013.697 1.227 6.03 6.03 0 012.182 3.221c.205.763.257 1.563.493 2.317.118.377.283.743.524 1.056.241.313.56.572.933.704.331.118.697.132 1.04.049.341-.083.658-.26.914-.502.512-.482.763-1.207.734-1.91-.028-.703-.317-1.38-.745-1.939-.427-.558-.988-1.004-1.588-1.37-1.95-1.185-4.394-1.53-6.591-.918s-4.115 2.177-5.144 4.213-1.15 4.513-.311 6.635c.838 2.121 2.626 3.85 4.779 4.604a7.816 7.816 0 004.339.24 7.524 7.524 0 003.76-2.168 7.254 7.254 0 001.875-3.91 7 7 0 00-.758-4.265z" fill="none"/></svg>