<svg xmlns="http://www.w3.org/2000/svg" width="1920" height="1080" style="width:100%;height:100%"><defs><mask id="p"><path fill="#68230E" d="M31.5 115.162c.147.442 121.175 38.246 121.175 38.246l-88.343 92.724 65.876 26.844s85.486-89.384 97.854-99.985c12.368-10.601 25.031-25.326 20.908-40.197-4.123-14.871-166.157-72.349-166.157-72.349L31.5 115.162z" transform="translate(960 540)" display="block"/></mask><mask id="n"><path fill="#FFABAB" d="M-120.322-109.835l.761 11.287s-31.827 45.5-33.758 49.024c-1.931 3.524-3.173 8.288-1.552 12.656s1 8 7 17 9 15 9 15l9 20 2 8s4 6 22 4 42-13.5 42-13.5-2.612-112.631-13.306-116.066c-10.694-3.435-16.377-4.377-16.377-4.377l-.19-5.978-26.578 2.954z" transform="rotate(-.605 51488.335 -90560.56)" display="block"/></mask><mask id="m"><path fill="#FFABAB" d="M-120.322-109.835l.761 11.287s-31.827 45.5-33.758 49.024c-1.931 3.524-3.173 8.288-1.552 12.656s1 8 7 17 9 15 9 15l9 20 2 8s4 6 22 4 42-13.5 42-13.5-2.612-112.631-13.306-116.066c-10.694-3.435-16.377-4.377-16.377-4.377l-.19-5.978-26.578 2.954z" transform="rotate(9.601 -2833.727 6012.58)" display="block"/></mask><mask id="l"><path fill="#FFABAB" d="M-110.75-100.25c-4.877-4.877-21-2-28.5 4.25s-54 43.5-59.75 48.25-19.5 19.25-15.25 26.5 8 14 17.75 9 64.25-39.5 73-45 26-29.75 12.75-43z" transform="rotate(3.525 -8413.893 15760.075)" display="block"/></mask><mask id="k"><path fill="#FFABAB" d="M-110.75-100.25c-4.877-4.877-21-2-28.5 4.25s-54 43.5-59.75 48.25-19.5 19.25-15.25 26.5 8 14 17.75 9 64.25-39.5 73-45 26-29.75 12.75-43z" transform="rotate(3.525 -8413.893 15760.075)" display="block"/></mask><mask id="j"><path fill="#FFABAB" d="M-110.75-100.25c-4.877-4.877-21-2-28.5 4.25s-54 43.5-59.75 48.25-19.5 19.25-15.25 26.5 8 14 17.75 9 64.25-39.5 73-45 26-29.75 12.75-43z" transform="rotate(3.525 -8413.893 15760.075)" display="block"/></mask><mask id="h"><path fill="#072560" d="M-102.871 104.132l-47 49-76 154-83-31 81-157 131-29-6 14z" transform="translate(960 540)" display="block"/></mask><mask id="g"><path fill="#072560" d="M-102.871 104.132l-47 49-76 154-83-31 81-157 131-29-6 14z" transform="translate(960 540)" display="block"/></mask><mask id="d"><path fill="#F5F5F5" d="M52.198 359.984l94.617-31.361h104.542s-22.559 26.214-59.222 31.361H52.198z" transform="translate(960 564.876)" display="block"/></mask><mask id="c"><path fill="#C4C4C4" d="M-159.714 314.135s-14.407 35.314-57.118 48.056l93.199 23.853s37.505-3.227 59.681-47.11l-95.762-24.799z" transform="translate(960 558.408)" display="block"/></mask><clipPath id="a"><path d="M0 0h1920v1080H0z"/></clipPath><clipPath id="b"><path d="M0 0h1920v1080H0z"/></clipPath><clipPath id="o"><path d="M0 0h1920v1080H0z"/></clipPath><clipPath id="q"><path d="M0 0h1920v1080H0z"/></clipPath><clipPath id="r"><path d="M0 0h1920v1080H0z"/></clipPath><clipPath id="f"><path d="M0 0h1920v1080H0z"/></clipPath><clipPath id="i"><path d="M0 0h1920v1080H0z"/></clipPath><clipPath id="e"><path d="M0 0h1920v1080H0z"/></clipPath></defs><g clip-path="url(#a)"><g clip-path="url(#b)" transform="matrix(1.32 0 0 1.32 -281.2 -188.8)" display="block"><path fill="#F5F5F5" d="M649.774 732.573c0 30.494-24.721 55.215-55.215 55.215-30.494 0-55.215-24.721-55.215-55.215 0-30.494 24.721-55.214 55.215-55.214 30.494 0 55.215 24.72 55.215 55.214zM996.165 661.799c0 34.61-28.058 62.668-62.668 62.668s-62.667-28.058-62.667-62.668 28.057-62.667 62.667-62.667 62.668 28.057 62.668 62.667zM925.794 754.037c0 12.658-10.262 22.92-22.92 22.92-12.658 0-22.919-10.262-22.919-22.92 0-12.658 10.261-22.92 22.919-22.92 12.658 0 22.92 10.262 22.92 22.92zM1074.049 282.283c0 12.658-10.262 22.919-22.92 22.919-12.658 0-22.92-10.261-22.92-22.919 0-12.658 10.262-22.92 22.92-22.92 12.658 0 22.92 10.262 22.92 22.92zM739.049 347.24c0 12.658-10.262 22.92-22.92 22.92-12.658 0-22.92-10.262-22.92-22.92 0-12.658 10.262-22.919 22.92-22.919 12.658 0 22.92 10.261 22.92 22.919zM1361.165 638.88c0 12.658-10.261 22.919-22.919 22.919-12.658 0-22.92-10.261-22.92-22.919 0-12.658 10.262-22.92 22.92-22.92 12.658 0 22.919 10.262 22.919 22.92z" display="block"/><path fill="#E0E0E0" d="M959.451 308.53a8.719 8.719 0 11-17.437-.001 8.719 8.719 0 0117.437.001zM590.657 859.015s-42.12 35.307-103.077 40.233h144.884S658 881.438 657.6 859.015h-66.943z" display="block"/><path fill="#C4C4C4" d="M800.286 872.543s-14.407 35.314-57.118 48.056l93.199 23.853s37.505-3.227 59.681-47.11l-95.762-24.799z" display="block"/><path fill="#F5F5F5" d="M406.074 814.733l55.656 26.503s16.833 6.184 29.619-5.301c12.786-11.485 24.271-31.804 46.578-31.362l-38.759-13.987s-15.794-4.35-29.487 9.015c-13.693 13.365-34.895 26.617-63.607 15.132zM1482.737 832.881l-55.657 26.503s-16.833 6.185-29.619-5.3c-12.786-11.485-24.27-31.804-46.577-31.362l38.76-13.988s15.792-4.35 29.485 9.015 34.896 26.617 63.608 15.132zM1012.198 924.86l94.617-31.361h104.542s-22.559 26.214-59.222 31.361h-139.937z" display="block"/><path fill="#C4C4C4" d="M1131.816 864.206h87.933s21.797-32.595 62.564-40.546h-95.855s-32.114 5.558-54.642 40.546z" display="block"/><path fill="#E0E0E0" d="M662.311 589.832c2.65 1.09 7.068 1.089 15.313-3.534 7.516-4.214 5.979-7.186 5.153-8.54-1.62-2.654-9.571-5.153-15.902 0-6.331 5.153-7.551 10.846-4.564 12.074z" display="block"/><path stroke-miterlimit="10" stroke="#E0E0E0" stroke-width=".8" d="M415.204 374.782h236.787a3 3 0 012.923 2.325l31.928 138.295a3 3 0 01-2.923 3.675H447.132a3.001 3.001 0 01-2.924-2.326l-31.927-138.294a3 3 0 012.923-3.675z" fill="none" display="block"/><path stroke-miterlimit="10" stroke="#E0E0E0" stroke-width=".8" d="M624.596 394.291H449.049a2.778 2.778 0 01-2.779-2.778s0 0 0 0a2.779 2.779 0 012.779-2.779h175.547a2.779 2.779 0 012.779 2.779s0 0 0 0a2.778 2.778 0 01-2.779 2.778zM639.41 391.513a2.778 2.778 0 11-5.558 0 2.778 2.778 0 015.558 0z" fill="none" display="block"/><g clip-path="url(#e)" display="block"><path stroke-miterlimit="10" stroke="#E0E0E0" stroke-width=".8" d="M1538.197 401.144h-245.154V248.8a3 3 0 013-3h239.154a3 3 0 013 3v152.344z" fill="none" display="block"/><path fill="#616161" d="M1538.197 257.586h-245.154V243.8a3 3 0 013-3h239.154a3 3 0 013 3v13.786z" display="block"/><path fill="#3369E8" d="M1347.884 390.218h-38.614a3 3 0 01-3-3V370.99a3 3 0 013-3h38.614a3 3 0 013 3v16.228a3 3 0 01-3 3z" display="block"/><path fill="#E0E0E0" d="M1376.063 390.218h-16.227a3 3 0 01-3-3V370.99a3 3 0 013-3h16.227a3 3 0 013 3v16.228a3 3 0 01-3 3z" display="block"/><path stroke-miterlimit="10" stroke="#E0E0E0" d="M1403.501 390.218h-16.228a3 3 0 01-3-3V370.99a3 3 0 013-3h16.228a3 3 0 013 3v16.228a3 3 0 01-3 3z" fill="none" display="block"/><path stroke-miterlimit="10" stroke="#E0E0E0" stroke-width=".8" d="M1302.025 283.199h222.478M1302.025 303.813h222.478" fill="none" display="block"/></g><g display="block"><path fill="#616161" d="M1200.624 425.226l-3.259 14.119h84v-18.324l-80.741 4.205z"/><path fill="#C4C4C4" d="M1188.24 431.401l2.087-8.466 91.038-46.528v54.994h-93.125zM1281.247 371.99h-79.214v-10.673h79.214v10.673z"/><path fill="#F5F5F5" d="M1177.53 422.935s24.503-13.841 24.503-50.945h79.214s2.503 37.399-15.607 50.945h-88.11z"/><path fill="#FFF" d="M1212.192 381.045h59.289s-1.424 20.54-9.596 30.479h-61.398s10.159-8.614 11.705-30.479z"/><path stroke-miterlimit="10" stroke="#E0E0E0" d="M1230.769 381.057s-.883 20.981-10.601 30.478M1251.993 381.057s-.883 20.981-10.601 30.478M1207.205 401.144h60.153M1210.886 390.542h59.664" fill="none"/></g><g display="block"><path fill="#DB4437" d="M1176.903 390.542a2.888 2.888 0 11-5.775-.001 2.888 2.888 0 015.775.001z"/><path stroke-miterlimit="10" stroke="#DB4437" d="M1175.659 390.542h94.497" fill="none"/></g><g clip-path="url(#f)" display="block"><path d="M885.197 765.491l27.865 32.028c.546.627.512 1.57-.08 2.156l-6.989 6.92-8.98-4.045s.936 13.005-.074 15c-1.01 1.995-34.17 33.83-40.189 37.8-6.02 3.97-12.01 1.941-6.965-7.034s20.169-33.9 20.214-42.9c.044-9-5.519-17.652-5.519-17.652l20.717-22.273zM709.909 831.615s1.023 29.323 1.014 31.323c-.012 2.754-10.604 5.704-11.521 6.103l-3.99-9.17s-2.03 12.88-4.501 17.227c-2.471 4.347-10.962 12.403-21.048 16.792-10.087 4.389-18.34 7.98-25.157 9.856-6.818 1.875-9.212-3.626-1.638-11.284 7.574-7.658 26.907-25.885 30.652-37.33 3.745-11.444 8.336-37.653 8.336-37.653l27.853 14.136z" display="block"/><path fill="#072560" d="M857.129 644.132l-47 49-76 154-83-31 81-157 131-29-6 14z" display="block"/><path stroke-linecap="round" stroke-miterlimit="10" stroke="#000" d="M700.449 834.552l65.683-122.715" fill="none" display="block"/><g mask="url(#g)" display="block"><path d="M795.26 811.133l-79.131-120.566 125.044 71.335-45.913 49.231z"/></g><g mask="url(#h)" display="block"><path d="M721.312 659.574l147.753 25.378 29.587-49.45-177.34 24.072z"/></g><path fill="#0D3575" d="M830.129 565.132l-29 30s-86 23-94 28-17 12-18 24 1 19 17 34 136 129 136 129l56-48-100-91s89-25 100-29 25-18 24-34-5-20-9-28-19-30-19-30-56 9-59 11-2 1-5 4z" display="block"/><path stroke-linecap="round" stroke-miterlimit="10" stroke="#000" d="M873.543 783.206S753.46 663.732 748.577 658.251c-4.883-5.481-5.448-11.371 5.877-14.905 11.325-3.534 113.494-29.153 123.072-31.803 9.578-2.65 11.051-13.252 8.695-18.847 0 0-12.733 3.869-15.391-5.448-1.462-5.124-1.1-12.489-1.1-12.489" fill="none" display="block"/><path stroke-miterlimit="10" stroke="#000" d="M840.207 568.843l-7.581 18.405-31.497 7.884" fill="none" display="block"/><g clip-path="url(#i)" display="block"><path stroke-miterlimit="10" stroke="#3369E8" d="M473.986 434.831s35.892 33.153 77.413 21.227c41.521-11.926 60.351-9.308 80.218 8.377 5.545 4.936 10.406 5.526 15.566 3.225 7.102-3.167 10.317-11.16 21.068-21.387 6.614-6.291 12.112-8.096 17.458-8.07" fill="none" display="block"/><g display="block"><path fill="#E0E0E0" d="M689.418 598.696h88.088a2 2 0 00.974-.253l23.328-13.021c1.8-1.005 1.087-3.746-.975-3.746h-88.087c-.341 0-.677.087-.975.253l-23.327 13.021c-1.8 1.005-1.088 3.746.974 3.746z"/><path fill="#FFF" d="M776.365 593.248h-10.718l5.859-3.062h10.601l-5.742 3.062zM762.524 593.248h-10.718l5.859-3.062h10.601l-5.742 3.062zM748.684 593.248h-10.718l5.859-3.062h10.601l-5.742 3.062zM734.843 593.248h-10.718l5.859-3.062h10.601l-5.742 3.062zM721.003 593.248h-10.718l5.859-3.062h10.601l-5.742 3.062zM707.162 593.248h-10.718l5.859-3.062h10.601l-5.742 3.062zM784.757 588.125h-10.718l5.859-3.063H790.5l-5.743 3.063zM770.917 588.125h-10.718l5.859-3.063h10.601l-5.742 3.063zM757.076 588.125h-15.768l4.859-3.063h16.652l-5.743 3.063z"/><path fill="#FFF" d="M743.236 588.125h-10.718l5.859-3.063h10.601l-5.742 3.063zM729.395 588.125h-10.718l5.859-3.063h10.602l-5.743 3.063zM715.555 588.125h-10.718l5.859-3.063h10.601l-5.742 3.063z"/></g><path fill="#FFDBC2" d="M801.993 536.043s-4.493 1.18-11.88 3.036c-7.386 1.856-11.387 4.356-11.387 4.356s-6.771 3.875-12.117 9.096c-2.213 2.16-.008 6.102-.008 6.102l5.488 2.724 6.87 2.774 11.32.63s5.56-4.511 7.022-7.315a27.605 27.605 0 013.318-4.913l6.575-2.03-5.201-14.46z" display="block"/><g display="block"><path stroke-linecap="round" stroke-linejoin="round" stroke="#FFDBC2" stroke-width="5" d="M774.512 556.13l-5.125 4.334s.796 4.92.837 5.927c.044 1.1 2.418.717 2.418.717M779.967 557.896l-5.32 6.208s.762 3.43 1.91 4.82c.866 1.046 5.027-1.32 5.027-1.32" fill="none"/><path stroke-linecap="round" stroke-linejoin="round" stroke="#FFDBC2" stroke-width="5" d="M784.68 559.742s-2.65 4.551-4.055 6.023c-1.405 1.472 1.362 3.634 2.695 4.053 1.42.447 3.24-1.667 3.24-1.667" fill="none"/><path stroke-linecap="round" stroke-linejoin="round" stroke="#FFDBC2" stroke-width="5" d="M789.289 560.586l-3.086 6.474 3.229.898s2.574-2.597 3.584-3.076M780.483 544.779l-9.575 7.568s-1.968 2.38-2.689 3.92c-.729 1.556 1.893 3.56 1.893 3.56" fill="none"/></g><path fill="#A46347" d="M770.413 555.69l2.209-2.595s-2.645 1.913-4.255 2.886c-1.61.973-2.445 3.603-2.445 3.603s.693 1.068 1.56.104c1.645-2.535 3.36-3.795 3.36-3.795l-.43-.203z" display="block"/><path fill="#FFDBC2" d="M717.42 457.324s.076-5.782.35-7.4c.275-1.619 3.696-7.043 3.626-12.336-.07-5.294-.579-15.454-2.858-19.517-2.28-4.062-3.215-6.233-4.965-5.822-1.75.412-3.67 3.386-3.67 3.386s-1.699-1.713-2.782-1.813c-1.083-.1-2.769 3.132-2.769 3.132s-1.156-.648-3.076-.838c-1.919-.19-3.48 1.467-5.004 4.41-1.524 2.944-3.765 8.523-3.018 9.449.747.925-.22 6.714.589 8.433.809 1.72 4.054-.006 4.054-.006l1.669 1.315s-.907 1.391-.45 5.318c.456 3.927 5.87 16.648 5.87 16.648l12.434-4.36z" display="block"/><path fill="#C4C4C4" d="M686.7 437.57l1.401-2.498 45.715-19.75 1.42 3.122-45.825 19.522-2.71-.397z" display="block"/><path fill="#FFDBC2" d="M712.597 429.72s-11.278-3.368-13.289-1.287c-2.01 2.08 6.576 4.53 6.576 4.53l6.713-3.242zM694.569 432.278s2.245.703 4.367-1.886l-2.746-1.007-1.621 2.893z" display="block"/><path fill="#A46347" d="M709.89 428.996l4.685 1.412-.142-3.962-4.543 2.55zM697.897 438.402s1.589-.501 2.158-1.364c0 0 2.207-.113 2.513-1.967l1.45-2.316 5.875 3.294s-2.64 3.504-3.873 6.907l-6.454-3.239-1.67-1.315zM704.352 416.954l-3.294 5.876 1.753-6.439 1.541.563zM699.425 430.18s-.885-.152-.117-1.747l-4.74 3.845s2.093.947 4.857-2.098z" display="block"/><path fill="#FFDBC2" d="M837.153 418.305l1.585 17.059 26.116-3.868-.687-22.014-27.014 8.823z" display="block"/><path fill="#A46347" d="M837.663 423.726l9.685-3.307-9.21 8.478-.475-5.17z" display="block"/><path fill="#FFABAB" d="M848.726 440.284c-4.567-5.167-20.837-3.287-28.707 2.49-7.87 5.777-56.572 40.097-62.604 44.485-6.03 4.387-20.646 18.014-16.85 25.512 3.796 7.498 7.124 14.465 17.163 10.074 10.039-4.39 66.557-35.474 75.629-40.426 9.071-4.952 27.78-28.095 15.37-42.135z" display="block"/><g mask="url(#j)" display="block"><path stroke="#DC4538" d="M750.994 487.342l10.099 10.125" fill="none"/></g><path fill="#FFABAB" d="M716.503 452.534l-13.872 10.402s27.875 46.407 32.266 53.842c4.39 7.435 13.112 11.7 22.095 5.815 8.982-5.884 9.143-15.007 2.938-24.447s-43.427-45.612-43.427-45.612z" display="block"/><g mask="url(#k)" display="block"><path fill="#DB4437" d="M784.665 516.644l26.642-33.743s-6.592 10.23-7.543 16.866c-.143.995.695 3.963.695 3.963l-19.794 12.914z"/></g><g mask="url(#l)" display="block"><path stroke-linecap="round" stroke-miterlimit="10" stroke="#DB4437" d="M805.393 491.094c10.45-15.807 23.155-35.258 23.155-35.258" fill="none"/></g><path fill="#FFABAB" d="M838.235 430.402l.88 11.278s-31.345 45.834-33.238 49.378c-1.894 3.544-3.085 8.321-1.418 12.672 1.667 4.35 1.084 7.989 7.179 16.925 6.095 8.936 9.158 14.904 9.158 14.904l9.21 19.904 2.085 7.978s4.063 5.957 22.041 3.767 41.855-13.943 41.855-13.943-3.802-112.597-14.531-115.919c-10.73-3.321-16.423-4.203-16.423-4.203l-.253-5.976-26.545 3.235z" display="block"/><g display="block"><path stroke="#DC4538" stroke-width="1.6" d="M845.073 431.914l.363 4.809M855.065 431.12l.366 5.122" fill="none"/></g><g mask="url(#m)" display="block"><path fill="#DB4437" d="M857.906 545.625l35.61-8.172-4.576-31.603-31.034 39.775z"/></g><g mask="url(#n)" display="block"><path fill="#DB4437" d="M816.942 552.597l72.873 2.497-73.483 7.083.61-9.58z"/></g><path fill="#FFABAB" d="M875.149 439.413c-9.285 2.889-9.445 16.138-6.806 25.42 2.638 9.283 16.265 61.2 18.424 68.727 2.16 7.527 5.97 23.324 19.758 20.24 13.788-3.085 15.438-15.566 13.788-23.837-1.65-8.27-15.196-66.937-21.063-78.009-5.867-11.071-14.816-15.429-24.101-12.54z" display="block"/><path fill="#FFABAB" d="M884.207 526.208c-10.501.992-84.008 10.938-84.008 10.938l2.612 17.127s92.875-.307 100.875-.301c8 .006 12.76-12.99 6.766-21.245-4.994-6.878-15.745-7.512-26.245-6.52z" display="block"/><path stroke-linecap="round" stroke-miterlimit="10" stroke="#DB4437" d="M884.08 525.97l-10.103-41.49" fill="none" display="block"/><path fill="#FFC105" d="M860.607 359.808s-8.623 52.083-4.729 68.762c3.303 15.816 28.371 19.284 44.666 17.66 17.353-2.245 19.273-24.816 2.07-39.694-10.76-8.268 16.924-27.87 22.71-41.746 6.02-14.44-7.555-35.424-28.91-33.195-22.24 2.32-35.807 28.213-35.807 28.213z" display="block"/><path fill="#FFDBC2" d="M865.09 421.983l12.7-32.038-27.855-16.527-27.482 14.856s-2.228 16.342.186 23.77c2.414 7.427 14.113 7.798 14.113 7.798l28.337 2.14z" display="block"/><path stroke-linecap="round" stroke-miterlimit="10" stroke="#A46347" d="M861.496 401.169l6.547-4.518" fill="none" display="block"/><path fill="#F9CA62" d="M849.564 390.502s-17.084 5.014-27.111-2.228l-1.164 16.108s-30.237 7.752-29.845-24.999c.287-26.224 37.322-33.819 49.207-20.449 0 0 17.631-8.053 30.921 3.126 11.657 9.804 10.489 19.9 4.918 33.827-5.57 13.928-10.885 24.937-10.885 24.937-2.87-1.326-7.684-5.438-6.199-9.152 1.486-3.714 1.3-5.943 1.3-5.943s3.887 3.03 9.022-4.627c4.386-6.542-1.515-11.808-7.627-9.812-4.752 1.553-3.86 11.857-8.266 12.768-3.126.646-5.57-2.228-5.013-6.313.557-4.086.742-7.243.742-7.243z" display="block"/><path fill="#FFC105" d="M822.453 388.274s-6.824-3.707-11.964-7.507l11.063 18.847.9-11.34zM840.65 358.934l4.317 5.017.33-6.583s-2.51 1.033-4.646 1.566z" display="block"/><path fill="#0D3575" d="M861.835 357.033s.742-2.63 2.83-4.075c2.086-1.445 8.536 1.294 13.619 6.241 5.808 5.654 8.542 13.884 5.577 14.76-3.753 1.108-3.657 1.389-3.657 1.389s-2.078-7.077-8.76-12.176c-6.682-5.1-9.61-6.14-9.61-6.14z" display="block"/><path d="M877.398 369.645l6.124-3.237s2.294 4.576 1.276 6.76-1.961.931-4.593 2.18c0 0-1.72-4.147-2.807-5.703z" display="block"/><path fill="#FFF" d="M861.046 406.3l-2.861 13.052a1.758 1.758 0 001.817 2.131l7.277-.415a1.757 1.757 0 001.575-2.29l-4.047-12.654a1.95 1.95 0 00-1.915-1.356 1.951 1.951 0 00-1.846 1.532z" display="block"/></g></g><path fill="#E0E0E0" d="M386.117 413.064h236.786a3 3 0 012.924 2.325l31.927 138.295a3 3 0 01-2.923 3.675H418.044a3 3 0 01-2.923-2.325l-31.928-138.295a3 3 0 012.924-3.675z" display="block"/><path fill="#E0E0E0" d="M620.057 584.745h-54.92l-21.959-95.116h-51.829l21.96 95.116c.68 2.945 2.718 7.951 8.019 7.951h100.565c2.196 0 3.565-1.779 3.058-3.975-.507-2.196-2.698-3.976-4.894-3.976z" display="block"/><path fill="#AAA" d="M491.349 489.629v67.73h15.637l-15.637-67.73z" display="block"/><path fill="#E0E0E0" d="M752.503 693.555H549.755a8.614 8.614 0 010-17.227h202.748a8.614 8.614 0 110 17.227z" display="block"/><path stroke-miterlimit="10" stroke="#3369E8" stroke-width="1.5" d="M521.106 687.297c0 6.058-4.911 10.97-10.969 10.97s-10.969-4.912-10.969-10.97c0-6.058 4.911-10.969 10.969-10.969s10.969 4.911 10.969 10.969z" fill="none" display="block"/><path fill="#E0E0E0" d="M665.583 645.032H462.835a8.614 8.614 0 010-17.227h202.748a8.614 8.614 0 110 17.227z" display="block"/><g display="block"><path stroke="#3369E8" stroke-width="1.17" d="M433.107 633.989c0 7.611-6.17 13.782-13.782 13.782-7.611 0-13.781-6.17-13.781-13.782 0-7.611 6.17-13.781 13.781-13.781 7.611 0 13.782 6.17 13.782 13.781z" fill="none"/></g><path fill="#009925" d="M436.994 633.989c0 9.758-7.911 17.669-17.669 17.669-9.758 0-17.668-7.911-17.668-17.669 0-9.758 7.91-17.668 17.668-17.668s17.669 7.91 17.669 17.668z" display="block"/><path stroke-miterlimit="10" stroke="#FFF" d="M412.203 636.535l4.858 5.522 11.043-14.135" fill="none" display="block"/><path stroke-miterlimit="10" stroke="#E0E0E0" d="M401.657 664.468h272.54M502.81 710.837h272.54" fill="none" display="block"/><g clip-path="url(#o)" display="block"><path fill="#E0E0E0" d="M1039.203 790.586l-16.391 22.15 25.553 11.601 17.93-24.622-27.092-9.129z" display="block"/><path fill="#616161" d="M1032.597 791.14l-19.288 7.17a2.255 2.255 0 00-1.105 3.344l46.744 71.866s7.096-1.979 6.743-5.557c-.353-3.578-4.708-23.394-6.821-33.254-2.113-9.86-1.194-13.529-4.787-15.992-3.592-2.464-7.853-6.46-11.382-11.984-3.528-5.524-3.91-15.548-10.104-15.593z" display="block"/><path stroke-miterlimit="10" stroke="#68230E" d="M1049.579 831.191l8.723.649M1052.405 842.604l8.2.152" fill="none" display="block"/><path fill="#68230E" d="M991.5 655.162c.147.442 121.175 38.246 121.175 38.246l-88.343 92.724 65.876 26.844s85.486-89.384 97.854-99.985c12.368-10.601 25.03-25.326 20.908-40.197-4.123-14.871-166.157-72.349-166.157-72.349L991.5 655.162z" display="block"/><path stroke-miterlimit="10" stroke="#000" d="M1043.427 766.09l66.298 26.546M1084.853 782.419l91.346-109.45" fill="none" display="block"/><g mask="url(#p)" display="block"><path d="M957.583 660.396l58.716 31.169 115.517-19.738 46.821 106.97 50.68-30.569-87.163-100.234-184.571 12.402z"/></g><path fill="#E0E0E0" d="M1229.141 755.984l13.795 34.26 25.942-10.451-13.675-34.262-26.062 10.453z" display="block"/><path fill="#616161" d="M1244.064 796.978s80.442-35.174 84.96-37.962c2.406-1.485-1.29-8.742-6.094-8.6-7.365.216-63.226 6.803-63.226 6.803s-3.88 8.508-10.338 12.709c-6.459 4.2-15.007 4.65-15.007 4.65s-2.799 1.38.29 7.233c3.087 5.853 5.797 15.905 9.415 15.167z" display="block"/><path stroke-miterlimit="10" stroke="#68230E" d="M1275.017 766.203l.475-10.728M1287.002 764.74l-1.268-10.388" fill="none" display="block"/><path fill="#A46347" d="M1052.454 589.31s100.417 8.392 116.172 10.012c15.755 1.62 20.466 2.209 28.417 12.81 7.951 10.601 81.129 130.895 81.129 130.895l-68.408 24.585-72.647-105.861s-109.104 5.154-122.061 5.301c-12.957.147-33.276-2.503-50.945-20.319-12.832-12.939-24.732-45.355-24.732-45.355s95.942-38.436 97.097-35.824c1.98 4.478 15.978 23.756 15.978 23.756z" display="block"/><path stroke-miterlimit="10" stroke="#68230E" d="M1197.365 747.531l68.838-23.064M1024.203 607.475s6.938 17.203-5.43 20.528c0 0 1.693 8.368 28.454 6.067s91.251-1.417 99.644-1.859c8.393-.442 14.566.626 22.964 12.902 8.398 12.276 59.306 91.771 59.306 91.771" fill="none" display="block"/><path fill="#EAAD94" d="M1031.748 423.227l-15.81 24.537-29.686-21.743 16.303-23.455 29.193 20.661z" display="block"/><path fill="#A46347" d="M1021.683 438.847l-4.385-14.402 9.167 7.047-4.782 7.355z" display="block"/><path fill="#EAAD94" d="M1000.618 405.353l-2.5-31.086 31.264-6.324 24.308 7.23s1.784 14.82-.162 27.63c-1.947 12.81-27.08 28.523-27.08 28.523l-25.83-25.973z" display="block"/><path stroke-linecap="round" stroke-miterlimit="10" stroke="#A46347" d="M1009.413 385.574l3.256 7.077" fill="none" display="block"/><path fill="#0D3575" d="M1014.402 446.672l40.409 54.597-33.118-.861-7.291-53.736z" display="block"/><path fill="#EAAD94" d="M1055.947 515.212l10.034 15.284 79.952 6.647s16.483-5.168 21.51-5.92c5.028-.753 16.363 5.139 16.363 5.139s-.499 13.537-4.055 14.328c-3.555.79-12.877 8.06-17.458 8.678-4.582.617-14.313-4.656-14.313-4.656s-83.412 7.415-90.485 7.525c-7.072.11-11.593-1.627-16.58-8.09-4.986-6.463-13.044-36.426-13.044-36.426l28.076-2.51z" display="block"/><path fill="#A46347" d="M1050.525 561.45l1.905-36.608-10.655 1.93s2.799 30.9 3.066 31.955c.266 1.055 5.684 2.722 5.684 2.722zM1065.981 530.496l-3.124 1.171-2.107-9.555 5.231 8.384zM1164.397 537.918s6.76 1.612 8.166 1.538c1.407-.073 5.285-.522 5.285-.522l-6.297-2.67-7.154 1.654zM1171.47 546.35s-2.372 2.83-3.12 5.259c-1.328 4.31-.413 5.48-.413 5.48s-5.536 3.755-9.06 1.995c-.753-.376 1.921-10.213 4.701-10.914 5.222-1.316 7.891-1.82 7.891-1.82z" display="block"/><path fill="#68230E" d="M1053.512 402.166s.39 11.831-1.393 20.861c-1.783 9.03-20.47 12.653-29.422 7.481-8.837-5.106-7.697-12.91-6.834-25.838.863-12.928 5.353-22.703-3.082-24.574-8.434-1.871-13.61 8.973-5.34 18.11l-.677 10.136c-.216 3.232-4.664 10.166-11.255 7.217-6.591-2.948-4.21-12.086-4.062-18.717.148-6.63-5.073-12.438-4.494-21.106.578-8.668 2.705-16.2 11.432-18.716 8.727-2.517 15.004-1.507 20.068-4.415 5.064-2.908 9.895-7.949 15.732-4.755s3.15 9.261 3.15 9.261 12.65-3.509 20.613-1.206c7.962 2.302 10.391 5.711 10.568 9.707.176 3.996-5.212 7.325-5.212 7.325s3.791.696 3.83 4.535c.038 3.84-11.904 7.798-15.274 5.233 0 0-4.772 7.374-18.552 1.584 0 0-2.498 6.474-8.198 7.865l-1.07 16.013c-.235 3.526 2.683 6.23 7.433 5.81 4.568-.405 3.263-6.867 9.532-10.137 6.268-3.271 12.507-1.674 12.507-1.674z" display="block"/><path fill="#3369E8" d="M1019.146 442.463l22.603 69.593 12.76 79.18-114.875 21.272a2.995 2.995 0 01-3.42-2.336c-2.25-10.612-9.392-49.834-1.849-89.937 12.078-64.207 44.106-90.279 49.757-94.44a1.698 1.698 0 011.777-.144l33.247 16.812z" display="block"/><path fill="#0D3575" d="M991.347 529.213s6.77 3.244 23.739-6.11c16.968-9.354-12.73-28.767-12.73-28.767s-17.53 23.493-11.01 34.877z" display="block"/><path fill="#EAAD94" d="M1078.289 449.778c-.492-5.61-3.656-17.479-4.461-23.825-.805-6.346.334-6.711 1.657-11.574.921-3.413 2.43-6.883 4.646-9.277 2.215-2.395 7.876-.758 8.566-.418 1.231.713 2.75 2.053 1.903 3.442-1.079 1.71-6.611.577-6.611.577l-.15 2.198s12.139-4.223 12.946-4.569c.808-.346 4.05 2.323 4.05 2.323s3.279-.89 4.074 1.403c.796 2.294.15 7.864.15 7.864s2.3 5.59.857 8.865c-1.443 3.275-2.427 3.37-2.427 3.37s1.426 6.216-2.043 17.381c-3.468 11.165-21.527 20.825-23.157 2.24zM985.165 457.578c-12.334 5.889-15.137 22.975-8.257 30.403 6.88 7.427 36.584 36.661 42.262 41.719 5.678 5.057 10.135 11.868 18.32 12.146 8.184.278 15.625-9.694 16.867-16.601 1.243-6.907-3.386-16.083-6.826-19.797-3.44-3.713-28.651-34.383-32.813-39.313-4.163-4.93-17.218-14.445-29.553-8.557z" display="block"/><path fill="#EAAD94" d="M1097.055 432.93c-5.206-3.485-10.61.748-15.733 8.22-6.706 9.779-44.185 55.8-48.76 62.701-4.573 6.903-8.51 19.774-4.226 26.465 4.6 7.187 13.512 15.016 22.129 5.646 19.966-21.712 45.736-75.508 49.067-83.171 3.33-7.663 2.728-16.374-2.477-19.86z" display="block"/><path fill="#3369E8" d="M1033.732 489.258s-13.6-1.487-28.23 12.412c-14.63 13.9-14.155 27.543-14.155 27.543s-25.214-40.607-27.413-52.258c-2.199-11.65 3.37-27.554 15.427-32.537 13.097-5.412 23.505 6.746 29.969 14.773 6.464 8.027 24.402 30.067 24.402 30.067z" display="block"/><path stroke-linecap="round" stroke-miterlimit="10" stroke="#0D3575" d="M1029.614 483.427l-29.576-37.27" fill="none" display="block"/><path fill="#DB4437" d="M1211.543 528.983c-.1 3.82-7.66 6.723-16.887 6.483-9.226-.24-16.625-3.532-16.526-7.353.1-3.82 7.66-6.724 16.887-6.484 9.226.24 16.625 3.533 16.526 7.354z" display="block"/><path fill="#0D3575" d="M1208.81 533.25c-.077 2.987-6.447 5.245-14.227 5.043-7.78-.203-14.025-2.79-13.948-5.776.078-2.987 6.45-5.245 14.23-5.043 7.78.203 14.024 2.79 13.946 5.776z" display="block"/><path fill="#FFABAB" d="M1178.13 528.112l-.706 27.143c-.1 3.82 7.3 7.112 16.526 7.352 9.227.24 16.786-2.662 16.885-6.482l.707-27.143s-1.147 6.98-17.39 6.487c-16.243-.492-16.022-7.357-16.022-7.357z" display="block"/><path stroke-miterlimit="10" stroke="#FFF" d="M1211.543 528.983c-.1 3.82-7.66 6.723-16.887 6.483-9.226-.24-16.625-3.532-16.526-7.353.1-3.82 7.66-6.724 16.887-6.484 9.226.24 16.625 3.533 16.526 7.354z" fill="none" display="block"/><path stroke-miterlimit="10" stroke="#DB4437" d="M1177.95 535.03s-5.992-1.776-8.202 3.91" fill="none" display="block"/></g><g clip-path="url(#q)" transform="translate(0 3.975)" display="block"><path fill="#E0E0E0" d="M1191.205 232.5c28.009 0 50.75 16.916 50.75 37.75s-22.741 37.75-50.75 37.75-50.75-16.916-50.75-37.75 22.741-37.75 50.75-37.75z" display="block"/><path fill="#E0E0E0" d="M1165.5 294.562v19.125c0 1.125.875 1.5 2 .125s12-13.875 12-13.875l-14-5.375z" display="block"/></g><g clip-path="url(#r)" transform="matrix(-.82 0 0 .82 2275.3 96.773)" display="block"><path fill="#E0E0E0" d="M1191.205 232.5c28.009 0 50.75 16.916 50.75 37.75s-22.741 37.75-50.75 37.75-50.75-16.916-50.75-37.75 22.741-37.75 50.75-37.75z" display="block"/><path fill="#E0E0E0" d="M1165.5 294.562v19.125c0 1.125.875 1.5 2 .125s12-13.875 12-13.875l-14-5.375z" display="block"/></g><path fill="#3369E8" d="M1289.188 318.698a1.938 1.938 0 010 3.875 1.938 1.938 0 010-3.875z" opacity=".798" display="block"/><path fill="#3369E8" d="M1297.688 318.698a1.938 1.938 0 010 3.875 1.938 1.938 0 010-3.875z" opacity=".827" display="block"/><path fill="#3369E8" d="M1306.437 318.698a1.938 1.938 0 010 3.875 1.938 1.938 0 010-3.875z" opacity=".798" display="block"/><path fill="#FFC105" d="M1221.949 274.425l-13.755 13.755-13.755-13.755 13.755-13.754 13.755 13.754z" display="block"/><path fill="#FFF" d="M1182.565 274.425c0 6.261-5.076 11.338-11.337 11.338s-11.338-5.077-11.338-11.338c0-6.261 5.077-11.337 11.338-11.337 6.261 0 11.337 5.076 11.337 11.337z" display="block"/><path fill="#E0E0E0" d="M1505.143 413.064h-236.787a3 3 0 00-2.923 2.325l-31.928 138.295a3 3 0 002.923 3.675h236.787a3 3 0 002.923-2.325l31.928-138.295a3 3 0 00-2.923-3.675z" display="block"/><path fill="#E0E0E0" d="M1271.202 584.745h54.92l21.96-95.116h51.828l-21.959 95.116c-.68 2.945-2.719 7.951-8.02 7.951h-100.564c-2.196 0-3.565-1.779-3.058-3.975.507-2.196 2.697-3.976 4.893-3.976z" display="block"/><path fill="#AAA" d="M1399.91 489.629v67.73h-15.637l15.637-67.73z" display="block"/><g display="block"><path fill="#E0E0E0" d="M1243.235 592.696h-88.087c-.341 0-.677-.087-.975-.253l-23.327-13.021c-1.8-1.005-1.088-3.746.974-3.746h88.088a2 2 0 01.974.253l23.328 13.021c1.8 1.005 1.087 3.746-.975 3.746z"/><path fill="#FFF" d="M1156.289 587.248h10.718l-5.86-3.062h-10.6l5.742 3.062zM1170.13 587.248h10.718l-5.86-3.062h-10.601l5.743 3.062zM1183.97 587.248h10.718l-5.86-3.062h-10.6l5.742 3.062zM1197.81 587.248h10.719l-5.86-3.062h-10.601l5.743 3.062zM1211.65 587.248h10.719l-5.86-3.062h-10.6l5.742 3.062zM1225.492 587.248h10.717l-5.858-3.062h-10.602l5.743 3.062zM1147.897 582.125h10.717l-5.86-3.063h-10.6l5.743 3.063zM1161.737 582.125h10.718l-5.86-3.063h-10.6l5.742 3.063zM1175.578 582.125h15.768l-4.86-3.063h-16.651l5.743 3.063z"/><path fill="#FFF" d="M1189.418 582.125h10.718l-5.86-3.063h-10.6l5.742 3.063zM1203.259 582.125h10.717l-5.86-3.063h-10.6l5.743 3.063zM1217.099 582.125h10.718l-5.86-3.063h-10.6l5.742 3.063z"/></g><path fill="#E0E0E0" d="M1258.462 585.04c-2.65 1.09-7.068 1.089-15.313-3.534-7.516-4.214-5.979-7.186-5.153-8.54 1.62-2.654 9.571-5.153 15.902 0 6.331 5.153 7.551 10.846 4.564 12.074z" display="block"/><path stroke-miterlimit="10" stroke="#E0E0E0" stroke-width=".8" d="M1424.057 747.263h-43.377c-20.59 0-37.281-16.691-37.281-37.281 0 0 0 0 0 0 0-20.59 16.691-37.281 37.281-37.281h43.377c20.59 0 37.281 16.691 37.281 37.281 0 0 0 0 0 0 0 20.59-16.691 37.281-37.281 37.281z" fill="none" display="block"/><g display="block"><path fill="#3369E8" d="M1405.194 709.614h20.194v3.911h-24.105"/><path fill="#FFC105" d="M1401.283 713.525h-20.194v-3.911h24.105"/><path fill="#DB4437" d="M1401.283 713.525V689.42h3.911v20.194"/><path fill="#009925" d="M1405.194 709.614v24.105h-3.911v-20.194"/></g><path fill="#F5F5F5" d="M423.982 338.291h139.904a3 3 0 002.923-3.675l-19.896-86.177a3 3 0 00-2.923-2.325H404.087a3 3 0 00-2.924 3.675l19.896 86.177a3 3 0 002.923 2.325z" display="block"/><path fill="#FFABAB" d="M509.872 271.404c1.539 6.668 8.193 12.073 14.861 12.073 6.668 0 10.825-5.405 9.286-12.073-1.539-6.668-8.193-12.074-14.861-12.074-6.668 0-10.825 5.406-9.286 12.074z" display="block"/><path fill="#F29900" d="M466.952 271.404c1.539 6.668 8.193 12.073 14.861 12.073 6.668 0 10.825-5.405 9.286-12.073-1.539-6.668-8.193-12.074-14.861-12.074-6.668 0-10.825 5.406-9.286 12.074z" display="block"/><path fill="#FFC105" d="M424.798 271.404c1.539 6.668 8.193 12.073 14.861 12.073 6.668 0 10.825-5.405 9.286-12.073-1.539-6.668-8.193-12.074-14.861-12.074-6.668 0-10.825 5.406-9.286 12.074z" display="block"/><path fill="#009925" d="M435.192 313.002c1.539 6.668 8.193 12.073 14.861 12.073 6.668 0 10.825-5.405 9.286-12.073-1.539-6.668-8.193-12.074-14.861-12.074-6.668 0-10.825 5.406-9.286 12.074z" display="block"/><path fill="#B3E4FF" d="M477.346 313.002c1.539 6.668 8.193 12.073 14.861 12.073 6.668 0 10.825-5.405 9.286-12.073-1.539-6.668-8.193-12.074-14.861-12.074-6.668 0-10.825 5.406-9.286 12.074z" display="block"/><path fill="#0D3575" d="M520.266 313.002c1.539 6.668 8.193 12.073 14.861 12.073 6.668 0 10.825-5.405 9.286-12.073-1.539-6.668-8.193-12.074-14.861-12.074-6.668 0-10.825 5.406-9.286 12.074z" display="block"/><path stroke-linecap="round" stroke-miterlimit="10" stroke="#616161" d="M498.933 292.203h-32.392" fill="none" display="block"/><g display="block"><path fill="#3369E8" d="M537.505 296.065l-11.558-11.558a1.545 1.545 0 010-2.186l1.153-1.153a1.544 1.544 0 012.185 0l11.559 11.558a1.545 1.545 0 010 2.186l-1.153 1.153a1.545 1.545 0 01-2.186 0z"/><path stroke-miterlimit="10" stroke="#3369E8" d="M537.505 296.065l-11.558-11.558a1.545 1.545 0 010-2.186l1.153-1.153a1.544 1.544 0 012.185 0l11.559 11.558a1.545 1.545 0 010 2.186l-1.153 1.153a1.545 1.545 0 01-2.186 0z" fill="none"/><path fill="#3369E8" d="M536.759 288.642l-3.411-3.411 6.04-6.041a1.577 1.577 0 012.233 0l1.178 1.178a1.578 1.578 0 010 2.233l-6.04 6.041z"/><path stroke-miterlimit="10" stroke="#3369E8" d="M536.759 288.642l-3.411-3.411 6.04-6.041a1.577 1.577 0 012.233 0l1.178 1.178a1.578 1.578 0 010 2.233l-6.04 6.041z" fill="none"/><g><path stroke-miterlimit="10" stroke="#3369E8" d="M512.425 312.975l-4.925 1.515 1.515-4.926 20.995-20.995 3.41 3.411-20.995 20.995z" fill="none"/></g></g><path fill="#C4C4C4" d="M729.713 256.533l-72.402 30.679c-3.01 1.275-2.098 5.763 1.171 5.763h135.575c3.208 0 4.177-4.357 1.272-5.717l-65.616-30.725z" display="block"/><path stroke-miterlimit="10" stroke="#C4C4C4" d="M729.713 153.171v103.362" fill="none" display="block"/><g display="block"><path fill="#F5F5F5" d="M702.889 535.162h-29.264c-.396 0-.791-.321-.883-.717l-6.756-29.264c-.092-.396.156-.718.552-.718h23.245l8.394 7.178 5.264 22.804c.092.396-.156.717-.552.717z"/><path fill="#C4C4C4" d="M691.33 511.641l-1.547-7.178 8.394 7.178h-6.847z"/></g><g display="block"><path fill="#F5F5F5" d="M634.38 350.963h-29.264c-.396 0-.791-.322-.883-.718l-6.756-29.264c-.092-.396.156-.717.552-.717h23.245l8.393 7.177 5.265 22.804c.092.396-.156.718-.552.718z"/><path fill="#C4C4C4" d="M622.821 327.441l-1.547-7.177 8.393 7.177h-6.846z"/></g></g></g></svg>