<?xml version="1.0" encoding="UTF-8" standalone="no"?>
<svg
   xmlns:dc="http://purl.org/dc/elements/1.1/"
   xmlns:cc="http://creativecommons.org/ns#"
   xmlns:rdf="http://www.w3.org/1999/02/22-rdf-syntax-ns#"
   xmlns:svg="http://www.w3.org/2000/svg"
   xmlns="http://www.w3.org/2000/svg"
   xmlns:xlink="http://www.w3.org/1999/xlink"
   xmlns:sodipodi="http://sodipodi.sourceforge.net/DTD/sodipodi-0.dtd"
   xmlns:inkscape="http://www.inkscape.org/namespaces/inkscape"
   inkscape:version="1.0 (4035a4fb49, 2020-05-01)"
   sodipodi:docname="masked-footer-wide.svg"
   xml:space="preserve"
   style="enable-background:new 0 0 1576 1117;"
   viewBox="0 0 1576 1117"
   y="0px"
   x="0px"
   id="Layer_1"
   version="1.1"><metadata
   id="metadata782"><rdf:RDF><cc:Work
       rdf:about=""><dc:format>image/svg+xml</dc:format><dc:type
         rdf:resource="http://purl.org/dc/dcmitype/StillImage" /></cc:Work></rdf:RDF></metadata><defs
   id="defs780" /><sodipodi:namedview
   inkscape:current-layer="Layer_1"
   inkscape:window-maximized="0"
   inkscape:window-y="0"
   inkscape:window-x="0"
   inkscape:cy="558.5"
   inkscape:cx="788"
   inkscape:zoom="0.67068528"
   showgrid="false"
   id="namedview778"
   inkscape:window-height="1045"
   inkscape:window-width="1912"
   inkscape:pageshadow="2"
   inkscape:pageopacity="0"
   guidetolerance="10"
   gridtolerance="10"
   objecttolerance="10"
   borderopacity="1"
   bordercolor="#666666"
   pagecolor="#ffffff" />
<style
   id="style2"
   type="text/css">
	.st0{fill:#F5F5F5;}
	.st1{fill:#009925;}
	.st2{fill:#FFFFFF;}
	.st3{fill:#AAAAAA;}
	.st4{fill:#B3E4FF;}
	.st5{fill:#E3F6FF;}
	.st6{fill:#3369E8;}
	.st7{fill:#616161;}
	.st8{fill:#F29900;}
	.st9{fill:#332821;}
	.st10{fill:#FFC105;}
	.st11{fill:#BF795E;}
	.st12{fill:#68230E;}
	.st13{fill:#0D3575;}
	.st14{fill:#493626;}
	.st15{fill:#C18053;}
	.st16{opacity:0.6;enable-background:new    ;}
	.st17{fill:#E0E0E0;}
	.st18{clip-path:url(#SVGID_2_);}
	.st19{clip-path:url(#SVGID_4_);}
	.st20{clip-path:url(#SVGID_6_);}
	.st21{clip-path:url(#SVGID_8_);}
	.st22{clip-path:url(#SVGID_10_);}
	.st23{fill:#FFC49C;}
	.st24{clip-path:url(#SVGID_12_);}
	.st25{clip-path:url(#SVGID_14_);}
	.st26{fill:#174417;}
	.st27{clip-path:url(#SVGID_16_);}
	.st28{clip-path:url(#SVGID_18_);}
	.st29{clip-path:url(#SVGID_20_);}
	.st30{clip-path:url(#SVGID_22_);}
	.st31{clip-path:url(#SVGID_24_);}
	.st32{clip-path:url(#SVGID_26_);}
	.st33{fill:#C4C4C4;}
</style>
<g
   id="g775">
	
	<path
   id="path6"
   d="M1325,883.4l195.7-0.2c0,0-4.6-9.6-13.8-9.1c-9.3,0.5-12.8-10.5-25.5-11.1c-12.7-0.6-19.1,10.4-26.6,10.2   s-10.7-25.2-43.9-24c-33.2,1.2-39.5,23.4-47.6,25C1355.1,875.9,1337.7,872.4,1325,883.4z"
   class="st0" />
	<g
   id="g16">
		<g
   id="g10">
			<path
   id="path8"
   d="M1455.7,946.1c-0.1,0-0.2,0-0.4,0l-65.6-16.7c-0.8-0.2-1.3-1-1.1-1.8c0.2-0.8,1-1.3,1.8-1.1l65.6,16.7     c0.8,0.2,1.3,1,1.1,1.8C1456.9,945.7,1456.3,946.1,1455.7,946.1z"
   class="st1" />
		</g>
		<g
   id="g14">
			<path
   id="path12"
   d="M1432,940.1c-0.6,0-1.2-0.4-1.4-1c-0.3-0.8,0.1-1.6,0.9-1.9l17.9-7c0.8-0.3,1.6,0.1,1.9,0.9     c0.3,0.8-0.1,1.6-0.9,1.9l-17.9,7C1432.4,940.1,1432.2,940.1,1432,940.1z"
   class="st1" />
		</g>
	</g>
	<g
   id="g20">
		<path
   id="path18"
   d="M1422.3,377.3h128c0,0-11.3-12.2-17-15.3c-5.7-3.1-20.7-5-29.5,0c0,0-5.1-34.5-38.3-39.5    c-29.5-4.4-34.3,16.2-34.3,16.2L1422.3,377.3z"
   class="st0" />
	</g>
	<g
   id="g24">
		<path
   id="path22"
   d="M236.4,470H603l38-185.8c0,0-64.1-12.3-108.4,51.1s-55.1,16.6-106.1,30.1s-77,59.6-77,59.6    s-21.3-11.4-50.4-6.9s-48.5,31.7-48.5,31.7s-32.5-10.4-54.1,0s-41.1,20.1-41.1,20.1L236.4,470z"
   class="st0" />
	</g>
	<g
   id="g30">
		<path
   id="path26"
   d="M1285.9,941l-810.5,0.1c-4.4,0-8-3.6-8-8c0-0.6,0.1-1.2,0.2-1.8l190.4-825c0.8-3.6,4.1-6.2,7.8-6.2h810.5    c4.4,0,8,3.6,8,8c0,0.6-0.1,1.2-0.2,1.8l-190.4,825C1292.8,938.5,1289.6,941,1285.9,941z"
   class="st2" />
		<path
   id="path28"
   d="M475.4,941.8c-2.3,0-4.5-0.9-6.2-2.6s-2.6-3.8-2.6-6.2c0-0.7,0.1-1.3,0.2-2l190.4-825c0.9-4,4.4-6.8,8.5-6.8    h810.5l0,0c4.8,0,8.7,3.9,8.8,8.7c0,0.7-0.1,1.3-0.2,2l-190.4,825c-0.9,4-4.4,6.8-8.5,6.8v-0.8v0.8L475.4,941.8L475.4,941.8z     M1476.3,100.8L1476.3,100.8H665.8c-3.4,0-6.3,2.3-7.1,5.6l-190.4,825c-0.1,0.5-0.2,1.1-0.2,1.6c0,1.9,0.8,3.8,2.1,5.1    c1.4,1.4,3.2,2.1,5.1,2.1l0,0l810.5-0.1c3.4,0,6.3-2.3,7.1-5.6l190.4-825c0.1-0.5,0.2-1.1,0.2-1.6    C1483.5,104,1480.3,100.8,1476.3,100.8z"
   class="st3" />
	</g>
	<g
   id="g36">
		<path
   id="path32"
   d="M746,123.9l672.9,0.5c4.6,0,8.4,3.7,8.4,8.4l0,0c0,4.6-3.7,8.4-8.4,8.4L746,140.7c-4.6,0-8.4-3.7-8.4-8.4l0,0    C737.6,127.6,741.4,123.9,746,123.9z"
   class="st2" />
		<path
   id="path34"
   d="M1418.9,141.9L746,141.4c-5,0-9.1-4.1-9.1-9.1s4.1-9.1,9.1-9.1l672.9,0.5c5,0,9.1,4.1,9.1,9.1    C1428,137.8,1423.9,141.9,1418.9,141.9z M746,124.6c-4.2,0-7.6,3.4-7.6,7.6s3.4,7.6,7.6,7.6l672.9,0.5c4.2,0,7.6-3.4,7.6-7.6    s-3.4-7.6-7.6-7.6C1418.9,125.1,746,124.6,746,124.6z"
   class="st3" />
	</g>
	<g
   id="g40">
		<polygon
   id="polygon38"
   points="493.1,917.3 665.4,161.8 1450.8,161.7 1274.8,917.3   "
   class="st4" />
	</g>
	<g
   id="g44">
		<polygon
   id="polygon42"
   points="665.4,161.8 1450.8,161.7 1378.8,471.2   "
   class="st5" />
	</g>
	<g
   id="g48">
		<path
   id="path46"
   d="M531,745.8h-41c-5.2,0-9.4-4.2-9.4-9.4V696h59.8v40.4C540.4,741.6,536.2,745.8,531,745.8z M483.6,698.9v37.4    c0,3.5,2.9,6.4,6.4,6.4h41c3.5,0,6.4-2.9,6.4-6.4v-37.4H483.6z"
   class="st3" />
	</g>
	<g
   id="g52">
		<path
   id="path50"
   d="M540.4,699h-59.8v-7.9c0-16.5,13.4-29.9,29.9-29.9s29.9,13.4,29.9,29.9V699z M483.6,695.9h53.8V691    c0-14.8-12.1-26.9-26.9-26.9c-14.8,0-26.9,12.1-26.9,26.9V695.9z"
   class="st3" />
	</g>
	<g
   id="g56">
		<path
   id="path54"
   d="M1199.7,1071.8l-703.7,0.1c-4.4,0-8-3.6-8-8c0-0.6,0.1-1.2,0.2-1.8L548.6,807c0.8-3.6,4.1-6.2,7.8-6.2    l703.7-0.1c4.4,0,8,3.6,8,8c0,0.6-0.1,1.2-0.2,1.8l-60.4,255.2C1206.6,1069.3,1203.4,1071.8,1199.7,1071.8z"
   class="st2" />
	</g>
	<g
   id="g62">
		<path
   id="path58"
   d="M679,828.1l521.9,0.4c9.4,0,16.9,7.6,16.9,16.9l0,0c0,9.4-7.6,16.9-16.9,16.9L679,861.9    c-9.4,0-16.9-7.6-16.9-16.9l0,0C662,835.6,669.6,828.1,679,828.1z"
   class="st2" />
		<path
   id="path60"
   d="M1200.9,863L679,862.6c-9.7,0-17.7-7.9-17.7-17.7s7.9-17.7,17.7-17.7l521.9,0.4c9.7,0,17.7,7.9,17.7,17.7    C1218.6,855,1210.6,863,1200.9,863z M679,828.8c-8.9,0-16.2,7.3-16.2,16.2s7.3,16.2,16.2,16.2l521.9,0.4c8.9,0,16.2-7.3,16.2-16.2    s-7.3-16.2-16.2-16.2L679,828.8z"
   class="st3" />
	</g>
	<g
   id="g66">
		<path
   id="path64"
   d="M601.9,864.4l-14.2-13.5c-0.6-0.6-0.6-1.5-0.1-2.1c0.6-0.6,1.5-0.6,2.1-0.1l11.9,11.3l28-34.5    c0.5-0.6,1.5-0.7,2.1-0.2c0.6,0.5,0.7,1.5,0.2,2.1L601.9,864.4z"
   class="st6" />
	</g>
	<g
   id="g70">
		<rect
   id="rect68"
   height="1.5"
   width="650.5"
   class="st3"
   y="889.1"
   x="557.5" />
	</g>
	<g
   id="g76">
		<path
   id="path72"
   d="M658.8,917.2l521.9,0.4c9.4,0,16.9,7.6,16.9,16.9l0,0c0,9.4-7.6,16.9-16.9,16.9L658.8,951    c-9.4,0-16.9-7.6-16.9-16.9l0,0C641.9,924.7,649.4,917.2,658.8,917.2z"
   class="st2" />
		<path
   id="path74"
   d="M1180.7,952.1l-521.9-0.4c-9.7,0-17.7-7.9-17.7-17.7s7.9-17.7,17.7-17.7l521.9,0.4c9.7,0,17.7,7.9,17.7,17.7    C1198.4,944.2,1190.5,952.1,1180.7,952.1z M658.8,917.9c-8.9,0-16.2,7.3-16.2,16.2s7.3,16.2,16.2,16.2l521.9,0.4    c8.9,0,16.2-7.3,16.2-16.2s-7.3-16.2-16.2-16.2L658.8,917.9z"
   class="st3" />
	</g>
	<g
   id="g80">
		<path
   id="path78"
   d="M581.7,953.6l-14.2-13.5c-0.6-0.6-0.6-1.5-0.1-2.1c0.6-0.6,1.5-0.6,2.1-0.1l11.9,11.3l28-34.5    c0.5-0.6,1.5-0.7,2.1-0.2c0.6,0.5,0.7,1.5,0.2,2.1L581.7,953.6z"
   class="st6" />
	</g>
	<g
   id="g84">
		<rect
   id="rect82"
   height="1.5"
   width="652.5"
   class="st3"
   y="979.2"
   x="539.3" />
	</g>
	<g
   id="g90">
		<path
   id="path86"
   d="M635.8,1010.3l521.9,0.4c9.4,0,16.9,7.6,16.9,16.9l0,0c0,9.4-7.6,16.9-16.9,16.9l-521.9-0.4    c-9.4,0-16.9-7.6-16.9-16.9l0,0C618.9,1017.9,626.5,1010.3,635.8,1010.3z"
   class="st2" />
		<path
   id="path88"
   d="M1157.7,1045.3l-521.9-0.4c-9.7,0-17.7-7.9-17.7-17.7c0-9.8,7.9-17.7,17.7-17.7l521.9,0.4    c9.7,0,17.7,7.9,17.7,17.7C1175.4,1037.4,1167.5,1045.3,1157.7,1045.3z M635.8,1011c-8.9,0-16.2,7.3-16.2,16.2    c0,8.9,7.3,16.2,16.2,16.2l521.9,0.4c8.9,0,16.2-7.3,16.2-16.2c0-8.9-7.3-16.2-16.2-16.2L635.8,1011z"
   class="st3" />
	</g>
	<g
   id="g94">
		<path
   id="path92"
   d="M558.8,1046.8l-14.3-13.5c-0.6-0.6-0.6-1.5-0.1-2.1c0.6-0.6,1.5-0.6,2.1-0.1l11.9,11.3l28-34.5    c0.5-0.6,1.5-0.7,2.1-0.2c0.6,0.5,0.7,1.5,0.2,2.1L558.8,1046.8z"
   class="st6" />
	</g>
	<g
   id="g98">
		
			<rect
   id="rect96"
   height="3"
   width="98.2"
   class="st3"
   transform="matrix(0.4108 -0.9117 0.9117 0.4108 -278.8027 972.2742)"
   y="700.3"
   x="563.8" />
	</g>
	<g
   id="g102">
		
			<rect
   id="rect100"
   height="3"
   width="98.1"
   class="st3"
   transform="matrix(0.4108 -0.9117 0.9117 0.4108 -267.0861 990.4799)"
   y="700.4"
   x="583.7" />
	</g>
	<g
   id="g106">
		<path
   id="path104"
   d="M590.5,691.2c-1.8,0-3.2-1.5-3.2-3.2s1.5-3.2,3.2-3.2s3.2,1.5,3.2,3.2S592.3,691.2,590.5,691.2z M590.5,687.7    c-0.1,0-0.2,0.1-0.2,0.2c0,0.3,0.5,0.3,0.5,0C590.8,687.8,590.7,687.7,590.5,687.7z"
   class="st3" />
	</g>
	<g
   id="g110">
		<path
   id="path108"
   d="M590.6,718.3c-1.8,0-3.2-1.5-3.2-3.2s1.5-3.2,3.2-3.2s3.2,1.5,3.2,3.2S592.3,718.3,590.6,718.3z M590.6,714.8    c-0.1,0-0.2,0.1-0.2,0.2c0,0.3,0.5,0.3,0.5,0C590.8,714.9,590.7,714.8,590.6,714.8z"
   class="st3" />
	</g>
	<g
   id="g114">
		<polygon
   id="polygon112"
   points="1237,941.1 1267.9,810.5 1267.9,941   "
   class="st3" />
	</g>
	<g
   id="g120">
		<circle
   id="circle116"
   r="8.4"
   cy="132.5"
   cx="696.6"
   class="st2" />
		<path
   id="path118"
   d="M696.6,141.7c-5,0-9.1-4.1-9.1-9.1s4.1-9.1,9.1-9.1s9.1,4.1,9.1,9.1S701.7,141.7,696.6,141.7z M696.6,124.9    c-4.2,0-7.6,3.4-7.6,7.6s3.4,7.6,7.6,7.6c4.2,0,7.6-3.4,7.6-7.6C704.2,128.3,700.8,124.9,696.6,124.9z"
   class="st3" />
	</g>
	<g
   id="g124">
		<path
   id="path122"
   d="M1214,402.2c0,0,44.9,30.2,56.9,108.8s15.1,124.5,15.1,124.5l-344.7,0.2c0,0,41.6-222.2,125.2-253.7    C1150.1,350.5,1214,402.2,1214,402.2z"
   class="st7" />
	</g>
	<g
   id="g128">
		<path
   id="path126"
   d="M1245.8,635.7c-12.5-138.9-27.2-189.9-27.4-190.4l1-0.3c0.1,0.5,14.9,51.6,27.4,190.6L1245.8,635.7z"
   class="st2" />
	</g>
	<g
   id="g132">
		<path
   id="path130"
   d="M1164.5,444.7c0,0,4.3,53.3,40.7,50.1c33.8-2.9,38.8-48,38.8-63.5s1.8-59.7-21-66.5    C1200.2,358,1164.5,444.7,1164.5,444.7z"
   class="st8" />
	</g>
	<g
   id="g136">
		<path
   id="path134"
   d="M1056.8,121.6c0,0,4,21.6-20.1,28.8c-18.6,5.5-73.2,41.3-41.8,101.5c34.2,65.4,151.9,8.2,152.9-7.2    S1056.8,121.6,1056.8,121.6z"
   class="st9" />
	</g>
	<g
   id="g140">
		<path
   id="path138"
   d="M1088.4,154c-5.8,0-11.8,7-12.7,23c-0.4,8,3.3,22.1,13.5,22.1c6.7,0,13.4-6.5,13.4-18.2    C1102.6,159.1,1093.3,153.9,1088.4,154z M1090.1,176.5c-5.2,0.5-4.6-20-1-20C1092.7,156.5,1097.2,175.7,1090.1,176.5z"
   class="st2" />
	</g>
	<g
   id="g144">
		<path
   id="path142"
   d="M1096.3,211.2c0,0-45,6.6-52.7,9.9c-7.7,3.3-13.5,13.2-21.5,26c-8.1,12.8-51.5,88.2-51.5,88.2l41.1-2.9    l31.1,61.4l123,22.5l47.5-59.9c9.7,7.4,17.3,17.2,21.9,28.5c8.7,22.1,9.7,57.2,1.8,82.8c0,0,22-48.3,25.8-60.8s6.4-34.8,5.1-48    s-19.5-93.3-24.2-109.4s-5.6-27.5-23.2-30.8s-61.1-9.8-61.1-9.8L1096.3,211.2z"
   class="st10" />
	</g>
	<g
   id="g148">
		<path
   id="path146"
   d="M1048.2,394.6h37.8c9.6,0,17.4,6.5,24.1,15.6s25.5,33.3,54.4,34.4c28.9,1,62.1-29.3,66-55.3    c3.9-26,4.4-48.6-19.7-79.4c-24.2-30.8-25.3-41.4-24.3-60.8l-11.4,9.6c-2.7-0.7-5.5-0.2-7.8,1.3c-3.9,2.7-4.9,4.5-4.9,4.5    c-8.6,2.6-17,6.1-25,10.4c-14,7.5-32.7,25-46.2,48.1S1067.7,378.3,1048.2,394.6z"
   class="st6" />
	</g>
	<g
   id="g152">
		<path
   id="path150"
   d="M1056.8,121.6c0,0,2.2,26.9,3.3,34s8.7,23.8,35.4,22l2,27.7c0,0,1.3,3.5-15,9.1c-7,2.4-20.7,11.5-5.4,22.1    c18.4,12.7,55.8,9.6,76.8,0c24.3-11.1,13.6-25,5.8-27.7c-7.8-2.7-10.9-5.9-11.8-9.4c-0.9-3.5-1.2-27.4-1.8-37.4s20.4-28.9,8-49    s-53.6-27.2-69.4-24.5S1056.8,121.6,1056.8,121.6z"
   class="st11" />
	</g>
	<g
   id="g156">
		<path
   id="path154"
   d="M1095.5,177.7c0,0,10.5-0.8,18.2-4.6l-17.2,17.8L1095.5,177.7z"
   class="st12" />
	</g>
	<g
   id="g160">
		<path
   id="path158"
   d="M1013.8,445.1l150.3-0.4c0,0-55-51-79-51.2C1059,393.5,1040.5,405.6,1013.8,445.1z" />
	</g>
	<g
   id="g164">
		<path
   id="path162"
   d="M957.8,393.7c0,0-7.8-11.3-3.4-25.2c4.4-13.9,16.2-33.3,16.2-33.3l41.1-2.9l105-54.7l-12.2,28.5    c0,0-11.9,14.3-25.6,40.9c-8.8,16.8-19,32.8-30.7,47.7L957.8,393.7z"
   class="st10" />
	</g>
	<g
   id="g168">
		<path
   id="path166"
   d="M884.3,399.8c3.3-3.9,8.2-6.2,13.3-6.1l188.4-0.1c0,0-21.9-3.4-48.9,22.7S986.2,504,986.2,504L951,489.1    L884.3,399.8z"
   class="st13" />
	</g>
	<g
   id="g172">
		<path
   id="path170"
   d="M1056.8,121.6c12.5,0.8,28.1-2.6,37-7s21.9-12.1,22.4,0s0.5,16.6,5.4,17.4s8.5-6,10.6-10.4    c3.4-7.4,9.2-8.6,13.9-5.7c5.3,3.3,7,12.6-0.9,24c-3.7,5.3-0.5,32.6,1.1,46s-2.1,20.3,13.4,22.8s47.6,6.4,61.1,9.8    c13.5,3.4,16.5,7.8,20.3,20.3s7.6,31.9,7.6,31.9s107.5-0.4,110.6-110.6s-92.1-99-118.6-101.4s-46.1-17.5-55.5-31.1    c-9.4-13.5-28.2-37.4-61.8-23.1s-21.8,55.1-44.5,67.1c-22.7,12-29.9,5.7-37.3,23C1034.4,111.5,1048.6,121.1,1056.8,121.6z"
   class="st9" />
	</g>
	<g
   id="g176">
		<path
   id="path174"
   d="M1231.9,377.8c0,0-4.4,9.8-7.5,10.1c-3.1,0.3-9.8,1.1-15.2,6.8c-5.4,5.7-7,10.7-12.8,15.7s-0.5,6.2,3.1,5.8    c3.6-0.4,14.8-13.5,18.9-10.1s-2.8,11.7-6.4,16.5s-18.1,14-18.1,14s13-0.8,16.4-1.1c3.4-0.3,6.3-1.2,10.1-4.8    c3.8-3.6,21-20.6,21-20.6C1240.3,398.8,1237.1,387.9,1231.9,377.8z"
   class="st11" />
	</g>
	<g
   id="g180">
		<path
   id="path178"
   d="M1119.6,280.2c0,0,8.8-2.9,11.5-4.3c2.7-1.4,5.1-9.1,11.4-11.2c6.3-2,16.1-5.2,18.5-6.2s7.8-3.4,10,0.1    c0,0-4.2,0.8-8.6,6c0,0-18.5,5.9-32.6,15.2c-14.1,9.3-25.1,26.4-25.1,26.4S1107.6,290.1,1119.6,280.2z"
   class="st11" />
	</g>
	<g
   id="g184">
		<path
   id="path182"
   d="M1186.5,263.6c0,0,3.1-2.4,5.8-4.7c2.3-1.9,2.3-3.1,3.6-7.9c1.3-4.8,1.3-4.8-1.4-5.4c-3-0.7-8,3.6-8,3.6    S1185.4,252.7,1186.5,263.6z"
   class="st11" />
	</g>
	<g
   id="g188">
		<path
   id="path186"
   d="M1207.1,305.3c0,0-3-26.1-10.6-42.5c-0.7,2-1.7,3.9-3,5.6c-1.8,1.9-4.9,5-4.9,5S1192.6,288.2,1207.1,305.3z" />
	</g>
	<g
   id="g192">
		<polygon
   id="polygon190"
   points="1048.2,284.1 1021.7,327.6 1044.9,316.5   "
   class="st8" />
	</g>
	<g
   id="g196">
		
			<rect
   id="rect194"
   height="1"
   width="120"
   class="st11"
   transform="matrix(0.9025 -0.4307 0.4307 0.9025 -28.0137 488.9815)"
   y="305.9"
   x="1006" />
	</g>
	<g
   id="g200">
		<polygon
   id="polygon198"
   points="1137.4,182.3 1147.8,201.6 1146.6,188   "
   class="st12" />
	</g>
	<g
   id="g204">
		<path
   id="path202"
   d="M1201.7,277.5L1240,345l-9.9,1.8c0,0-4.3-15.8-23.1-41.7L1201.7,277.5z"
   class="st8" />
	</g>
	<g
   id="g208">
		<path
   id="path206"
   d="M1230.1,347.5c-0.2,0-0.5-0.2-0.5-0.4c-0.1-0.3,0.1-0.5,0.4-0.6l13.9-2.6c0.3-0.1,0.5,0.1,0.6,0.4    s-0.1,0.5-0.4,0.6L1230.1,347.5L1230.1,347.5z"
   class="st11" />
	</g>
	<g
   id="g212">
		<path
   id="path210"
   d="M1147.6,135.5c-6.8,0-14,8.3-15,27.3c-0.5,9.5,3.9,26.2,16.1,26.2c8,0,15.8-7.7,15.8-21.6    C1164.5,141.7,1153.5,135.5,1147.6,135.5z M1149.7,162.3c-6.1,0.6-5.4-23.7-1.2-23.7C1152.7,138.6,1158.1,161.4,1149.7,162.3z"
   class="st2" />
	</g>
	<g
   id="g216">
		
			<rect
   id="rect214"
   height="1"
   width="10.3"
   class="st12"
   transform="matrix(0.5609 -0.8279 0.8279 0.5609 395.1771 999.9585)"
   y="126.9"
   x="1135.1" />
	</g>
	<g
   id="g220">
		<path
   id="path218"
   d="M1188.5,273.4c0,0,4.3-3.5,5.8-6s3.7-7.1,3.5-10.7c-0.2-3.5-1-3.2-1-3.2l-0.2-4.9l-10.3,11.1    C1186.2,259.8,1186.6,268.6,1188.5,273.4z"
   class="st11" />
	</g>
	<g
   id="g224">
		<path
   id="path222"
   d="M1186.1,252.1c0,0,1.4,12.1,4.5,19.5l-2.1,1.8c-1.1-2.9-1.8-5.9-2.1-9C1186,260.3,1185.9,256.2,1186.1,252.1    z"
   class="st12" />
	</g>
	<g
   id="g228">
		<path
   id="path226"
   d="M1199.3,432.8c0,0,9.6-4.3,12.2-7.3s7.5-13.9,7.5-13.9s-7.6,11-11,14.1    C1204.6,428.8,1199.3,432.8,1199.3,432.8z"
   class="st12" />
	</g>
	<g
   id="g232">
		<path
   id="path230"
   d="M1233.7,381.4c0,0,3.5,18,4.6,24.3l1.1,6.3l1.9-1.9c-0.4-4.5-1.2-9-2.1-13.4    C1237.9,391.4,1236.1,386.3,1233.7,381.4z"
   class="st12" />
	</g>
	<g
   id="g236">
		<polygon
   id="polygon234"
   points="1155.6,267 1165.6,261.4 1162.3,264.6   "
   class="st12" />
	</g>
	<g
   id="g240">
		
			<rect
   id="rect238"
   height="27.3"
   width="1"
   class="st2"
   transform="matrix(0.9971 -7.624044e-02 7.624044e-02 0.9971 -44.0362 91.004)"
   y="608.6"
   x="1169.4" />
	</g>
	<g
   id="g244">
		<polygon
   id="polygon242"
   points="626.1,635.6 656.7,534.3 784,531.4 818.3,566.5 843.1,635.7   "
   class="st6" />
	</g>
	<g
   id="g248">
		<polygon
   id="polygon246"
   points="661.1,219.1 667.8,310.3 717.9,300.1 713,254.6   "
   class="st14" />
	</g>
	<g
   id="g252">
		<path
   id="path250"
   d="M960.1,470.3c-1.3-14.3-7.1-27.9-16.6-38.7c-27.3-30.9-83.8-95-92.9-104.1c-12.1-12.1-28.8-24.7-49-26.4    c-20.2-1.7-93-2-93-2s-18.2,0.7-33,0c-9.5-0.4-38,13.2-51.8,22.3c-13.8,9.1-112.4,68.8-112.4,68.8l-40.8-117.4h-29    c0,0,12.7,138.6,13,152.6c0.4,23.9,23.5,50.6,54.8,32.1c31.4-18.5,114.4-70,114.4-70s-8.4,10.6-2.7,30.4l0,0l35.6,116.3l131.3,3    c0.6-0.2,0.6-18.2,0.7-18.8l27-122.4l53.8,52.2l92.4,42.8L960.1,470.3z"
   class="st2" />
	</g>
	<g
   id="g256">
		<path
   id="path254"
   d="M646.2,208.2c0.4,13.2,6.2,35,9.7,47.4c3.6,12.4,23,26.1,45.5,17.8l4.2,29.7c0,0-20.7,16.8-11.7,33.8    c7.9,14.9,47.1,4.7,59.2-10.1c12.8-15.9,10.6-26.7,10.6-26.7l-5.3-3l-7.8-67c0,0,10.6-51.6-3-65.2c-13.6-13.6-64.1-14.2-79.5-3.6    C652.8,172.2,645.7,186.8,646.2,208.2z"
   class="st15" />
	</g>
	<g
   id="g260">
		<path
   id="path258"
   d="M488.9,242.3c0,0,0.5,2.8-3.5,3.4c-8.9,1.3-10.5,5.8-14.4,8.8s-4.5,5.1-2.6,10.8c1.8,5.5,2.2,7.4,2.2,7.4    h-29c-1.7-2.2-3.5-4.2-5.6-6c-5.9-5.3-17.6-6.6-25.4-6.8c-25.5-0.6-24.7-2-36.8-9.1c-4.2-2.5-10.6-3.8-14.2-5.4    c-2.8-1.2-3.4-3.1-3.4-3.1h64.9c1.7,0,3.3,0.5,4.7,1.4c3.5,2.7,12.1,7.2,20.1,6.2c9.4-1.1,14.2-3,18.2-5.7c3.2-2.2,8.2-2,8.2-2    L488.9,242.3z"
   class="st15" />
	</g>
	<g
   id="g264">
		<rect
   id="rect262"
   height="1.8"
   width="250.4"
   class="st6"
   y="240.6"
   x="296.9" />
	</g>
	<g
   id="g268">
		<path
   id="path266"
   d="M479.9,234.5c-17,0-31-13.7-31.3-30.7v-0.9l62.6-0.1v0.9c-0.3,16.9-13.8,30.4-30.7,30.8    C480.3,234.5,480.1,234.5,479.9,234.5z M450.4,204.7c0.4,7.5,3.5,14.6,9,19.8c5.7,5.5,13.1,8.4,21,8.3    c15.7-0.3,28.2-12.6,28.9-28.1H450.4z"
   class="st6" />
	</g>
	<g
   id="g272">
		<path
   id="path270"
   d="M356.1,234.5c-0.2,0-0.4,0-0.5,0c-16.9-0.3-30.4-13.8-30.8-30.7v-0.9l62.6-0.1v0.9    C387.1,221,373.1,234.6,356.1,234.5z M326.6,204.7c0.8,15.5,13.3,27.8,29,28.1c16,0.2,29.3-12.3,30-28.1H326.6z"
   class="st6" />
	</g>
	<g
   id="g276">
		<path
   id="path274"
   d="M412.2,227.8l-9.8-48.7h40.1l-10.7,48.7H412.2z M404.7,180.9l9.1,45.1h16.8l10-45.2L404.7,180.9z"
   class="st6" />
	</g>
	<g
   id="g280">
		<rect
   id="rect278"
   height="1.8"
   width="38"
   class="st6"
   y="231.4"
   x="403.5" />
	</g>
	<g
   id="g284">
		<path
   id="path282"
   d="M517.8,216.1c-3,0-5.4-2.4-5.4-5.4s2.4-5.4,5.4-5.4s5.4,2.4,5.4,5.4C523.2,213.7,520.8,216.1,517.8,216.1z     M517.8,207c-2,0-3.7,1.6-3.7,3.7c0,2.1,1.6,3.7,3.7,3.7c2.1,0,3.7-1.6,3.7-3.7S519.8,207,517.8,207z"
   class="st6" />
	</g>
	<g
   id="g288">
		<path
   id="path286"
   d="M393.8,216.1c-3,0-5.4-2.4-5.4-5.4s2.4-5.4,5.4-5.4s5.4,2.4,5.4,5.4C399.2,213.7,396.8,216.1,393.8,216.1z     M393.8,207c-2,0-3.7,1.6-3.7,3.7s1.6,3.7,3.7,3.7c2.1,0,3.7-1.6,3.7-3.7S395.8,207,393.8,207z"
   class="st6" />
	</g>
	<g
   id="g292">
		<path
   id="path290"
   d="M646.5,213.1c0,0,3.2,0.1,8.9-19.3c0,0,9.4,16.7,41.3,25.2c0,0,1.3,7.9,2.3,11.5s8.9,4.3,8.2-1.3    s-3-19.2,4.1-28.8c6.4-8.7,21.9-6.1,23.2,6.5s-6.1,22.3-16.7,22.3l10,62.1l104-21.6c0,0,1.8-24.7-2.2-34.9s-26.8-10.9-38.1-22    s-23.8-44.4-37.9-57.3c-18.3-16.6-48.7-17.1-65.2-12.3S637.6,166,646.5,213.1z"
   class="st14" />
	</g>
	<g
   id="g296">
		<circle
   id="circle294"
   r="26.7"
   cy="124.4"
   cx="694.5"
   class="st14" />
	</g>
	<g
   id="g300">
		<path
   id="path298"
   d="M757.7,291.3c0,0,53.3-11.5,63.4-14.2s10.7-7.5,10.7-7.5L757,285.1L757.7,291.3z" />
	</g>
	<g
   id="g304">
		<path
   id="path302"
   d="M782.4,380.3h-40.6c-0.5,0-0.9-0.4-0.9-0.9c0-0.1,0-0.2,0.1-0.3l4.2-10.3c0.1-0.3,0.5-0.6,0.8-0.6h40.6    c0.5,0,0.9,0.4,0.9,0.9c0,0.1,0,0.2-0.1,0.4l-4.2,10.3C783.1,380.1,782.8,380.3,782.4,380.3z"
   class="st10" />
	</g>
	<g
   id="g308"
   class="st16">
		<polygon
   id="polygon306"
   points="701.4,273.5 717.8,266.5 704.2,293.5   "
   class="st12" />
	</g>
	<g
   id="g312">
		<polygon
   id="polygon310"
   points="747.6,287.2 757.7,291.3 757,285.3   "
   class="st12" />
	</g>
	<g
   id="g316"
   class="st16">
		<polygon
   id="polygon314"
   points="356.2,242.2 436.3,248.8 423.1,242.3   "
   class="st12" />
	</g>
	<g
   id="g320"
   class="st16">
		<path
   id="path318"
   d="M461.7,245.7l14.3-3.5c0,0-6-0.5-9.7,0.9C464.6,243.8,463,244.6,461.7,245.7z"
   class="st12" />
	</g>
	<g
   id="g324">
		
			<rect
   id="rect322"
   height="1"
   width="14.3"
   class="st14"
   transform="matrix(0.5476 -0.8367 0.8367 0.5476 148.0577 698.127)"
   y="211.6"
   x="712.5" />
	</g>
	<g
   id="g328">
		<polygon
   id="polygon326"
   points="815.7,396.1 810.1,390.4 701.2,534.7 788,538.4   "
   class="st17" />
	</g>
	<g
   id="g332">
		<polygon
   id="polygon330"
   points="675.6,299.2 699.9,309.2 705.6,303.1 705,298.8   "
   class="st17" />
	</g>
	<g
   id="g336">
		<polygon
   id="polygon334"
   points="740.5,572.6 838.2,621.7 815.6,558.9   "
   class="st13" />
	</g>
	<g
   id="g366">
		<g
   id="g350">
			<g
   id="g348">
				<defs
   id="defs339">
					<path
   d="M960.1,470.3c-1.3-14.3-7.1-27.9-16.6-38.7c-27.3-30.9-83.8-95-92.9-104.1c-12.1-12.1-28.8-24.7-49-26.4       c-20.2-1.7-93-2-93-2s-18.2,0.7-33,0c-9.5-0.4-38,13.2-51.8,22.3c-13.8,9.1-112.4,68.8-112.4,68.8l-40.8-117.4h-29       c0,0,12.7,138.6,13,152.6c0.4,23.9,23.5,50.6,54.8,32.1c31.4-18.5,114.4-70,114.4-70s-8.4,10.6-2.7,30.4l0,0l35.6,116.3       l131.3,3c0.6-0.2,0.6-18.2,0.7-18.8l27-122.4l53.8,52.2l92.4,42.8L960.1,470.3z"
   id="SVGID_1_" />
				</defs>
				<clipPath
   id="SVGID_2_">
					<use
   id="use341"
   style="overflow:visible;"
   xlink:href="#SVGID_1_" />
				</clipPath>
				<g
   id="g346"
   clip-path="url(#SVGID_2_)"
   class="st18">
					<path
   id="path344"
   d="M621.5,390c-0.1,0-0.2,0-0.3-0.1c-0.2-0.2-0.2-0.5,0-0.7l31.2-33c0.2-0.2,0.5-0.2,0.7,0s0.2,0.5,0,0.7       l-31.2,33C621.7,390,621.6,390,621.5,390z"
   class="st17" />
				</g>
			</g>
		</g>
		<g
   id="g364">
			<g
   id="g362">
				<defs
   id="defs353">
					<path
   d="M960.1,470.3c-1.3-14.3-7.1-27.9-16.6-38.7c-27.3-30.9-83.8-95-92.9-104.1c-12.1-12.1-28.8-24.7-49-26.4       c-20.2-1.7-93-2-93-2s-18.2,0.7-33,0c-9.5-0.4-38,13.2-51.8,22.3c-13.8,9.1-112.4,68.8-112.4,68.8l-40.8-117.4h-29       c0,0,12.7,138.6,13,152.6c0.4,23.9,23.5,50.6,54.8,32.1c31.4-18.5,114.4-70,114.4-70s-8.4,10.6-2.7,30.4l0,0l35.6,116.3       l131.3,3c0.6-0.2,0.6-18.2,0.7-18.8l27-122.4l53.8,52.2l92.4,42.8L960.1,470.3z"
   id="SVGID_3_" />
				</defs>
				<clipPath
   id="SVGID_4_">
					<use
   id="use355"
   style="overflow:visible;"
   xlink:href="#SVGID_3_" />
				</clipPath>
				<g
   id="g360"
   clip-path="url(#SVGID_4_)"
   class="st19">
					<path
   id="path358"
   d="M516.7,408c-0.2,0-0.4-0.1-0.5-0.3l-46.6-134.5c-0.1-0.3,0-0.5,0.3-0.6s0.5,0,0.6,0.3l46.6,134.5       c0.1,0.3,0,0.5-0.3,0.6C516.8,408,516.8,408,516.7,408z"
   class="st17" />
				</g>
			</g>
		</g>
	</g>
	<g
   id="g410">
		<g
   id="g380">
			<g
   id="g378">
				<defs
   id="defs369">
					<path
   d="M646.2,208.2c0.4,13.2,6.2,35,9.7,47.4c3.6,12.4,23,26.1,45.5,17.8l4.2,29.7c0,0-20.7,16.8-11.7,33.8       c7.9,14.9,47.1,4.7,59.2-10.1c12.8-15.9,10.6-26.7,10.6-26.7l-5.3-3l-7.8-67c0,0,10.6-51.6-3-65.2       c-13.6-13.6-64.1-14.2-79.5-3.6C652.8,172.2,645.7,186.8,646.2,208.2z"
   id="SVGID_5_" />
				</defs>
				<clipPath
   id="SVGID_6_">
					<use
   id="use371"
   style="overflow:visible;"
   xlink:href="#SVGID_5_" />
				</clipPath>
				<g
   id="g376"
   clip-path="url(#SVGID_6_)"
   class="st20">
					<path
   id="path374"
   d="M651,240.9c0,0,17,8.7,49-6.3l11,33.7c0.2,0.7-0.1,1.5-0.8,1.8l-26.1,9.6l-35-8L651,240.9z"
   class="st17" />
				</g>
			</g>
		</g>
		<g
   id="g394">
			<g
   id="g392">
				<defs
   id="defs383">
					<path
   d="M646.2,208.2c0.4,13.2,6.2,35,9.7,47.4c3.6,12.4,23,26.1,45.5,17.8l4.2,29.7c0,0-20.7,16.8-11.7,33.8       c7.9,14.9,47.1,4.7,59.2-10.1c12.8-15.9,10.6-26.7,10.6-26.7l-5.3-3l-7.8-67c0,0,10.6-51.6-3-65.2       c-13.6-13.6-64.1-14.2-79.5-3.6C652.8,172.2,645.7,186.8,646.2,208.2z"
   id="SVGID_7_" />
				</defs>
				<clipPath
   id="SVGID_8_">
					<use
   id="use385"
   style="overflow:visible;"
   xlink:href="#SVGID_7_" />
				</clipPath>
				<g
   id="g390"
   clip-path="url(#SVGID_8_)"
   class="st21">
					<path
   id="path388"
   d="M684.9,244.1c-0.2,0-0.4-0.1-0.5-0.3c-0.1-0.3,0-0.5,0.3-0.6c0.2-0.1,19.2-6.8,21.4-20.9       c0-0.3,0.3-0.5,0.6-0.4c0.3,0,0.5,0.3,0.4,0.6c-2.3,14.8-21.8,21.7-22,21.7C685,244.1,685,244.1,684.9,244.1z"
   class="st17" />
				</g>
			</g>
		</g>
		<g
   id="g408">
			<g
   id="g406">
				<defs
   id="defs397">
					<path
   d="M646.2,208.2c0.4,13.2,6.2,35,9.7,47.4c3.6,12.4,23,26.1,45.5,17.8l4.2,29.7c0,0-20.7,16.8-11.7,33.8       c7.9,14.9,47.1,4.7,59.2-10.1c12.8-15.9,10.6-26.7,10.6-26.7l-5.3-3l-7.8-67c0,0,10.6-51.6-3-65.2       c-13.6-13.6-64.1-14.2-79.5-3.6C652.8,172.2,645.7,186.8,646.2,208.2z"
   id="SVGID_9_" />
				</defs>
				<clipPath
   id="SVGID_10_">
					<use
   id="use399"
   style="overflow:visible;"
   xlink:href="#SVGID_9_" />
				</clipPath>
				<g
   id="g404"
   clip-path="url(#SVGID_10_)"
   class="st22">
					<path
   id="path402"
   d="M710.4,269.6c-0.1,0-0.3-0.1-0.4-0.2c-0.2-0.2-0.2-0.5,0-0.7c0.1-0.1,11.1-11,10.7-39.6       c0-0.3,0.2-0.5,0.5-0.5l0,0c0.3,0,0.5,0.2,0.5,0.5c0.3,29.1-10.6,39.9-11.1,40.3C710.7,269.6,710.5,269.6,710.4,269.6z"
   class="st17" />
				</g>
			</g>
		</g>
	</g>
	<g
   id="g414">
		<path
   id="path412"
   d="M776.1,439.7l196.6,78.5l0.4,0.4c10.4,11.4,10.3,29-0.3,40.3l0,0l-209.5,23.2L776.1,439.7z"
   class="st6" />
	</g>
	<g
   id="g418">
		<polygon
   id="polygon416"
   points="897.3,571.7 897.3,626.4 952,626.4 951.9,566.8   "
   class="st23" />
	</g>
	<g
   id="g422"
   class="st16">
		<polygon
   id="polygon420"
   points="897.3,576.1 952,583.4 951.9,566.8 897.3,571.7   "
   class="st12" />
	</g>
	<g
   id="g426">
		<ellipse
   id="ellipse424"
   ry="72.5"
   rx="47.6"
   cy="509.5"
   cx="763.1"
   class="st13" />
	</g>
	<g
   id="g430">
		<polygon
   id="polygon428"
   points="840.9,465.7 815.1,576.4 854.5,572   " />
	</g>
	<g
   id="g434">
		<path
   id="path432"
   d="M990.3,635.9c0,0,47.9-16.2,57.8-18.3c9.9-2.1,26.8-0.7,41.6,0c14.8,0.7,71.2,2.8,91.6,5.7    c20.4,2.8,40.9,12.8,40.9,12.8L990.3,635.9z"
   class="st1" />
	</g>
	<g
   id="g438">
		<path
   id="path436"
   d="M1052.5,524v41.8c0,10.3,10.3,36.3,47.9,31.8v26.7l-14.3,11.7l63.3-0.1l4.8-13.7V568c0,0,8.8-22.7,9.7-44    s-19.4-37.2-33.7-37.8c-17.2-0.5-34.4,0.2-51.5,1.9C1065.5,489.4,1052.5,500,1052.5,524z"
   class="st23" />
	</g>
	<g
   id="g442">
		<path
   id="path440"
   d="M1164.9,506c1-24.6-23.9-48-55-48.8s-57,21.6-57.7,50"
   class="st6" />
	</g>
	<g
   id="g446">
		
			<rect
   id="rect444"
   height="2.1"
   width="167"
   class="st6"
   transform="matrix(1 -2.094366e-03 2.094366e-03 1 -1.0574 2.3798)"
   y="505"
   x="1052.3" />
	</g>
	<g
   id="g450">
		<path
   id="path448"
   d="M1134.3,505l25.5-19.4c2,3.5,3.4,7.3,4.3,11.2c0.6,2.6,0.9,5.3,0.8,8L1134.3,505z"
   class="st13" />
	</g>
	<g
   id="g454">
		<path
   id="path452"
   d="M1051.9,508.9c-0.4,2.4,1,4.6,3.3,5.3c8.6,2.5,29,7.6,40,5.5c14.2-2.7,32.1-4.9,32.1-4.9v22.4    c0,5.2,2.7,7,5.2,7.3s3.6-1.5,3.9-6.7c0.3-5.2,0.3-20,13.9-17c13.6,3,8.2,39.4-12.4,35.8c0,0,3.7,25.5,10,29.4    c6.3,3.9,11.2,3.3,12.4-5.5c1.2-8.8,5.1-29.4,5.1-34.8c0-5.4-1.5-10.3,2.1-13s7-6.4,5.4-10.3c-1.6-3.9-2.4-7.6,2.4-7.6    c4.9,0,13,5.5,18.5,1.8s3-9.7,3-9.7l-144.7,0.1L1051.9,508.9z"
   class="st8" />
	</g>
	<g
   id="g458">
		<path
   id="path456"
   d="M891.7,439.7l196.6,78.6l1.2,0.5c14.2,4.8,10.9,39.4-1.1,40.2l0,0l-209.6,23.2L891.7,439.7z"
   class="st6" />
	</g>
	<g
   id="g462">
		<ellipse
   id="ellipse460"
   ry="72.5"
   rx="47.6"
   cy="509.5"
   cx="878.7"
   class="st13" />
	</g>
	<g
   id="g466">
		<path
   id="path464"
   d="M980.8,475.3c0,0,6.7,19.8,13.5,23.8s8.4,6.4,8.4,6.4v115.9h48.7V506.7c0-9.6,1.2-33.2-20-38.3    c-21.2-5.1-42.3-9.6-47.9-9.6h-10.4c0,0-10.3-4-15.5-2c-3.6,1.5-7.2,3.1-10.6,5L980.8,475.3z"
   class="st23" />
	</g>
	<g
   id="g470">
		<path
   id="path468"
   d="M908.5,446.4c0,0,12.7-6.1,17.9-6.7s7.8-0.8,10,1.1s0.9,7,0.9,7s3.8-0.1,5.3,1c0.9,0.7,1.7,1.5,2.2,2.5    c0,0,4.9-1.1,7.3,0c2.4,1.1,5.4,5.3,5.4,5.3l-10.6,5L908.5,446.4z"
   class="st23" />
	</g>
	<g
   id="g474"
   class="st16">
		<polygon
   id="polygon472"
   points="1100.4,597.7 1124.6,594.9 1100.4,609.5   "
   class="st12" />
	</g>
	<g
   id="g478"
   class="st16">
		<polygon
   id="polygon476"
   points="957.5,456.8 946.8,461.8 942.6,460.1   "
   class="st12" />
	</g>
	<g
   id="g494">
		<g
   id="g492">
			<g
   id="g490">
				<defs
   id="defs481">
					<ellipse
   ry="72.5"
   rx="47.6"
   cy="509.5"
   cx="763.1"
   id="SVGID_11_" />
				</defs>
				<clipPath
   id="SVGID_12_">
					<use
   id="use483"
   style="overflow:visible;"
   xlink:href="#SVGID_11_" />
				</clipPath>
				<g
   id="g488"
   clip-path="url(#SVGID_12_)"
   class="st24">
					<ellipse
   id="ellipse486"
   ry="72.5"
   rx="47.6"
   cy="509.5"
   cx="777.3"
   class="st5" />
				</g>
			</g>
		</g>
	</g>
	<g
   id="g510">
		<g
   id="g508">
			<g
   id="g506">
				<defs
   id="defs497">
					<ellipse
   ry="72.5"
   rx="47.6"
   cy="509.5"
   cx="878.7"
   id="SVGID_13_" />
				</defs>
				<clipPath
   id="SVGID_14_">
					<use
   id="use499"
   style="overflow:visible;"
   xlink:href="#SVGID_13_" />
				</clipPath>
				<g
   id="g504"
   clip-path="url(#SVGID_14_)"
   class="st25">
					<ellipse
   id="ellipse502"
   ry="72.5"
   rx="47.6"
   cy="509.5"
   cx="894.9"
   class="st5" />
				</g>
			</g>
		</g>
	</g>
	<g
   id="g514"
   class="st16">
		<polygon
   id="polygon512"
   points="937.2,447.9 926.4,453.5 929.7,454.9   "
   class="st12" />
	</g>
	<g
   id="g518"
   class="st16">
		<path
   id="path516"
   d="M980.8,475.3c0,0-10.2-7.2-13.1-6.8c-2,0.2-4-0.1-5.8-0.7L980.8,475.3z"
   class="st12" />
	</g>
	<g
   id="g522">
		<polygon
   id="polygon520"
   points="1086.1,635.9 1100.4,624.3 1100.4,618.1 1080.2,617.2   "
   class="st26" />
	</g>
	<g
   id="g566">
		<g
   id="g536">
			<g
   id="g534">
				<defs
   id="defs525">
					<ellipse
   ry="72.5"
   rx="47.6"
   cy="509.5"
   cx="878.7"
   id="SVGID_15_" />
				</defs>
				<clipPath
   id="SVGID_16_">
					<use
   id="use527"
   style="overflow:visible;"
   xlink:href="#SVGID_15_" />
				</clipPath>
				<g
   id="g532"
   clip-path="url(#SVGID_16_)"
   class="st27">
					<path
   id="path530"
   d="M921.6,477.6h-45.8c-6.8,0-12.9-0.4-14.9,3.2c-8,12-8.5,46.5-1.8,60.1c3.3,8.6,6.6,8.3,14.3,8.3       s45.2,0,45.2,0c0.4,0,17.9-13.3,18.1-38.5C937.1,491.9,921.7,477.5,921.6,477.6z"
   class="st4" />
				</g>
			</g>
		</g>
		<g
   id="g550">
			<g
   id="g548">
				<defs
   id="defs539">
					<ellipse
   ry="72.5"
   rx="47.6"
   cy="509.5"
   cx="878.7"
   id="SVGID_17_" />
				</defs>
				<clipPath
   id="SVGID_18_">
					<use
   id="use541"
   style="overflow:visible;"
   xlink:href="#SVGID_17_" />
				</clipPath>
				<g
   id="g546"
   clip-path="url(#SVGID_18_)"
   class="st28">
					<path
   id="path544"
   d="M919.4,471.5H868c-3.5,0-5.2-1.5-2.4-6.7c3.9-9,21.5-26.8,22.1-26.6c4.9,0.9,9.5,2.8,13.6,5.7       C908.1,448.6,914.4,457.1,919.4,471.5z"
   class="st4" />
				</g>
			</g>
		</g>
		<g
   id="g564">
			<g
   id="g562">
				<defs
   id="defs553">
					<ellipse
   ry="72.5"
   rx="47.6"
   cy="509.5"
   cx="878.7"
   id="SVGID_19_" />
				</defs>
				<clipPath
   id="SVGID_20_">
					<use
   id="use555"
   style="overflow:visible;"
   xlink:href="#SVGID_19_" />
				</clipPath>
				<g
   id="g560"
   clip-path="url(#SVGID_20_)"
   class="st29">
					<path
   id="path558"
   d="M886.9,581.1c-0.1,0-12-8.8-18.5-17.2c-5.4-7,0.3-8.5,4.2-8.5h43.1C914.6,555.1,911.5,574.4,886.9,581.1z"
   class="st4" />
				</g>
			</g>
		</g>
	</g>
	<g
   id="g610">
		<g
   id="g580">
			<g
   id="g578">
				<defs
   id="defs569">
					<ellipse
   ry="72.5"
   rx="47.6"
   cy="509.5"
   cx="763.1"
   id="SVGID_21_" />
				</defs>
				<clipPath
   id="SVGID_22_">
					<use
   id="use571"
   style="overflow:visible;"
   xlink:href="#SVGID_21_" />
				</clipPath>
				<g
   id="g576"
   clip-path="url(#SVGID_22_)"
   class="st30">
					<path
   id="path574"
   d="M805.9,477.6h-45.8c-6.8,0-13-0.4-14.9,3.2c-8,12-8.5,46.5-1.8,60.1c3.3,8.6,6.6,8.3,14.3,8.3       s45.2,0,45.2,0c0.4,0,11.8-13.1,11.9-38.3C815.2,492,806.1,477.6,805.9,477.6z"
   class="st4" />
				</g>
			</g>
		</g>
		<g
   id="g594">
			<g
   id="g592">
				<defs
   id="defs583">
					<ellipse
   ry="72.5"
   rx="47.6"
   cy="509.5"
   cx="763.1"
   id="SVGID_23_" />
				</defs>
				<clipPath
   id="SVGID_24_">
					<use
   id="use585"
   style="overflow:visible;"
   xlink:href="#SVGID_23_" />
				</clipPath>
				<g
   id="g590"
   clip-path="url(#SVGID_24_)"
   class="st31">
					<path
   id="path588"
   d="M803.7,471.6h-51.3c-3.5,0-5.2-1.5-2.5-6.7c3.9-9,21.5-26.8,22.1-26.6       C773.6,438.2,797.7,444.1,803.7,471.6z"
   class="st4" />
				</g>
			</g>
		</g>
		<g
   id="g608">
			<g
   id="g606">
				<defs
   id="defs597">
					<ellipse
   ry="72.5"
   rx="47.6"
   cy="509.5"
   cx="763.1"
   id="SVGID_25_" />
				</defs>
				<clipPath
   id="SVGID_26_">
					<use
   id="use599"
   style="overflow:visible;"
   xlink:href="#SVGID_25_" />
				</clipPath>
				<g
   id="g604"
   clip-path="url(#SVGID_26_)"
   class="st32">
					<path
   id="path602"
   d="M771,581.1c-0.1,0.1-12-8.7-18.5-17.2c-5.4-7,0.3-8.5,4.2-8.5h43.4C798.5,555.2,797.7,576.5,771,581.1z"
   class="st4" />
				</g>
			</g>
		</g>
	</g>
	<g
   id="g614">
		<path
   id="path612"
   d="M754.7,513.5H797c0,0-1.7,18-21.1,18.1C754.7,531.6,754.7,513.5,754.7,513.5z"
   class="st2" />
	</g>
	<g
   id="g618">
		<path
   id="path616"
   d="M887.7,536.2c-0.2,0-0.4-0.2-0.5-0.4l-6.3-30.1c0-0.2,0-0.3,0.1-0.5l9.3-9.3l-4.4-2.9    c-0.2-0.1-0.3-0.4-0.2-0.6s0.3-0.4,0.5-0.4h17.4l0,0c0.2,0,0.4,0.1,0.5,0.4c0.1,0.2,0,0.4-0.2,0.6l-4.4,2.9l9.3,9.3    c0.1,0.1,0.2,0.3,0.1,0.5l-6.3,30.1c0,0.2-0.3,0.4-0.5,0.4H887.7L887.7,536.2z M881.9,505.8l6.2,29.4h13.7l6.1-29.5l-9.5-9.5    c-0.1-0.1-0.2-0.3-0.1-0.4c0-0.1,0.1-0.3,0.2-0.4l3.5-2.3h-14.1l3.5,2.3c0.1,0.1,0.2,0.2,0.2,0.4c0,0.1,0,0.3-0.1,0.4L881.9,505.8    z"
   class="st2" />
	</g>
	<g
   id="g622">
		<path
   id="path620"
   d="M833.4,531.5l85.9-59.9c0,0-11.3-39.8-47.3-32.8C834.9,446,826.1,510,833.4,531.5z"
   class="st5" />
	</g>
	<g
   id="g626">
		<path
   id="path624"
   d="M717.9,531.4l85.9-59.9c0,0-11.3-39.8-47.3-32.8C719.4,445.9,710.6,509.9,717.9,531.4z"
   class="st5" />
	</g>
	<g
   id="g630">
		<path
   id="path628"
   d="M763.1,583.6c-27.1,0-49.1-33.2-49-74c0-40.8,22.1-74,49.2-74s49.1,33.2,49,74    C812.2,550.5,790.2,583.7,763.1,583.6z M763.2,438.5c-25.4,0-46.1,31.9-46.1,71s20.7,71,46.1,71c25.4,0,46.1-31.9,46.1-71    C809.3,470.5,788.6,438.5,763.2,438.5z"
   class="st4" />
	</g>
	<g
   id="g634">
		<path
   id="path632"
   d="M878.7,583.6c-27.1,0-49.1-33.2-49-74c0-40.8,22.1-74,49.2-74s49.1,33.2,49,74S905.8,583.6,878.7,583.6z     M878.8,438.5c-25.4,0-46.1,31.9-46.1,71s20.7,71,46.1,71c25.4,0,46.1-31.9,46.1-71S904.2,438.5,878.8,438.5z"
   class="st4" />
	</g>
	<g
   id="g638">
		<polygon
   id="polygon636"
   points="1002.6,505.5 991.1,569.7 1002.6,568.4   " />
	</g>
	<g
   id="g642"
   class="st16">
		<path
   id="path640"
   d="M1142.5,544.8c-0.1,0-0.2,0-0.2-0.1c-0.2-0.1-0.3-0.4-0.2-0.7l7.2-12.4c0.1-0.2,0.4-0.3,0.7-0.2    c0.2,0.1,0.3,0.4,0.2,0.7l-7.2,12.4C1142.9,544.7,1142.7,544.8,1142.5,544.8z"
   class="st12" />
	</g>
	<g
   id="g646">
		<rect
   id="rect644"
   height="56.7"
   width="64.4"
   class="st1"
   y="579.1"
   x="987.6" />
	</g>
	<g
   id="g650">
		<rect
   id="rect648"
   height="50.6"
   width="65"
   class="st26"
   y="585"
   x="887.9" />
	</g>
	<g
   id="g654">
		<polygon
   id="polygon652"
   points="505.2,768.8 1327.1,789.8 1332.1,768.7   "
   class="st3" />
	</g>
	<g
   id="g658">
		<path
   id="path656"
   d="M495,552.9c9.6,8.9,10.3,23.7,10.3,23.7s-14.8,0.4-24.4-8.5s-10.3-23.7-10.3-23.7S485.4,544,495,552.9z"
   class="st1" />
	</g>
	<g
   id="g662">
		<circle
   id="circle660"
   r="3.5"
   cy="609"
   cx="438.5"
   class="st0" />
	</g>
	<g
   id="g666">
		<circle
   id="circle664"
   r="8.4"
   cy="819"
   cx="380.1"
   class="st0" />
	</g>
	<g
   id="g670">
		<path
   id="path668"
   d="M1367.3,761.6c-1,4.2-4.7,7.1-9,7.1l-873.2,0.2c-36.7,0-66.5-29.7-66.6-66.4l0,0    c0.1-36.7,29.8-66.4,66.5-66.6l901.3-0.2c5.2,0,9.3,4.2,9.3,9.3c0,0.7-0.1,1.5-0.3,2.2L1367.3,761.6z"
   class="st0" />
	</g>
	<g
   id="SVGID-6">
		<path
   id="path672"
   d="M791,749.9l-307.6-0.2l2.5-100.2l305.2,0.2c30,0,54.4,22.4,54.4,50.1l0,0C845.4,727.5,821.1,749.9,791,749.9z    "
   class="st0" />
	</g>
	<g
   id="g677">
		<circle
   id="circle675"
   r="64.2"
   cy="699.5"
   cx="485.6"
   class="st0" />
	</g>
	<g
   id="g681">
		<circle
   id="circle679"
   r="50.1"
   cy="699.5"
   cx="485.6"
   class="st2" />
	</g>
	<g
   id="g685">
		<path
   id="path683"
   d="M504.8,729.7L462,704.9v-24.4h34.1l8.7,25.9L504.8,729.7z M463.3,704.1l40.3,23.3v-21l-8.4-24.7h-31.9V704.1z    "
   class="st6" />
	</g>
	<g
   id="g689">
		
			<rect
   id="rect687"
   height="48.6"
   width="1.3"
   class="st6"
   transform="matrix(0.52 -0.8542 0.8542 0.52 -360.3829 745.8287)"
   y="669.3"
   x="482.8" />
	</g>
	<g
   id="g693">
		
			<rect
   id="rect691"
   height="48.3"
   width="1.3"
   class="st6"
   transform="matrix(0.5096 -0.8604 0.8604 0.5096 -368.969 761.3732)"
   y="680.2"
   x="482.8" />
	</g>
	<g
   id="g697">
		<path
   id="path695"
   d="M466.9,678.9c-2.4,0-4.4-2-4.4-4.4s2-4.4,4.4-4.4s4.4,2,4.4,4.4l0,0C471.3,677,469.4,678.9,466.9,678.9z     M466.9,671.4c-1.7,0-3.1,1.4-3.1,3.1c0,1.7,1.4,3.1,3.1,3.1s3.1-1.4,3.1-3.1l0,0C470.1,672.8,468.7,671.4,466.9,671.4z"
   class="st6" />
	</g>
	<g
   id="g701">
		<path
   id="path699"
   d="M480,678.9c-2.4,0-4.4-2-4.4-4.4s2-4.4,4.4-4.4s4.4,2,4.4,4.4l0,0C484.4,677,482.4,678.9,480,678.9z     M480,671.4c-1.7,0-3.1,1.4-3.1,3.1c0,1.7,1.4,3.1,3.1,3.1s3.1-1.4,3.1-3.1l0,0C483.1,672.8,481.7,671.4,480,671.4L480,671.4z"
   class="st6" />
	</g>
	<g
   id="g705">
		<path
   id="path703"
   d="M484.4,691.1c-2.4,0-4.4-2-4.4-4.4s2-4.4,4.4-4.4s4.4,2,4.4,4.4l0,0C488.8,689.1,486.8,691.1,484.4,691.1z     M484.4,683.5c-1.7,0-3.1,1.4-3.1,3.1c0,1.7,1.4,3.1,3.1,3.1s3.1-1.4,3.1-3.1S486.1,683.5,484.4,683.5z"
   class="st6" />
	</g>
	<g
   id="g709">
		<circle
   id="circle707"
   r="3.8"
   cy="686.7"
   cx="497.9"
   class="st2" />
	</g>
	<g
   id="g713">
		<path
   id="path711"
   d="M497.9,691.1c-2.4,0-4.4-2-4.4-4.4s2-4.4,4.4-4.4s4.4,2,4.4,4.4l0,0C502.3,689.1,500.4,691.1,497.9,691.1z     M497.9,683.5c-1.7,0-3.1,1.4-3.1,3.1c0,1.7,1.4,3.1,3.1,3.1s3.1-1.4,3.1-3.1C501.1,684.9,499.7,683.5,497.9,683.5z"
   class="st6" />
	</g>
	<g
   id="g717">
		<circle
   id="circle715"
   r="3.8"
   cy="699.6"
   cx="504.2"
   class="st2" />
	</g>
	<g
   id="g721">
		<path
   id="path719"
   d="M504.2,704c-2.4,0-4.4-2-4.4-4.4s2-4.4,4.4-4.4s4.4,2,4.4,4.4l0,0C508.6,702,506.6,704,504.2,704z     M504.2,696.5c-1.7,0-3.1,1.4-3.1,3.1s1.4,3.1,3.1,3.1s3.1-1.4,3.1-3.1S505.9,696.5,504.2,696.5    C504.2,696.4,504.2,696.4,504.2,696.5L504.2,696.5z"
   class="st6" />
	</g>
	<g
   id="g725">
		<path
   id="path723"
   d="M493,678.9c-2.4,0-4.4-2-4.4-4.4s2-4.4,4.4-4.4s4.4,2,4.4,4.4l0,0C497.4,677,495.4,678.9,493,678.9z     M493,671.4c-1.7,0-3.1,1.4-3.1,3.1s1.4,3.1,3.1,3.1s3.1-1.4,3.1-3.1l0,0C496.1,672.8,494.7,671.4,493,671.4z"
   class="st6" />
	</g>
	<g
   id="g729">
		<path
   id="path727"
   d="M486.1,768.8c-38.5,0-69.7-31.2-69.7-69.7s31.2-69.7,69.7-69.7s69.7,31.2,69.7,69.7l0,0    C555.8,737.7,524.6,768.9,486.1,768.8z M486.1,637.1c-34.2,0-62,27.8-62,62s27.8,62,62,62s62-27.8,62-62    C548.1,665,520.4,637.2,486.1,637.1z"
   class="st33" />
	</g>
	<g
   id="g733">
		<path
   id="path731"
   d="M553.9,818.7l-36-62l6.7-3.9l36,62c1.1,1.8,0.4,4.2-1.4,5.3l0,0l0,0C557.4,821.2,555,820.6,553.9,818.7    C554,818.7,554,818.7,553.9,818.7z"
   class="st33" />
	</g>
	<g
   id="g737">
		
			<rect
   id="rect735"
   height="1"
   width="77.5"
   class="st33"
   transform="matrix(0.4067 -0.9136 0.9136 0.4067 -286.2486 959.0284)"
   y="699.4"
   x="556.5" />
	</g>
	<g
   id="g741">
		
			<rect
   id="rect739"
   height="1"
   width="77.5"
   class="st33"
   transform="matrix(0.4067 -0.9136 0.9136 0.4067 -274.4396 977.2621)"
   y="699.4"
   x="576.4" />
	</g>
	<g
   id="g747">
		<circle
   id="circle743"
   r="1.8"
   cy="685.5"
   cx="575.6"
   class="st33" />
		<path
   id="path745"
   d="M575.6,687.8c-1.2,0-2.2-1-2.2-2.2s1-2.2,2.2-2.2s2.2,1,2.2,2.2S576.9,687.8,575.6,687.8z M575.6,684.3    c-0.7,0-1.2,0.6-1.2,1.2c0,0.6,0.6,1.2,1.2,1.2c0.6,0,1.2-0.6,1.2-1.2C576.8,684.9,576.3,684.3,575.6,684.3z"
   class="st33" />
	</g>
	<g
   id="g753">
		<circle
   id="circle749"
   r="1.8"
   cy="712.6"
   cx="575.6"
   class="st33" />
		<path
   id="path751"
   d="M575.6,714.9c-1.2,0-2.2-1-2.2-2.2s1-2.2,2.2-2.2s2.2,1,2.2,2.2S576.9,714.9,575.6,714.9z M575.6,711.4    c-0.7,0-1.2,0.6-1.2,1.2c0,0.6,0.6,1.2,1.2,1.2c0.6,0,1.2-0.6,1.2-1.2S576.3,711.4,575.6,711.4z"
   class="st33" />
	</g>
	<g
   id="g757">
		
			<ellipse
   id="ellipse755"
   ry="28.9"
   rx="36.4"
   cy="643.9"
   cx="1386.8"
   class="st1"
   transform="matrix(0.747 -0.6649 0.6649 0.747 -77.1751 1084.9847)" />
	</g>
	<g
   id="g761">
		<path
   id="path759"
   d="M1381.3,660.8l-9.6-12.8c-0.5-0.6-0.4-1.5,0.3-2c0.6-0.5,1.5-0.4,2,0.3l7.4,9.8l23.9-29    c0.5-0.6,1.4-0.7,2-0.2s0.7,1.4,0.2,2L1381.3,660.8z"
   class="st2" />
	</g>
	<g
   id="g765">
		
			<ellipse
   id="ellipse763"
   ry="21.6"
   rx="27.2"
   cy="702"
   cx="1311.2"
   class="st10"
   transform="matrix(0.747 -0.6649 0.6649 0.747 -134.9386 1049.3783)" />
	</g>
	<g
   id="g769">
		<path
   id="path767"
   d="M1220.9,727.2l-545.2-0.4c-13.1,0-23.6-10.6-23.6-23.7c0-1.8,0.2-3.6,0.6-5.3l0,0c2.5-10.7,12-18.3,23-18.3    l545.2,0.4c13.1,0,23.7,10.6,23.7,23.7c0,1.8-0.2,3.6-0.6,5.3l0,0C1241.4,719.6,1231.9,727.2,1220.9,727.2z"
   class="st2" />
	</g>
	<g
   id="g773">
		<rect
   id="rect771"
   height="1.2"
   width="512.6"
   class="st7"
   y="702.6"
   x="690.6" />
	</g>
</g>
</svg>
