<?xml version="1.0" encoding="UTF-8"?>
<svg width="100" height="100" version="1.1" viewBox="0 0 26.458 26.458" xmlns="http://www.w3.org/2000/svg" xmlns:cc="http://creativecommons.org/ns#" xmlns:dc="http://purl.org/dc/elements/1.1/" xmlns:rdf="http://www.w3.org/1999/02/22-rdf-syntax-ns#">
 <metadata>
  <rdf:RDF>
   <cc:Work rdf:about="">
    <dc:format>image/svg+xml</dc:format>
    <dc:type rdf:resource="http://purl.org/dc/dcmitype/StillImage"/>
    <dc:title/>
   </cc:Work>
  </rdf:RDF>
 </metadata>
 <path d="m6.1585 2.9612c-0.9319 3.0642-0.34231 6.5519 1.545 9.1395 1.8874 2.5876 5.0282 4.2144 8.2306 4.2632 2.4573 0.03738 4.9476-0.85197 6.7122-2.5625 0.8823-0.85524 1.5786-1.9049 2.0025-3.0582s0.57308-2.4094 0.40896-3.6271c-0.16412-1.2178-0.64342-2.3945-1.3945-3.367s-1.774-1.7365-2.9274-2.1602c-1.1534-0.42366-2.4343-0.50263-3.6259-0.20264-1.1916 0.29999-2.2876 0.98079-3.0679 1.93-0.62078 0.75512-1.0356 1.6617-1.3258 2.5952-0.29019 0.93346-0.46131 1.899-0.63951 2.8601s-0.36522 1.9248-0.6855 2.8484-0.78031 1.8116-1.4487 2.525c-0.94141 1.0048-2.2947 1.6205-3.6715 1.6361-1.3768 0.015607-2.7559-0.57878-3.665-1.6129s-1.3219-2.4945-1.0561-3.8455c0.26581-1.351 1.2153-2.5563 2.4799-3.101 0.72093-0.31053 1.5267-0.41045 2.3061-0.31784 0.77948 0.092607 1.5322 0.37457 2.1988 0.78911 1.3332 0.82908 2.296 2.1649 2.9056 3.6117 1.0373 2.4616 1.1202 5.2314 2.0576 7.7327 0.46868 1.2507 1.1673 2.4434 2.1899 3.3024 0.51132 0.42953 1.1001 0.77082 1.7364 0.97357 0.63627 0.20275 1.3204 0.26476 1.9785 0.15134 0.67833-0.11691 1.3217-0.41988 1.8538-0.8566s0.95276-1.0053 1.229-1.6357c0.55252-1.2609 0.50742-2.7464-0.01535-4.0199-0.52277-1.2735-1.4976-2.3367-2.6615-3.0719-1.1639-0.73526-2.5097-1.1544-3.8747-1.3332-3.2243-0.42224-6.6054 0.52227-9.1441 2.5544-2.5387 2.0322-4.2005 5.1244-4.4945 8.3629" fill="none" stroke="#000" stroke-linecap="round" stroke-width="2.0868"/>
</svg>
