<?xml version="1.0" encoding="UTF-8" standalone="no"?>
<svg
   xmlns:dc="http://purl.org/dc/elements/1.1/"
   xmlns:cc="http://creativecommons.org/ns#"
   xmlns:rdf="http://www.w3.org/1999/02/22-rdf-syntax-ns#"
   xmlns:svg="http://www.w3.org/2000/svg"
   xmlns="http://www.w3.org/2000/svg"
   xmlns:sodipodi="http://sodipodi.sourceforge.net/DTD/sodipodi-0.dtd"
   xmlns:inkscape="http://www.inkscape.org/namespaces/inkscape"
   inkscape:version="1.0 (4035a4fb49, 2020-05-01)"
   sodipodi:docname="swigle-logo-4.svg"
   id="svg20"
   viewBox="0 0 111.12 26.458"
   version="1.1"
   height="100"
   width="420">
  <defs
     id="defs24" />
  <sodipodi:namedview
     inkscape:current-layer="svg20"
     inkscape:window-maximized="0"
     inkscape:window-y="0"
     inkscape:window-x="0"
     inkscape:cy="113.57616"
     inkscape:cx="-168.27815"
     inkscape:zoom="0.62916667"
     showgrid="false"
     id="namedview22"
     inkscape:window-height="967"
     inkscape:window-width="1747"
     inkscape:pageshadow="2"
     inkscape:pageopacity="0"
     guidetolerance="10"
     gridtolerance="10"
     objecttolerance="10"
     borderopacity="1"
     bordercolor="#666666"
     pagecolor="#ffffff" />
  <metadata
     id="metadata2">
    <rdf:RDF>
      <cc:Work
         rdf:about="">
        <dc:format>image/svg+xml</dc:format>
        <dc:type
           rdf:resource="http://purl.org/dc/dcmitype/StillImage" />
        <dc:title></dc:title>
      </cc:Work>
    </rdf:RDF>
  </metadata>
  <rect
     id="rect4"
     stroke-width="1.6669"
     stroke-linecap="round"
     fill-opacity="0"
     height="20.108"
     width="77.787"
     y="-98.425"
     x="-114.3" />
  <rect
     id="rect6"
     stroke-width="1.6669"
     stroke-linecap="round"
     fill-opacity=".32932"
     fill="#fff"
     height="5.2917"
     width="3.175"
     y="-96.838"
     x="-65.617" />
  <g
     style="font-style:normal;font-variant:normal;font-weight:bold;font-stretch:normal;font-size:24.8098px;line-height:1.25;font-family:Calibri;-inkscape-font-specification:'Calibri, Bold';font-variant-ligatures:normal;font-variant-caps:normal;font-variant-numeric:normal;font-variant-east-asian:normal;fill:#005bc4;stroke-width:0.372141;fill-opacity:1"
     id="text18"
     aria-label="Swigle">
    <path
       id="path26"
       style="font-style:normal;font-variant:normal;font-weight:bold;font-stretch:normal;font-size:24.8098px;font-family:Calibri;-inkscape-font-specification:'Calibri, Bold';font-variant-ligatures:normal;font-variant-caps:normal;font-variant-numeric:normal;font-variant-east-asian:normal;fill:#005bc4;stroke-width:0.372141;fill-opacity:1"
       d="m 42.087685,17.106511 q 0,1.235644 -0.460338,2.168434 -0.460338,0.932791 -1.247759,1.562727 -0.78742,0.617822 -1.841352,0.93279 -1.053932,0.314968 -2.253234,0.314968 -0.811648,0 -1.514269,-0.133255 -0.690508,-0.133256 -1.223531,-0.314969 -0.533023,-0.193826 -0.896447,-0.399767 -0.351311,-0.205941 -0.508795,-0.363425 -0.157484,-0.157484 -0.230169,-0.448224 -0.06057,-0.302854 -0.06057,-0.860105 0,-0.375539 0.02423,-0.629936 0.02423,-0.254398 0.07268,-0.411882 0.06057,-0.157484 0.14537,-0.218055 0.09691,-0.07268 0.218055,-0.07268 0.169598,0 0.472452,0.20594 0.314968,0.193827 0.799535,0.43611 0.484566,0.242283 1.150845,0.448224 0.678393,0.193826 1.562727,0.193826 0.581479,0 1.041817,-0.133255 0.460338,-0.14537 0.775307,-0.399768 0.327082,-0.254397 0.49668,-0.629936 0.169598,-0.375539 0.169598,-0.835877 0,-0.533023 -0.290739,-0.908562 -0.29074,-0.387653 -0.763192,-0.678393 -0.460339,-0.302854 -1.053932,-0.557251 -0.593594,-0.266512 -1.223531,-0.557252 -0.629936,-0.290739 -1.22353,-0.654164 -0.593593,-0.375539 -1.066046,-0.884334 -0.460338,-0.520909 -0.751078,-1.22353 -0.290739,-0.702621 -0.290739,-1.683868 0,-1.126617 0.411881,-1.9746082 0.423996,-0.8601053 1.126617,-1.4173567 0.714735,-0.5693655 1.671754,-0.8479912 0.969133,-0.2786257 2.047293,-0.2786257 0.557251,0 1.114503,0.084799 0.557251,0.084799 1.041817,0.230169 0.484567,0.1453699 0.860106,0.3270823 0.375539,0.1817124 0.49668,0.302854 0.121142,0.1211416 0.157484,0.2059407 0.04846,0.084799 0.07268,0.2301691 0.03634,0.1332557 0.04846,0.3513106 0.01211,0.2059407 0.01211,0.5209089 0,0.3513106 -0.02423,0.5935938 -0.01211,0.2422832 -0.06057,0.3997673 -0.03634,0.157484 -0.121142,0.230169 -0.07268,0.072685 -0.20594,0.072685 -0.133256,0 -0.423996,-0.1695983 Q 40.052506,9.0627086 39.628511,8.868882 39.204515,8.6629413 38.647264,8.5054572 38.090012,8.335859 37.423734,8.335859 q -0.520909,0 -0.908562,0.1332558 -0.387654,0.1211416 -0.654165,0.3513106 -0.254397,0.2180549 -0.387653,0.533023 -0.121142,0.3149682 -0.121142,0.6662786 0,0.520909 0.278626,0.908562 0.29074,0.375539 0.763192,0.678393 0.484566,0.29074 1.090274,0.557251 0.605708,0.254398 1.235645,0.545138 0.629936,0.29074 1.235644,0.666278 0.605708,0.363425 1.07816,0.884334 0.472452,0.508795 0.763192,1.211416 0.29074,0.690507 0.29074,1.635412 z" />
    <path
       id="path28"
       style="font-style:normal;font-variant:normal;font-weight:bold;font-stretch:normal;font-size:24.8098px;font-family:Calibri;-inkscape-font-specification:'Calibri, Bold';font-variant-ligatures:normal;font-variant-caps:normal;font-variant-numeric:normal;font-variant-east-asian:normal;fill:#005bc4;stroke-width:0.372141;fill-opacity:1"
       d="m 60.634464,10.564864 q 0,0.133256 -0.03634,0.327083 -0.03634,0.193826 -0.133256,0.557251 l -2.88317,9.776127 q -0.06057,0.205941 -0.157484,0.339196 -0.09691,0.121142 -0.302854,0.193827 -0.193826,0.07268 -0.569365,0.09691 -0.363425,0.02423 -0.957019,0.02423 -0.593594,0 -0.969133,-0.03634 -0.375539,-0.02423 -0.593594,-0.09691 -0.20594,-0.07268 -0.302854,-0.193827 -0.09691,-0.133255 -0.145369,-0.327082 l -1.817124,-6.565875 -0.02423,-0.109027 -0.02423,0.109027 -1.671754,6.565875 q -0.04846,0.205941 -0.14537,0.339196 -0.0848,0.121142 -0.302854,0.193827 -0.218055,0.07268 -0.593594,0.09691 -0.375539,0.02423 -0.969133,0.02423 -0.605708,0 -0.981247,-0.03634 -0.363424,-0.02423 -0.581479,-0.09691 -0.205941,-0.07268 -0.302854,-0.193827 -0.09691,-0.133255 -0.14537,-0.327082 l -2.858942,-9.776127 q -0.109027,-0.351311 -0.14537,-0.545137 -0.02423,-0.205941 -0.02423,-0.339197 0,-0.121141 0.06057,-0.20594 0.07268,-0.09691 0.242283,-0.14537 0.181712,-0.06057 0.472452,-0.0848 0.302854,-0.02423 0.751078,-0.02423 0.484566,0 0.78742,0.02423 0.302854,0.02423 0.472453,0.0848 0.169598,0.06057 0.230169,0.169598 0.07268,0.09691 0.109027,0.242283 l 2.144206,7.934775 0.02423,0.14537 0.02423,-0.14537 2.010951,-7.934775 q 0.03634,-0.14537 0.109027,-0.242283 0.0848,-0.109027 0.242283,-0.169598 0.157484,-0.06057 0.43611,-0.0848 0.29074,-0.02423 0.738964,-0.02423 0.448224,0 0.726849,0.03634 0.278626,0.02423 0.43611,0.0848 0.169598,0.04846 0.230169,0.14537 0.07268,0.0848 0.109028,0.205941 l 2.15632,7.995345 0.03634,0.133256 0.02423,-0.14537 2.059407,-7.934775 q 0.02423,-0.14537 0.09691,-0.242283 0.07268,-0.109027 0.242283,-0.169598 0.169599,-0.06057 0.460338,-0.0848 0.29074,-0.02423 0.738964,-0.02423 0.448224,0 0.72685,0.02423 0.29074,0.02423 0.448224,0.0848 0.169598,0.04846 0.230169,0.14537 0.06057,0.0848 0.06057,0.20594 z" />
    <path
       id="path30"
       style="font-style:normal;font-variant:normal;font-weight:bold;font-stretch:normal;font-size:24.8098px;font-family:Calibri;-inkscape-font-specification:'Calibri, Bold';font-variant-ligatures:normal;font-variant-caps:normal;font-variant-numeric:normal;font-variant-east-asian:normal;fill:#005bc4;stroke-width:0.372141;fill-opacity:1"
       d="m 65.66184,21.394923 q 0,0.121142 -0.07268,0.218055 -0.07269,0.0848 -0.254398,0.14537 -0.169598,0.06057 -0.460338,0.0848 -0.290739,0.03634 -0.738963,0.03634 -0.448224,0 -0.738964,-0.03634 -0.29074,-0.02423 -0.472452,-0.0848 -0.169599,-0.06057 -0.242284,-0.14537 -0.07268,-0.09691 -0.07268,-0.218055 V 10.613321 q 0,-0.121142 0.07268,-0.205941 0.07268,-0.09691 0.242284,-0.157484 0.181712,-0.07268 0.472452,-0.109027 0.29074,-0.03634 0.738964,-0.03634 0.448224,0 0.738963,0.03634 0.29074,0.03634 0.460338,0.109027 0.181713,0.06057 0.254398,0.157484 0.07268,0.0848 0.07268,0.205941 z M 65.892009,6.9306165 q 0,0.9206761 -0.375539,1.2719867 -0.375539,0.3513107 -1.393129,0.3513107 -1.029703,0 -1.393128,-0.3391965 -0.351311,-0.3391965 -0.351311,-1.2235301 0,-0.9206762 0.363425,-1.2719868 0.375539,-0.3634248 1.405243,-0.3634248 1.017589,0 1.381014,0.3513106 0.363425,0.3391965 0.363425,1.2235302 z" />
    <path
       id="path32"
       style="font-style:normal;font-variant:normal;font-weight:bold;font-stretch:normal;font-size:24.8098px;font-family:Calibri;-inkscape-font-specification:'Calibri, Bold';font-variant-ligatures:normal;font-variant-caps:normal;font-variant-numeric:normal;font-variant-east-asian:normal;fill:#005bc4;stroke-width:0.372141;fill-opacity:1"
       d="m 78.454393,11.340171 q 0,0.581479 -0.133255,0.860105 -0.133256,0.278626 -0.327083,0.278626 h -1.271986 q 0.266511,0.290739 0.375538,0.666278 0.121142,0.363425 0.121142,0.763192 0,0.944905 -0.314968,1.683869 -0.314968,0.726849 -0.908562,1.235644 -0.58148,0.496681 -1.417357,0.763192 -0.823763,0.254397 -1.841352,0.254397 -0.520909,0 -0.993361,-0.121141 -0.472452,-0.133256 -0.72685,-0.302854 -0.14537,0.157484 -0.266511,0.375539 -0.109028,0.218055 -0.109028,0.484566 0,0.351311 0.302854,0.58148 0.314968,0.218055 0.87222,0.242283 l 2.628772,0.09691 q 0.920677,0.03634 1.635412,0.266512 0.72685,0.218055 1.211416,0.629936 0.496681,0.399767 0.751078,0.969133 0.266511,0.569365 0.266511,1.296215 0,0.799535 -0.35131,1.502156 -0.351311,0.714735 -1.053932,1.235644 -0.702621,0.520909 -1.768667,0.823763 -1.053932,0.302854 -2.471289,0.302854 -1.381014,0 -2.362261,-0.218055 -0.969133,-0.218055 -1.599069,-0.605708 -0.617822,-0.387653 -0.908562,-0.93279 -0.278626,-0.533023 -0.278626,-1.175074 0,-0.399767 0.09691,-0.763192 0.109028,-0.363425 0.302854,-0.702621 0.205941,-0.327082 0.496681,-0.629936 0.29074,-0.302854 0.666279,-0.58148 -0.520909,-0.278626 -0.811649,-0.751078 -0.278626,-0.484566 -0.278626,-1.053932 0,-0.714735 0.327083,-1.296215 0.327082,-0.593594 0.847991,-1.066046 -0.423996,-0.423996 -0.678393,-1.017589 -0.254397,-0.593594 -0.254397,-1.477928 0,-0.944904 0.327082,-1.683868 0.339196,-0.751078 0.93279,-1.259873 0.593594,-0.520909 1.417357,-0.78742 0.823763,-0.2786258 1.817124,-0.2786258 0.508795,0 0.969133,0.060571 0.472452,0.06057 0.872219,0.169598 h 3.428307 q 0.205941,0 0.327083,0.266512 0.133255,0.266511 0.133255,0.896448 z m -3.912873,2.556087 q 0,-0.872219 -0.484567,-1.356786 -0.484566,-0.484566 -1.3689,-0.484566 -0.448224,0 -0.78742,0.157484 -0.339197,0.14537 -0.569366,0.411882 -0.218054,0.254397 -0.327082,0.605708 -0.109027,0.339196 -0.109027,0.714735 0,0.823763 0.484566,1.308329 0.484566,0.472452 1.344672,0.472452 0.460338,0 0.799534,-0.145369 0.339197,-0.14537 0.557252,-0.399768 0.230169,-0.254397 0.339196,-0.581479 0.121142,-0.339197 0.121142,-0.702622 z m 0.714735,8.625282 q 0,-0.545137 -0.43611,-0.835877 -0.436109,-0.29074 -1.199301,-0.314968 l -2.168435,-0.06057 q -0.314968,0.230169 -0.508795,0.448224 -0.181712,0.205941 -0.302854,0.399767 -0.109027,0.193827 -0.14537,0.375539 -0.03634,0.181713 -0.03634,0.375539 0,0.605708 0.605708,0.920676 0.617822,0.314968 1.732325,0.314968 0.690507,0 1.162959,-0.145369 0.472452,-0.133256 0.763192,-0.363425 0.29074,-0.230169 0.411882,-0.520909 0.121141,-0.278626 0.121141,-0.593594 z" />
    <path
       id="path34"
       style="font-style:normal;font-variant:normal;font-weight:bold;font-stretch:normal;font-size:24.8098px;font-family:Calibri;-inkscape-font-specification:'Calibri, Bold';font-variant-ligatures:normal;font-variant-caps:normal;font-variant-numeric:normal;font-variant-east-asian:normal;fill:#005bc4;stroke-width:0.372141;fill-opacity:1"
       d="m 83.542341,21.394923 q 0,0.121142 -0.07268,0.218055 -0.07269,0.0848 -0.254398,0.14537 -0.169598,0.06057 -0.460338,0.0848 -0.29074,0.03634 -0.738964,0.03634 -0.448223,0 -0.738963,-0.03634 -0.29074,-0.02423 -0.472453,-0.0848 -0.169598,-0.06057 -0.242283,-0.14537 -0.07269,-0.09691 -0.07269,-0.218055 V 5.4648031 q 0,-0.1211416 0.07269,-0.2180548 0.07268,-0.096913 0.242283,-0.1574841 0.181713,-0.072685 0.472453,-0.1090275 0.29074,-0.036342 0.738963,-0.036342 0.448224,0 0.738964,0.036342 0.29074,0.036342 0.460338,0.1090275 0.181713,0.060571 0.254398,0.1574841 0.07268,0.096913 0.07268,0.2180548 z" />
    <path
       id="path36"
       style="font-style:normal;font-variant:normal;font-weight:bold;font-stretch:normal;font-size:24.8098px;font-family:Calibri;-inkscape-font-specification:'Calibri, Bold';font-variant-ligatures:normal;font-variant-caps:normal;font-variant-numeric:normal;font-variant-east-asian:normal;fill:#005bc4;stroke-width:0.372141;fill-opacity:1"
       d="m 96.577177,15.67704 q 0,0.557251 -0.254397,0.823763 -0.242283,0.266511 -0.678393,0.266511 h -6.577989 q 0,0.690507 0.157484,1.259873 0.169599,0.557251 0.520909,0.957018 0.363425,0.387654 0.920676,0.593594 0.569366,0.205941 1.356786,0.205941 0.799535,0 1.405243,-0.109027 0.605708,-0.121142 1.041818,-0.254398 0.448223,-0.14537 0.738963,-0.254397 0.29074,-0.121142 0.472453,-0.121142 0.109027,0 0.181712,0.04846 0.07268,0.03634 0.121142,0.14537 0.04846,0.109027 0.06057,0.314968 0.02423,0.193826 0.02423,0.49668 0,0.266512 -0.01211,0.460339 -0.01211,0.181712 -0.03634,0.314968 -0.02423,0.133255 -0.07268,0.230169 -0.04846,0.0848 -0.133256,0.169598 -0.07269,0.0848 -0.423995,0.230169 -0.351311,0.14537 -0.896448,0.29074 -0.545137,0.133256 -1.247759,0.230169 -0.702621,0.109027 -1.502155,0.109027 -1.441585,0 -2.53186,-0.363424 -1.07816,-0.363425 -1.80501,-1.102389 -0.726849,-0.738964 -1.090274,-1.865581 -0.351311,-1.126616 -0.351311,-2.640886 0,-1.441585 0.375539,-2.592431 0.375539,-1.162959 1.090275,-1.962494 0.714735,-0.811648 1.732325,-1.235644 1.029703,-0.4239954 2.313804,-0.4239954 1.356786,0 2.313805,0.3997674 0.969132,0.399767 1.586955,1.114503 0.617822,0.702621 0.908562,1.671754 0.290739,0.969132 0.290739,2.107863 z m -2.955855,-0.87222 q 0.03634,-1.284101 -0.520908,-2.01095 -0.545138,-0.738964 -1.695983,-0.738964 -0.58148,0 -1.017589,0.218055 -0.423996,0.218055 -0.714736,0.593594 -0.278625,0.363425 -0.436109,0.872219 -0.14537,0.496681 -0.169599,1.066046 z" />
  </g>
  <path
     style="stroke-width:2.57436;stroke-linecap:round;stroke-miterlimit:4;stroke-dasharray:none;stroke:#ffb000;stroke-opacity:1"
     d="m 10.996164,5.2750994 c -0.46727,1.447 -0.56242,3.0124996 -0.27384,4.5053996 0.28858,1.4929 0.96028,2.9102 1.9331,4.078801 0.97286,1.1686 2.2448,2.0862 3.6607,2.6407 1.4159,0.5545 2.9727,0.74478 4.4804,0.54762 1.8999,-0.24843 3.7335,-1.1338 5.0107,-2.562 1.2772,-1.4283 1.9586,-3.406301 1.7,-5.304801 -0.1293,-0.94926 -0.48718,-1.8686995 -1.0482,-2.6452995 -0.561,-0.7766 -1.3254,-1.4076001 -2.2016,-1.7952001 -0.8762,-0.3876 -1.8623,-0.52871 -2.8095,-0.38494 -0.9472,0.14377 -1.8514,0.57427 -2.5483,1.2317 -0.63682,0.6007499 -1.0911,1.3743001 -1.417,2.1867996 -0.32595,0.81252 -0.53009,1.6679 -0.72491,2.5214 -0.19482,0.85351 -0.38223,1.7115 -0.67688,2.5359 -0.29465,0.824391 -0.70199,1.619801 -1.291,2.267401 -0.83147,0.91417 -2.0241,1.4985 -3.2581,1.564 -1.234,0.06556 -2.4930996,-0.39673 -3.3699996,-1.2674 -0.8769,-0.87067 -1.3495,-2.141 -1.2245,-3.370401 0.12496,-1.2294 0.85501,-2.3891 1.9249,-3.0073 0.67234,-0.38853 1.4601996,-0.56415 2.2360996,-0.53343 0.77592,0.03072 1.5388,0.26388 2.2176,0.64108 1.3575,0.75439 2.348,2.0581 2.9756,3.4787 1.0064,2.277801 1.1571,4.861501 2.1667,7.137901 0.50481,1.1382 1.241,2.2031 2.2661,2.9097 0.51256,0.35335 1.0931,0.61248 1.7043,0.73091 0.61118,0.11843 1.2529,0.09379 1.8454,-0.09747 0.55551,-0.17933 1.0619,-0.50353 1.4667,-0.92411 0.4048,-0.42058 0.70822,-0.93613 0.89178,-1.4902 0.36711,-1.1082 0.24234,-2.352 -0.25009,-3.4105 -0.49243,-1.0585 -1.3342,-1.9353 -2.3212,-2.5588 -0.987,-0.6235 -2.1151,-1.0028 -3.2647,-1.2059 -3.0454,-0.53798 -6.2937,0.18291 -8.8257,1.9587 -2.5318996,1.7757 -4.3160996,4.5843 -4.8474996,7.6309"
     fill="none"
     stroke="#282f36"
     stroke-width="2.5743"
     id="path12-8" />
</svg>
