<?xml version="1.0" encoding="UTF-8"?>
<svg width="420" height="100" version="1.1" viewBox="0 0 111.12 26.458" xmlns="http://www.w3.org/2000/svg" xmlns:cc="http://creativecommons.org/ns#" xmlns:dc="http://purl.org/dc/elements/1.1/" xmlns:rdf="http://www.w3.org/1999/02/22-rdf-syntax-ns#">
 <metadata>
  <rdf:RDF>
   <cc:Work rdf:about="">
    <dc:format>image/svg+xml</dc:format>
    <dc:type rdf:resource="http://purl.org/dc/dcmitype/StillImage"/>
    <dc:title/>
   </cc:Work>
  </rdf:RDF>
 </metadata>
 <g stroke-linecap="round">
  <rect x="-114.3" y="-98.425" width="77.787" height="20.108" fill-opacity="0" stroke-width="1.6669"/>
  <rect x="-65.617" y="-96.838" width="3.175" height="5.2917" fill="#fff" fill-opacity=".32932" stroke-width="1.6669"/>
  <g transform="translate(-.52916 2.6455)">
   <rect x="-114.3" y="-98.425" width="21.696" height="19.05" fill-opacity="0"/>
   <rect x="-114.3" y="-98.425" width="21.696" height="19.05" fill-opacity="0"/>
   <path d="m7.6743 2.7674c-0.46727 1.447-0.56242 3.0125-0.27384 4.5054s0.96028 2.9102 1.9331 4.0788c0.97286 1.1686 2.2448 2.0862 3.6607 2.6407s2.9727 0.74478 4.4804 0.54762c1.8999-0.24843 3.7335-1.1338 5.0107-2.562 1.2772-1.4283 1.9586-3.4063 1.7-5.3048-0.1293-0.94926-0.48718-1.8687-1.0482-2.6453-0.561-0.7766-1.3254-1.4076-2.2016-1.7952s-1.8623-0.52871-2.8095-0.38494-1.8514 0.57427-2.5483 1.2317c-0.63682 0.60075-1.0911 1.3743-1.417 2.1868-0.32595 0.81252-0.53009 1.6679-0.72491 2.5214-0.19482 0.85351-0.38223 1.7115-0.67688 2.5359-0.29465 0.82439-0.70199 1.6198-1.291 2.2674-0.83147 0.91417-2.0241 1.4985-3.2581 1.564-1.234 0.06556-2.4931-0.39673-3.37-1.2674s-1.3495-2.141-1.2245-3.3704c0.12496-1.2294 0.85501-2.3891 1.9249-3.0073 0.67234-0.38853 1.4602-0.56415 2.2361-0.53343 0.77592 0.03072 1.5388 0.26388 2.2176 0.64108 1.3575 0.75439 2.348 2.0581 2.9756 3.4787 1.0064 2.2778 1.1571 4.8615 2.1667 7.1379 0.50481 1.1382 1.241 2.2031 2.2661 2.9097 0.51256 0.35335 1.0931 0.61248 1.7043 0.73091 0.61118 0.11843 1.2529 0.09379 1.8454-0.09747 0.55551-0.17933 1.0619-0.50353 1.4667-0.92411s0.70822-0.93613 0.89178-1.4902c0.36711-1.1082 0.24234-2.352-0.25009-3.4105s-1.3342-1.9353-2.3212-2.5588-2.1151-1.0028-3.2647-1.2059c-3.0454-0.53798-6.2937 0.18291-8.8257 1.9587-2.5319 1.7757-4.3161 4.5843-4.8475 7.6309" fill="none" stroke="#282f36" stroke-width="2.5743"/>
  </g>
 </g>
 <g fill="#282f36" stroke-width=".37214" style="font-variant-caps:normal;font-variant-east-asian:normal;font-variant-ligatures:normal;font-variant-numeric:normal" aria-label="Swigle">
  <path d="m42.088 17.107q0 1.2356-0.46034 2.1684-0.46034 0.93279-1.2478 1.5627-0.78742 0.61782-1.8414 0.93279t-2.2532 0.31497q-0.81165 0-1.5143-0.13326-0.69051-0.13326-1.2235-0.31497-0.53302-0.19383-0.89645-0.39977-0.35131-0.20594-0.5088-0.36342t-0.23017-0.44822q-0.06057-0.30285-0.06057-0.8601 0-0.37554 0.02423-0.62994 0.02423-0.2544 0.07268-0.41188 0.06057-0.15748 0.14537-0.21806 0.09691-0.07268 0.21806-0.07268 0.1696 0 0.47245 0.20594 0.31497 0.19383 0.79954 0.43611 0.48457 0.24228 1.1508 0.44822 0.67839 0.19383 1.5627 0.19383 0.58148 0 1.0418-0.13326 0.46034-0.14537 0.77531-0.39977 0.32708-0.2544 0.49668-0.62994t0.1696-0.83588q0-0.53302-0.29074-0.90856-0.29074-0.38765-0.76319-0.67839-0.46034-0.30285-1.0539-0.55725-0.59359-0.26651-1.2235-0.55725-0.62994-0.29074-1.2235-0.65416-0.59359-0.37554-1.066-0.88433-0.46034-0.52091-0.75108-1.2235-0.29074-0.70262-0.29074-1.6839 0-1.1266 0.41188-1.9746 0.424-0.86011 1.1266-1.4174 0.71474-0.56937 1.6718-0.84799 0.96913-0.27863 2.0473-0.27863 0.55725 0 1.1145 0.084799 0.55725 0.084799 1.0418 0.23017 0.48457 0.14537 0.86011 0.32708t0.49668 0.30285q0.12114 0.12114 0.15748 0.20594 0.04846 0.084799 0.07268 0.23017 0.03634 0.13326 0.04846 0.35131 0.01211 0.20594 0.01211 0.52091 0 0.35131-0.02423 0.59359-0.01211 0.24228-0.06057 0.39977-0.03634 0.15748-0.12114 0.23017-0.07268 0.072685-0.20594 0.072685-0.13326 0-0.424-0.1696-0.29073-0.1696-0.71473-0.36343-0.424-0.20594-0.98125-0.36342-0.55725-0.1696-1.2235-0.1696-0.52091 0-0.90856 0.13326-0.38765 0.12114-0.65416 0.35131-0.2544 0.21805-0.38765 0.53302-0.12114 0.31497-0.12114 0.66628 0 0.52091 0.27863 0.90856 0.29074 0.37554 0.76319 0.67839 0.48457 0.29074 1.0903 0.55725 0.60571 0.2544 1.2356 0.54514 0.62994 0.29074 1.2356 0.66628 0.60571 0.36342 1.0782 0.88433 0.47245 0.5088 0.76319 1.2114 0.29074 0.69051 0.29074 1.6354z" style="font-variant-caps:normal;font-variant-east-asian:normal;font-variant-ligatures:normal;font-variant-numeric:normal"/>
  <path d="m60.634 10.565q0 0.13326-0.03634 0.32708-0.03634 0.19383-0.13326 0.55725l-2.8832 9.7761q-0.06057 0.20594-0.15748 0.3392-0.09691 0.12114-0.30285 0.19383-0.19383 0.07268-0.56936 0.09691-0.36342 0.02423-0.95702 0.02423t-0.96913-0.03634q-0.37554-0.02423-0.59359-0.09691-0.20594-0.07268-0.30285-0.19383-0.09691-0.13326-0.14537-0.32708l-1.8171-6.5659-0.02423-0.10903-0.02423 0.10903-1.6718 6.5659q-0.04846 0.20594-0.14537 0.3392-0.0848 0.12114-0.30285 0.19383-0.21806 0.07268-0.59359 0.09691t-0.96913 0.02423q-0.60571 0-0.98125-0.03634-0.36342-0.02423-0.58148-0.09691-0.20594-0.07268-0.30285-0.19383-0.09691-0.13326-0.14537-0.32708l-2.8589-9.7761q-0.10903-0.35131-0.14537-0.54514-0.02423-0.20594-0.02423-0.3392 0-0.12114 0.06057-0.20594 0.07268-0.09691 0.24228-0.14537 0.18171-0.06057 0.47245-0.0848 0.30285-0.02423 0.75108-0.02423 0.48457 0 0.78742 0.02423t0.47245 0.0848q0.1696 0.06057 0.23017 0.1696 0.07268 0.09691 0.10903 0.24228l2.1442 7.9348 0.02423 0.14537 0.02423-0.14537 2.011-7.9348q0.03634-0.14537 0.10903-0.24228 0.0848-0.10903 0.24228-0.1696 0.15748-0.06057 0.43611-0.0848 0.29074-0.02423 0.73896-0.02423t0.72685 0.03634q0.27863 0.02423 0.43611 0.0848 0.1696 0.04846 0.23017 0.14537 0.07268 0.0848 0.10903 0.20594l2.1563 7.9953 0.03634 0.13326 0.02423-0.14537 2.0594-7.9348q0.02423-0.14537 0.09691-0.24228 0.07268-0.10903 0.24228-0.1696 0.1696-0.06057 0.46034-0.0848 0.29074-0.02423 0.73896-0.02423t0.72685 0.02423q0.29074 0.02423 0.44822 0.0848 0.1696 0.04846 0.23017 0.14537 0.06057 0.0848 0.06057 0.20594z" style="font-variant-caps:normal;font-variant-east-asian:normal;font-variant-ligatures:normal;font-variant-numeric:normal"/>
  <path d="m65.662 21.395q0 0.12114-0.07268 0.21806-0.07269 0.0848-0.2544 0.14537-0.1696 0.06057-0.46034 0.0848-0.29074 0.03634-0.73896 0.03634t-0.73896-0.03634q-0.29074-0.02423-0.47245-0.0848-0.1696-0.06057-0.24228-0.14537-0.07268-0.09691-0.07268-0.21806v-10.782q0-0.12114 0.07268-0.20594 0.07268-0.09691 0.24228-0.15748 0.18171-0.07268 0.47245-0.10903 0.29074-0.03634 0.73896-0.03634t0.73896 0.03634q0.29074 0.03634 0.46034 0.10903 0.18171 0.06057 0.2544 0.15748 0.07268 0.0848 0.07268 0.20594zm0.23017-14.464q0 0.92068-0.37554 1.272-0.37554 0.35131-1.3931 0.35131-1.0297 0-1.3931-0.3392-0.35131-0.3392-0.35131-1.2235 0-0.92068 0.36342-1.272 0.37554-0.36342 1.4052-0.36342 1.0176 0 1.381 0.35131 0.36342 0.3392 0.36342 1.2235z" style="font-variant-caps:normal;font-variant-east-asian:normal;font-variant-ligatures:normal;font-variant-numeric:normal"/>
  <path d="m78.454 11.34q0 0.58148-0.13326 0.8601-0.13326 0.27863-0.32708 0.27863h-1.272q0.26651 0.29074 0.37554 0.66628 0.12114 0.36342 0.12114 0.76319 0 0.9449-0.31497 1.6839-0.31497 0.72685-0.90856 1.2356-0.58148 0.49668-1.4174 0.76319-0.82376 0.2544-1.8414 0.2544-0.52091 0-0.99336-0.12114-0.47245-0.13326-0.72685-0.30285-0.14537 0.15748-0.26651 0.37554-0.10903 0.21806-0.10903 0.48457 0 0.35131 0.30285 0.58148 0.31497 0.21806 0.87222 0.24228l2.6288 0.09691q0.92068 0.03634 1.6354 0.26651 0.72685 0.21806 1.2114 0.62994 0.49668 0.39977 0.75108 0.96913 0.26651 0.56936 0.26651 1.2962 0 0.79954-0.35131 1.5022-0.35131 0.71474-1.0539 1.2356t-1.7687 0.82376q-1.0539 0.30285-2.4713 0.30285-1.381 0-2.3623-0.21806-0.96913-0.21806-1.5991-0.60571-0.61782-0.38765-0.90856-0.93279-0.27863-0.53302-0.27863-1.1751 0-0.39977 0.09691-0.76319 0.10903-0.36342 0.30285-0.70262 0.20594-0.32708 0.49668-0.62994t0.66628-0.58148q-0.52091-0.27863-0.81165-0.75108-0.27863-0.48457-0.27863-1.0539 0-0.71474 0.32708-1.2962 0.32708-0.59359 0.84799-1.066-0.424-0.424-0.67839-1.0176-0.2544-0.59359-0.2544-1.4779 0-0.9449 0.32708-1.6839 0.3392-0.75108 0.93279-1.2599 0.59359-0.52091 1.4174-0.78742 0.82376-0.27863 1.8171-0.27863 0.5088 0 0.96913 0.060571 0.47245 0.06057 0.87222 0.1696h3.4283q0.20594 0 0.32708 0.26651 0.13326 0.26651 0.13326 0.89645zm-3.9129 2.5561q0-0.87222-0.48457-1.3568-0.48457-0.48457-1.3689-0.48457-0.44822 0-0.78742 0.15748-0.3392 0.14537-0.56937 0.41188-0.21805 0.2544-0.32708 0.60571-0.10903 0.3392-0.10903 0.71474 0 0.82376 0.48457 1.3083 0.48457 0.47245 1.3447 0.47245 0.46034 0 0.79953-0.14537 0.3392-0.14537 0.55725-0.39977 0.23017-0.2544 0.3392-0.58148 0.12114-0.3392 0.12114-0.70262zm0.71474 8.6253q0-0.54514-0.43611-0.83588-0.43611-0.29074-1.1993-0.31497l-2.1684-0.06057q-0.31497 0.23017-0.5088 0.44822-0.18171 0.20594-0.30285 0.39977-0.10903 0.19383-0.14537 0.37554-0.03634 0.18171-0.03634 0.37554 0 0.60571 0.60571 0.92068 0.61782 0.31497 1.7323 0.31497 0.69051 0 1.163-0.14537 0.47245-0.13326 0.76319-0.36342t0.41188-0.52091q0.12114-0.27863 0.12114-0.59359z" style="font-variant-caps:normal;font-variant-east-asian:normal;font-variant-ligatures:normal;font-variant-numeric:normal"/>
  <path d="m83.542 21.395q0 0.12114-0.07268 0.21806-0.07269 0.0848-0.2544 0.14537-0.1696 0.06057-0.46034 0.0848-0.29074 0.03634-0.73896 0.03634-0.44822 0-0.73896-0.03634-0.29074-0.02423-0.47245-0.0848-0.1696-0.06057-0.24228-0.14537-0.07269-0.09691-0.07269-0.21806v-15.93q0-0.12114 0.07269-0.21805 0.07268-0.096913 0.24228-0.15748 0.18171-0.072685 0.47245-0.10903 0.29074-0.036342 0.73896-0.036342 0.44822 0 0.73896 0.036342t0.46034 0.10903q0.18171 0.060571 0.2544 0.15748 0.07268 0.096913 0.07268 0.21805z" style="font-variant-caps:normal;font-variant-east-asian:normal;font-variant-ligatures:normal;font-variant-numeric:normal"/>
  <path d="m96.577 15.677q0 0.55725-0.2544 0.82376-0.24228 0.26651-0.67839 0.26651h-6.578q0 0.69051 0.15748 1.2599 0.1696 0.55725 0.52091 0.95702 0.36342 0.38765 0.92068 0.59359 0.56937 0.20594 1.3568 0.20594 0.79954 0 1.4052-0.10903 0.60571-0.12114 1.0418-0.2544 0.44822-0.14537 0.73896-0.2544 0.29074-0.12114 0.47245-0.12114 0.10903 0 0.18171 0.04846 0.07268 0.03634 0.12114 0.14537 0.04846 0.10903 0.06057 0.31497 0.02423 0.19383 0.02423 0.49668 0 0.26651-0.01211 0.46034-0.01211 0.18171-0.03634 0.31497-0.02423 0.13326-0.07268 0.23017-0.04846 0.0848-0.13326 0.1696-0.07269 0.0848-0.424 0.23017-0.35131 0.14537-0.89645 0.29074-0.54514 0.13326-1.2478 0.23017-0.70262 0.10903-1.5022 0.10903-1.4416 0-2.5319-0.36342-1.0782-0.36342-1.805-1.1024-0.72685-0.73896-1.0903-1.8656-0.35131-1.1266-0.35131-2.6409 0-1.4416 0.37554-2.5924 0.37554-1.163 1.0903-1.9625 0.71474-0.81165 1.7323-1.2356 1.0297-0.424 2.3138-0.424 1.3568 0 2.3138 0.39977 0.96913 0.39977 1.587 1.1145 0.61782 0.70262 0.90856 1.6718 0.29074 0.96913 0.29074 2.1079zm-2.9559-0.87222q0.03634-1.2841-0.52091-2.011-0.54514-0.73896-1.696-0.73896-0.58148 0-1.0176 0.21806-0.424 0.21806-0.71474 0.59359-0.27862 0.36342-0.43611 0.87222-0.14537 0.49668-0.1696 1.066z" style="font-variant-caps:normal;font-variant-east-asian:normal;font-variant-ligatures:normal;font-variant-numeric:normal"/>
 </g>
</svg>
